<svg width="402" height="874" viewBox="0 0 402 874" fill="none" xmlns="http://www.w3.org/2000/svg">
<g opacity="0.1">
<g clip-path="url(#clip0_1_12933)">
<path d="M60.6132 72.1382L53.6618 54.0558M49.1647 55.6462C45.5682 55.5974 46.9118 47.9239 53.53 53.9679M57.9807 52.257C60.6183 49.8116 54.4805 45.0142 53.6153 53.935M46.9456 66.3711L50.0138 74.3523C50.4904 75.5921 51.8817 76.2107 53.1214 75.7341L68.585 69.7894C69.8247 69.3128 70.4434 67.9215 69.9668 66.6818L66.8986 58.7006C66.422 57.4608 65.0306 56.8422 63.7909 57.3188L48.3273 63.2635C47.0876 63.7401 46.469 65.1314 46.9456 66.3711ZM43.3011 60.6152L43.9723 62.3611C44.4489 63.6008 45.8402 64.2195 47.08 63.7429L65.0377 56.8393C66.2774 56.3628 66.896 54.9714 66.4194 53.7317L65.7483 51.9858C65.2717 50.7461 63.8803 50.1274 62.6406 50.604L44.6829 57.5076C43.4432 57.9841 42.8246 59.3755 43.3011 60.6152Z" stroke="#B1B1B1" stroke-width="1.67005"/>
<path d="M77.917 531.138L84.8685 513.056M89.3655 514.646C92.9621 514.597 91.6185 506.924 85.0003 512.968M80.5496 511.257C77.9119 508.812 84.0497 504.014 84.9149 512.935M91.5847 525.371L88.5165 533.352C88.0399 534.592 86.6486 535.211 85.4088 534.734L69.9453 528.789C68.7055 528.313 68.0869 526.921 68.5635 525.682L71.6317 517.701C72.1083 516.461 73.4996 515.842 74.7394 516.319L90.2029 522.263C91.4427 522.74 92.0613 524.131 91.5847 525.371ZM95.2291 519.615L94.558 521.361C94.0814 522.601 92.69 523.219 91.4503 522.743L73.4926 515.839C72.2529 515.363 71.6342 513.971 72.1108 512.732L72.782 510.986C73.2586 509.746 74.6499 509.127 75.8897 509.604L93.8474 516.508C95.0871 516.984 95.7057 518.375 95.2291 519.615Z" stroke="#B1B1B1" stroke-width="1.67005"/>
<path d="M261.613 237.322L254.661 255.404M250.164 253.814C246.568 253.863 247.911 261.536 254.53 255.492M258.98 257.203C261.618 259.648 255.48 264.446 254.615 255.525M247.945 243.089L251.013 235.108C251.49 233.868 252.881 233.249 254.121 233.726L269.585 239.671C270.824 240.147 271.443 241.538 270.966 242.778L267.898 250.759C267.422 251.999 266.03 252.618 264.791 252.141L249.327 246.196C248.087 245.72 247.469 244.329 247.945 243.089ZM244.301 248.845L244.972 247.099C245.449 245.859 246.84 245.241 248.08 245.717L266.037 252.621C267.277 253.097 267.896 254.489 267.419 255.728L266.748 257.474C266.271 258.714 264.88 259.333 263.64 258.856L245.683 251.952C244.443 251.476 243.824 250.084 244.301 248.845Z" stroke="#B1B1B1" stroke-width="1.67005"/>
<path d="M141.583 272.97L144.604 253.834M139.914 252.963C136.824 251.122 141.824 245.149 144.534 253.692M149.243 254.436C152.75 253.637 149.834 246.413 144.624 253.706M132.63 261.141L131.296 269.587C131.089 270.899 131.985 272.131 133.297 272.338L149.661 274.921C150.973 275.129 152.204 274.233 152.411 272.921L153.745 264.475C153.952 263.163 153.056 261.932 151.744 261.725L135.38 259.141C134.068 258.934 132.837 259.83 132.63 261.141ZM132.352 254.334L132.06 256.182C131.853 257.494 132.748 258.725 134.06 258.932L153.064 261.933C154.376 262.14 155.607 261.244 155.814 259.932L156.106 258.085C156.313 256.773 155.417 255.541 154.106 255.334L135.102 252.334C133.79 252.127 132.559 253.023 132.352 254.334Z" stroke="#B1B1B1" stroke-width="1.67005"/>
<path d="M197.947 495.49L194.926 514.626M199.616 515.497C202.706 517.338 197.706 523.311 194.996 514.768M190.286 514.024C186.779 514.823 189.696 522.047 194.906 514.754M206.9 507.319L208.234 498.872C208.441 497.561 207.545 496.329 206.233 496.122L189.869 493.538C188.557 493.331 187.326 494.227 187.119 495.539L185.785 503.985C185.578 505.297 186.474 506.528 187.786 506.735L204.15 509.319C205.462 509.526 206.693 508.63 206.9 507.319ZM207.178 514.126L207.47 512.278C207.677 510.966 206.782 509.735 205.47 509.527L186.466 506.527C185.154 506.32 183.923 507.216 183.716 508.528L183.424 510.375C183.217 511.687 184.112 512.919 185.424 513.126L204.428 516.126C205.74 516.333 206.971 515.437 207.178 514.126Z" stroke="#B1B1B1" stroke-width="1.67005"/>
<path d="M-3.05244 731.97L-6.0735 712.834M-1.38377 711.963C1.70651 710.122 -3.29383 704.149 -6.00332 712.692M-10.7132 713.436C-14.2202 712.637 -11.3034 705.413 -6.09368 712.706M5.90059 720.141L7.23402 728.587C7.44114 729.899 6.54552 731.131 5.2336 731.338L-11.1306 733.921C-12.4425 734.129 -13.674 733.233 -13.8811 731.921L-15.2145 723.475C-15.4216 722.163 -14.526 720.932 -13.2141 720.725L3.15011 718.141C4.46203 717.934 5.69346 718.83 5.90059 720.141ZM6.17877 713.334L6.47046 715.182C6.67758 716.494 5.78196 717.725 4.47004 717.932L-14.5336 720.933C-15.8455 721.14 -17.0769 720.244 -17.284 718.932L-17.5757 717.085C-17.7828 715.773 -16.8872 714.541 -15.5753 714.334L3.42829 711.334C4.74022 711.127 5.97165 712.023 6.17877 713.334Z" stroke="#B1B1B1" stroke-width="1.67005"/>
<path d="M342.582 36.4903L345.603 55.6258M340.914 56.497C337.823 58.3375 342.824 64.3112 345.533 55.7679M350.243 55.0241C353.75 55.8231 350.833 63.0467 345.624 55.7536M333.629 48.3185L332.296 39.8725C332.089 38.5606 332.984 37.3291 334.296 37.122L350.661 34.5385C351.972 34.3314 353.204 35.227 353.411 36.5389L354.744 44.9849C354.952 46.2969 354.056 47.5283 352.744 47.7354L336.38 50.319C335.068 50.5261 333.836 49.6305 333.629 48.3185ZM333.351 55.1255L333.059 53.278C332.852 51.966 333.748 50.7346 335.06 50.5275L354.063 47.5272C355.375 47.3201 356.607 48.2157 356.814 49.5277L357.106 51.3752C357.313 52.6872 356.417 53.9186 355.105 54.1257L336.102 57.1259C334.79 57.3331 333.558 56.4374 333.351 55.1255Z" stroke="#B1B1B1" stroke-width="1.67005"/>
<path d="M8.61323 222.138L1.66177 204.056M-2.83526 205.646C-6.43178 205.597 -5.08818 197.924 1.52995 203.968M5.98068 202.257C8.61834 199.812 2.48053 195.014 1.61534 203.935M-5.05445 216.371L-1.98622 224.352C-1.50963 225.592 -0.118283 226.211 1.12144 225.734L16.585 219.789C17.8247 219.313 18.4434 217.921 17.9668 216.682L14.8986 208.701C14.422 207.461 13.0306 206.842 11.7909 207.319L-3.67267 213.263C-4.9124 213.74 -5.53104 215.131 -5.05445 216.371ZM-8.69886 210.615L-8.02768 212.361C-7.55109 213.601 -6.15975 214.219 -4.92003 213.743L13.0377 206.839C14.2774 206.363 14.896 204.971 14.4194 203.732L13.7483 201.986C13.2717 200.746 11.8803 200.127 10.6406 200.604L-7.31709 207.508C-8.55681 207.984 -9.17545 209.375 -8.69886 210.615Z" stroke="#B1B1B1" stroke-width="1.67005"/>
<path d="M330.917 546.322L337.869 564.404M342.366 562.814C345.962 562.863 344.618 570.536 338 564.492M333.55 566.203C330.912 568.648 337.05 573.446 337.915 564.525M344.585 552.089L341.516 544.108C341.04 542.868 339.649 542.249 338.409 542.726L322.945 548.671C321.706 549.147 321.087 550.538 321.563 551.778L324.632 559.759C325.108 560.999 326.5 561.618 327.739 561.141L343.203 555.196C344.443 554.72 345.061 553.329 344.585 552.089ZM348.229 557.845L347.558 556.099C347.081 554.859 345.69 554.241 344.45 554.717L326.493 561.621C325.253 562.097 324.634 563.489 325.111 564.728L325.782 566.474C326.259 567.714 327.65 568.333 328.89 567.856L346.847 560.952C348.087 560.476 348.706 559.084 348.229 557.845Z" stroke="#B1B1B1" stroke-width="1.67005"/>
<path d="M301.486 736.496L293.616 754.197M297.92 756.253C300.429 758.83 294.053 763.306 293.647 754.353M289.29 752.415C285.695 752.28 286.643 760.012 293.563 754.316M307.073 750.238L310.547 742.425C311.087 741.212 310.54 739.79 309.327 739.251L294.189 732.52C292.975 731.98 291.554 732.527 291.014 733.74L287.54 741.553C287 742.767 287.547 744.188 288.76 744.728L303.898 751.459C305.112 751.998 306.533 751.452 307.073 750.238ZM305.58 756.885L306.34 755.176C306.879 753.963 306.333 752.541 305.119 752.002L287.54 744.185C286.326 743.646 284.905 744.192 284.365 745.406L283.605 747.115C283.066 748.328 283.612 749.75 284.826 750.289L302.405 758.106C303.619 758.645 305.04 758.099 305.58 756.885Z" stroke="#B1B1B1" stroke-width="1.67005"/>
<path d="M283.721 865.381L275.85 883.082M280.155 885.138C282.663 887.715 276.287 892.191 275.881 883.238M271.524 881.3C267.93 881.164 268.878 888.897 275.798 883.2M289.308 879.123L292.782 871.31C293.321 870.096 292.775 868.675 291.561 868.135L276.423 861.405C275.21 860.865 273.788 861.411 273.249 862.625L269.775 870.438C269.235 871.652 269.781 873.073 270.995 873.613L286.133 880.343C287.347 880.883 288.768 880.337 289.308 879.123ZM287.814 885.77L288.574 884.061C289.114 882.847 288.568 881.426 287.354 880.886L269.774 873.07C268.561 872.53 267.14 873.077 266.6 874.29L265.84 876C265.3 877.213 265.847 878.634 267.06 879.174L284.64 886.991C285.854 887.53 287.275 886.984 287.814 885.77Z" stroke="#B1B1B1" stroke-width="1.67005"/>
<path d="M129.917 681.138L136.869 663.056M141.366 664.646C144.962 664.597 143.618 656.924 137 662.968M132.55 661.257C129.912 658.812 136.05 654.014 136.915 662.935M143.585 675.371L140.516 683.352C140.04 684.592 138.649 685.211 137.409 684.734L121.945 678.789C120.706 678.313 120.087 676.921 120.563 675.682L123.632 667.701C124.108 666.461 125.5 665.842 126.739 666.319L142.203 672.263C143.443 672.74 144.061 674.131 143.585 675.371ZM147.229 669.615L146.558 671.361C146.081 672.601 144.69 673.219 143.45 672.743L125.493 665.839C124.253 665.363 123.634 663.971 124.111 662.732L124.782 660.986C125.259 659.746 126.65 659.127 127.89 659.604L145.847 666.508C147.087 666.984 147.706 668.375 147.229 669.615Z" stroke="#B1B1B1" stroke-width="1.67005"/>
<path d="M209.613 87.3218L202.661 105.404M198.164 103.814C194.568 103.863 195.911 111.536 202.53 105.492M206.98 107.203C209.618 109.648 203.48 114.446 202.615 105.525M195.945 93.0888L199.013 85.1076C199.49 83.8679 200.881 83.2493 202.121 83.7258L217.585 89.6705C218.824 90.1471 219.443 91.5385 218.966 92.7782L215.898 100.759C215.422 101.999 214.03 102.618 212.791 102.141L197.327 96.1965C196.087 95.7199 195.469 94.3285 195.945 93.0888ZM192.301 98.8448L192.972 97.0989C193.449 95.8591 194.84 95.2405 196.08 95.7171L214.037 102.621C215.277 103.097 215.896 104.489 215.419 105.728L214.748 107.474C214.271 108.714 212.88 109.333 211.64 108.856L193.683 101.952C192.443 101.476 191.824 100.084 192.301 98.8448Z" stroke="#B1B1B1" stroke-width="1.67005"/>
<path d="M21.5495 376.874L24.5706 357.738M19.8808 356.867C16.7906 355.026 21.7909 349.053 24.5004 357.596M29.2102 358.34C32.7172 357.541 29.8004 350.317 24.5907 357.61M12.5965 365.045L11.2631 373.491C11.0559 374.803 11.9515 376.035 13.2635 376.242L29.6277 378.825C30.9396 379.032 32.171 378.137 32.3782 376.825L33.7116 368.379C33.9187 367.067 33.0231 365.835 31.7112 365.628L15.347 363.045C14.035 362.838 12.8036 363.733 12.5965 365.045ZM12.3183 358.238L12.0266 360.086C11.8195 361.398 12.7151 362.629 14.027 362.836L33.0306 365.837C34.3425 366.044 35.574 365.148 35.7811 363.836L36.0728 361.989C36.2799 360.677 35.3843 359.445 34.0724 359.238L15.0688 356.238C13.7569 356.031 12.5254 356.926 12.3183 358.238Z" stroke="#B1B1B1" stroke-width="1.67005"/>
<path d="M317.98 391.586L314.959 410.722M319.649 411.593C322.739 413.434 317.739 419.407 315.03 410.864M310.32 410.12C306.813 410.919 309.729 418.143 314.939 410.85M326.933 403.415L328.267 394.969C328.474 393.657 327.578 392.425 326.266 392.218L309.902 389.635C308.59 389.428 307.359 390.323 307.152 391.635L305.818 400.081C305.611 401.393 306.507 402.624 307.819 402.832L324.183 405.415C325.495 405.622 326.726 404.727 326.933 403.415ZM327.212 410.222L327.503 408.374C327.71 407.062 326.815 405.831 325.503 405.624L306.499 402.623C305.187 402.416 303.956 403.312 303.749 404.624L303.457 406.471C303.25 407.783 304.146 409.015 305.458 409.222L324.461 412.222C325.773 412.429 327.004 411.534 327.212 410.222Z" stroke="#B1B1B1" stroke-width="1.67005"/>
<path d="M359.523 793.97L356.502 774.834M361.192 773.963C364.282 772.122 359.282 766.149 356.572 774.692M351.863 775.436C348.356 774.637 351.272 767.413 356.482 774.706M368.476 782.141L369.81 790.587C370.017 791.899 369.121 793.131 367.809 793.338L351.445 795.921C350.133 796.129 348.902 795.233 348.695 793.921L347.361 785.475C347.154 784.163 348.05 782.932 349.362 782.725L365.726 780.141C367.038 779.934 368.269 780.83 368.476 782.141ZM368.755 775.334L369.046 777.182C369.253 778.494 368.358 779.725 367.046 779.932L348.042 782.933C346.73 783.14 345.499 782.244 345.292 780.932L345 779.085C344.793 777.773 345.689 776.541 347.001 776.334L366.004 773.334C367.316 773.127 368.547 774.023 368.755 775.334Z" stroke="#B1B1B1" stroke-width="1.67005"/>
<path d="M106.216 131.703L96.5301 148.481M100.595 150.977C102.819 153.803 96.008 157.585 96.5446 148.638M92.4153 146.254C88.8552 145.742 88.9857 153.531 96.4654 148.593M110.329 145.957L114.604 138.552C115.268 137.401 114.874 135.931 113.724 135.266L99.3765 126.983C98.2263 126.319 96.7555 126.713 96.0914 127.863L91.8161 135.268C91.152 136.419 91.5461 137.889 92.6963 138.553L107.044 146.837C108.194 147.501 109.665 147.107 110.329 145.957ZM108.146 152.41L109.081 150.79C109.745 149.64 109.351 148.169 108.201 147.505L91.5395 137.886C90.3892 137.222 88.9184 137.616 88.2543 138.766L87.3191 140.386C86.655 141.536 87.0491 143.007 88.1994 143.671L104.861 153.29C106.011 153.954 107.482 153.56 108.146 152.41Z" stroke="#B1B1B1" stroke-width="1.67005"/>
<path d="M233.314 636.756L243 619.979M238.935 617.483C236.711 614.656 243.522 610.875 242.986 619.822M247.115 622.206C250.675 622.718 250.545 614.929 243.065 619.867M229.201 622.503L224.926 629.908C224.262 631.059 224.656 632.529 225.806 633.194L240.154 641.477C241.304 642.141 242.775 641.747 243.439 640.597L247.714 633.192C248.378 632.041 247.984 630.571 246.834 629.907L232.487 621.623C231.336 620.959 229.866 621.353 229.201 622.503ZM231.384 616.05L230.449 617.67C229.785 618.82 230.179 620.291 231.329 620.955L247.991 630.574C249.141 631.238 250.612 630.844 251.276 629.694L252.211 628.074C252.875 626.924 252.481 625.453 251.331 624.789L234.669 615.17C233.519 614.505 232.048 614.9 231.384 616.05Z" stroke="#B1B1B1" stroke-width="1.67005"/>
<path d="M143.748 580.26L153.434 563.483M149.369 560.987C147.145 558.16 153.956 554.379 153.419 563.325M157.549 565.71C161.109 566.222 160.978 558.433 153.498 563.371M139.635 566.007L135.36 573.412C134.696 574.563 135.09 576.033 136.24 576.697L150.587 584.981C151.738 585.645 153.208 585.251 153.872 584.101L158.148 576.696C158.812 575.545 158.418 574.075 157.268 573.41L142.92 565.127C141.77 564.463 140.299 564.857 139.635 566.007ZM141.818 559.554L140.883 561.174C140.219 562.324 140.613 563.795 141.763 564.459L158.424 574.078C159.575 574.742 161.045 574.348 161.71 573.198L162.645 571.578C163.309 570.428 162.915 568.957 161.765 568.293L145.103 558.673C143.953 558.009 142.482 558.403 141.818 559.554Z" stroke="#B1B1B1" stroke-width="1.67005"/>
<path d="M150.758 743.312L169.47 738.298M168.361 733.659C168.787 730.087 176.277 732.229 169.571 738.176M170.805 742.782C172.96 745.662 178.376 740.062 169.595 738.264M157.928 730.325L149.669 732.538C148.386 732.882 147.625 734.201 147.968 735.484L152.256 751.486C152.6 752.769 153.919 753.53 155.202 753.187L163.461 750.974C164.744 750.63 165.505 749.311 165.161 748.028L160.874 732.026C160.53 730.743 159.211 729.982 157.928 730.325ZM164.035 727.306L162.228 727.79C160.945 728.133 160.184 729.452 160.528 730.735L165.507 749.318C165.851 750.601 167.17 751.363 168.453 751.019L170.259 750.535C171.542 750.191 172.304 748.872 171.96 747.589L166.98 729.006C166.637 727.723 165.318 726.962 164.035 727.306Z" stroke="#B1B1B1" stroke-width="1.67005"/>
<path d="M150.758 860.312L169.47 855.298M168.361 850.659C168.787 847.087 176.277 849.229 169.571 855.176M170.805 859.782C172.96 862.662 178.376 857.062 169.595 855.264M157.928 847.325L149.669 849.538C148.386 849.882 147.625 851.201 147.968 852.484L152.256 868.486C152.6 869.769 153.919 870.53 155.202 870.187L163.461 867.974C164.744 867.63 165.505 866.311 165.161 865.028L160.874 849.026C160.53 847.743 159.211 846.982 157.928 847.325ZM164.035 844.306L162.228 844.79C160.945 845.133 160.184 846.452 160.528 847.735L165.507 866.318C165.851 867.601 167.17 868.363 168.453 868.019L170.259 867.535C171.542 867.191 172.304 865.872 171.96 864.589L166.98 846.006C166.637 844.723 165.318 843.962 164.035 844.306Z" stroke="#B1B1B1" stroke-width="1.67005"/>
<path d="M307.757 690.312L326.47 685.298M325.361 680.659C325.787 677.087 333.277 679.229 326.571 685.176M327.805 689.782C329.96 692.662 335.376 687.062 326.595 685.264M314.928 677.325L306.669 679.538C305.386 679.882 304.624 681.201 304.968 682.484L309.256 698.486C309.6 699.769 310.918 700.53 312.201 700.187L320.461 697.974C321.744 697.63 322.505 696.311 322.161 695.028L317.873 679.026C317.53 677.743 316.211 676.982 314.928 677.325ZM321.035 674.306L319.228 674.79C317.945 675.133 317.184 676.452 317.528 677.735L322.507 696.318C322.851 697.601 324.169 698.363 325.452 698.019L327.259 697.535C328.542 697.191 329.303 695.872 328.96 694.589L323.98 676.006C323.636 674.723 322.318 673.962 321.035 674.306Z" stroke="#B1B1B1" stroke-width="1.67005"/>
<path d="M32.3139 590.703L42.0002 607.481M37.9354 609.977C35.7114 612.803 42.5222 616.585 41.9857 607.638M46.115 605.254C49.6751 604.742 49.5446 612.531 42.0649 607.593M28.2015 604.957L23.9262 597.552C23.2621 596.401 23.6562 594.931 24.8064 594.266L39.1537 585.983C40.304 585.319 41.7748 585.713 42.4389 586.863L46.7142 594.268C47.3783 595.419 46.9842 596.889 45.8339 597.553L31.4866 605.837C30.3364 606.501 28.8656 606.107 28.2015 604.957ZM30.3844 611.41L29.4491 609.79C28.7851 608.64 29.1792 607.169 30.3294 606.505L46.9908 596.886C48.1411 596.222 49.6118 596.616 50.2759 597.766L51.2112 599.386C51.8753 600.536 51.4812 602.007 50.3309 602.671L33.6695 612.29C32.5193 612.954 31.0485 612.56 30.3844 611.41Z" stroke="#B1B1B1" stroke-width="1.67005"/>
<path d="M307.216 177.756L297.53 160.979M301.594 158.483C303.819 155.656 297.008 151.875 297.544 160.822M293.415 163.206C289.855 163.718 289.985 155.929 297.465 160.867M311.328 163.503L315.604 170.908C316.268 172.059 315.874 173.529 314.724 174.194L300.376 182.477C299.226 183.141 297.755 182.747 297.091 181.597L292.816 174.192C292.152 173.041 292.546 171.571 293.696 170.907L308.043 162.623C309.194 161.959 310.664 162.353 311.328 163.503ZM309.146 157.05L310.081 158.67C310.745 159.82 310.351 161.291 309.201 161.955L292.539 171.574C291.389 172.238 289.918 171.844 289.254 170.694L288.319 169.074C287.655 167.924 288.049 166.453 289.199 165.789L305.86 156.17C307.011 155.505 308.481 155.9 309.146 157.05Z" stroke="#B1B1B1" stroke-width="1.67005"/>
<path d="M151.294 347.356L134.516 357.043M136.789 361.237C137.301 364.797 129.512 364.666 134.45 357.186M132.066 353.057C129.239 350.833 125.458 357.644 134.404 357.107M147.729 361.756L155.134 357.481C156.284 356.817 156.678 355.346 156.014 354.196L147.73 339.848C147.066 338.698 145.596 338.304 144.445 338.968L137.04 343.243C135.89 343.907 135.496 345.378 136.16 346.528L144.443 360.876C145.108 362.026 146.578 362.42 147.729 361.756ZM142.611 366.254L144.231 365.318C145.381 364.654 145.776 363.183 145.111 362.033L135.492 345.372C134.828 344.222 133.357 343.827 132.207 344.491L130.587 345.427C129.437 346.091 129.043 347.562 129.707 348.712L139.326 365.373C139.99 366.524 141.461 366.918 142.611 366.254Z" stroke="#B1B1B1" stroke-width="1.67005"/>
<path d="M188.236 421.104L205.013 411.417M202.741 407.223C202.229 403.663 210.018 403.794 205.08 411.273M207.464 415.403C210.291 417.627 214.072 410.816 205.125 411.353M191.801 406.704L184.396 410.979C183.246 411.643 182.852 413.114 183.516 414.264L191.799 428.612C192.464 429.762 193.934 430.156 195.085 429.492L202.49 425.217C203.64 424.552 204.034 423.082 203.37 421.931L195.086 407.584C194.422 406.434 192.952 406.04 191.801 406.704ZM196.919 402.206L195.299 403.142C194.148 403.806 193.754 405.277 194.418 406.427L204.038 423.088C204.702 424.238 206.173 424.633 207.323 423.968L208.943 423.033C210.093 422.369 210.487 420.898 209.823 419.748L200.204 403.087C199.54 401.936 198.069 401.542 196.919 402.206Z" stroke="#B1B1B1" stroke-width="1.67005"/>
<path d="M-12.7634 806.356L4.01378 816.043M1.74157 820.237C1.22891 823.797 9.01806 823.666 4.08009 816.186M6.46404 812.057C9.29087 809.833 13.0724 816.644 4.12583 816.107M-9.19826 820.756L-16.6033 816.481C-17.7536 815.817 -18.1477 814.346 -17.4836 813.196L-9.20014 798.848C-8.53606 797.698 -7.06526 797.304 -5.91503 797.968L1.49006 802.243C2.64029 802.907 3.03439 804.378 2.3703 805.528L-5.91314 819.876C-6.57723 821.026 -8.04803 821.42 -9.19826 820.756ZM-4.08107 825.254L-5.70094 824.318C-6.85117 823.654 -7.24527 822.183 -6.58118 821.033L3.0383 804.372C3.70239 803.222 5.17318 802.827 6.32342 803.491L7.94328 804.427C9.09351 805.091 9.48761 806.562 8.82352 807.712L-0.795959 824.373C-1.46005 825.524 -2.93084 825.918 -4.08107 825.254Z" stroke="#B1B1B1" stroke-width="1.67005"/>
<path d="M54.2164 281.703L44.5301 298.481M48.5949 300.977C50.8189 303.803 44.008 307.585 44.5446 298.638M40.4153 296.254C36.8552 295.742 36.9857 303.531 44.4654 298.593M58.3288 295.957L62.6041 288.552C63.2682 287.401 62.8741 285.931 61.7239 285.266L47.3765 276.983C46.2263 276.319 44.7555 276.713 44.0914 277.863L39.8161 285.268C39.152 286.419 39.5461 287.889 40.6963 288.553L55.0437 296.837C56.1939 297.501 57.6647 297.107 58.3288 295.957ZM56.1459 302.41L57.0811 300.79C57.7452 299.64 57.3511 298.169 56.2009 297.505L39.5395 287.886C38.3892 287.222 36.9184 287.616 36.2543 288.766L35.3191 290.386C34.655 291.536 35.0491 293.007 36.1994 293.671L52.8608 303.29C54.011 303.954 55.4818 303.56 56.1459 302.41Z" stroke="#B1B1B1" stroke-width="1.67005"/>
<path d="M285.314 486.756L295 469.979M290.935 467.483C288.711 464.656 295.522 460.875 294.986 469.822M299.115 472.206C302.675 472.718 302.545 464.929 295.065 469.867M281.201 472.503L276.926 479.908C276.262 481.059 276.656 482.529 277.806 483.194L292.154 491.477C293.304 492.141 294.775 491.747 295.439 490.597L299.714 483.192C300.378 482.041 299.984 480.571 298.834 479.907L284.487 471.623C283.336 470.959 281.866 471.353 281.201 472.503ZM283.384 466.05L282.449 467.67C281.785 468.82 282.179 470.291 283.329 470.955L299.991 480.574C301.141 481.238 302.612 480.844 303.276 479.694L304.211 478.074C304.875 476.924 304.481 475.453 303.331 474.789L286.669 465.17C285.519 464.505 284.048 464.9 283.384 466.05Z" stroke="#B1B1B1" stroke-width="1.67005"/>
<path d="M379.234 132.26L388.92 115.483M384.855 112.987C382.631 110.16 389.442 106.379 388.906 115.325M393.035 117.71C396.595 118.222 396.465 110.433 388.985 115.371M375.121 118.007L370.846 125.412C370.182 126.563 370.576 128.033 371.726 128.697L386.074 136.981C387.224 137.645 388.695 137.251 389.359 136.101L393.634 128.696C394.298 127.545 393.904 126.075 392.754 125.41L378.407 117.127C377.256 116.463 375.785 116.857 375.121 118.007ZM377.304 111.554L376.369 113.174C375.705 114.324 376.099 115.795 377.249 116.459L393.911 126.078C395.061 126.742 396.532 126.348 397.196 125.198L398.131 123.578C398.795 122.428 398.401 120.957 397.251 120.293L380.589 110.673C379.439 110.009 377.968 110.403 377.304 111.554Z" stroke="#B1B1B1" stroke-width="1.67005"/>
<path d="M376.99 333.022L379.874 313.865M375.178 313.028C372.075 311.209 377.032 305.2 379.803 313.724M384.518 314.434C388.019 313.61 385.05 306.407 379.893 313.737M367.952 321.258L366.679 329.714C366.482 331.027 367.386 332.252 368.699 332.45L385.082 334.916C386.395 335.114 387.62 334.209 387.818 332.896L389.091 324.44C389.288 323.127 388.384 321.902 387.071 321.704L370.688 319.238C369.375 319.04 368.15 319.945 367.952 321.258ZM367.625 314.453L367.347 316.303C367.149 317.616 368.054 318.841 369.367 319.039L388.392 321.903C389.705 322.101 390.93 321.196 391.128 319.883L391.406 318.033C391.604 316.72 390.699 315.495 389.386 315.297L370.361 312.433C369.048 312.236 367.823 313.14 367.625 314.453Z" stroke="#B1B1B1" stroke-width="1.67005"/>
<path d="M70.7475 729.591L80.4338 746.368M76.369 748.864C74.145 751.691 80.9558 755.472 80.4193 746.526M84.5486 744.141C88.1087 743.629 87.9782 751.418 80.4985 746.48M66.6351 743.844L62.3597 736.439C61.6957 735.289 62.0898 733.818 63.24 733.154L77.5873 724.87C78.7376 724.206 80.2084 724.6 80.8724 725.751L85.1478 733.156C85.8119 734.306 85.4178 735.777 84.2675 736.441L69.9202 744.724C68.77 745.388 67.2992 744.994 66.6351 743.844ZM68.818 750.297L67.8827 748.678C67.2187 747.527 67.6128 746.057 68.763 745.392L85.4244 735.773C86.5746 735.109 88.0454 735.503 88.7095 736.653L89.6448 738.273C90.3088 739.423 89.9147 740.894 88.7645 741.558L72.1031 751.178C70.9528 751.842 69.4821 751.448 68.818 750.297Z" stroke="#B1B1B1" stroke-width="1.67005"/>
<path d="M255.216 27.7565L245.53 10.9793M249.594 8.48332C251.819 5.65649 245.008 1.87495 245.544 10.8215M241.415 13.2058C237.855 13.7185 237.985 5.92931 245.465 10.8673M259.328 13.5033L263.604 20.9084C264.268 22.0586 263.874 23.5294 262.724 24.1935L248.376 32.4769C247.226 33.141 245.755 32.7469 245.091 31.5967L240.816 24.1916C240.152 23.0414 240.546 21.5706 241.696 20.9065L256.043 12.6231C257.194 11.959 258.664 12.3531 259.328 13.5033ZM257.146 7.04982L258.081 8.66969C258.745 9.81992 258.351 11.2907 257.201 11.9548L240.539 21.5743C239.389 22.2384 237.918 21.8443 237.254 20.694L236.319 19.0742C235.655 17.9239 236.049 16.4532 237.199 15.7891L253.86 6.16958C255.011 5.50549 256.481 5.89959 257.146 7.04982Z" stroke="#B1B1B1" stroke-width="1.67005"/>
<path d="M31.2604 451.26L14.4833 460.946M16.7555 465.14C17.2682 468.7 9.47901 468.57 14.417 461.09M12.033 456.961C9.2062 454.737 5.42465 461.548 14.3712 461.011M27.6953 465.66L35.1004 461.385C36.2506 460.72 36.6447 459.25 35.9807 458.099L27.6972 443.752C27.0331 442.602 25.5623 442.208 24.4121 442.872L17.007 447.147C15.8568 447.811 15.4627 449.282 16.1268 450.432L24.4102 464.78C25.0743 465.93 26.5451 466.324 27.6953 465.66ZM22.5781 470.157L24.198 469.222C25.3482 468.558 25.7423 467.087 25.0783 465.937L15.4588 449.276C14.7947 448.125 13.3239 447.731 12.1737 448.395L10.5538 449.331C9.40356 449.995 9.00946 451.465 9.67355 452.616L19.293 469.277C19.9571 470.427 21.4279 470.821 22.5781 470.157Z" stroke="#B1B1B1" stroke-width="1.67005"/>
<path d="M308.269 317.2L325.047 307.514M322.774 303.32C322.262 299.759 330.051 299.89 325.113 307.37M327.497 311.499C330.324 313.723 334.105 306.912 325.159 307.449M311.835 302.8L304.429 307.075C303.279 307.739 302.885 309.21 303.549 310.361L311.833 324.708C312.497 325.858 313.968 326.252 315.118 325.588L322.523 321.313C323.673 320.649 324.067 319.178 323.403 318.028L315.12 303.68C314.456 302.53 312.985 302.136 311.835 302.8ZM316.952 298.303L315.332 299.238C314.182 299.902 313.788 301.373 314.452 302.523L324.071 319.184C324.735 320.335 326.206 320.729 327.356 320.065L328.976 319.129C330.126 318.465 330.52 316.995 329.856 315.844L320.237 299.183C319.573 298.033 318.102 297.639 316.952 298.303Z" stroke="#B1B1B1" stroke-width="1.67005"/>
<path d="M121.426 79.7818V60.4092M116.658 60.28C113.318 58.9439 117.326 52.2636 121.334 60.2798M126.102 60.28C129.442 58.9439 125.434 52.2636 121.426 60.2798M110.738 69.4944V78.0451C110.738 79.3732 111.814 80.4499 113.143 80.4499H129.709C131.038 80.4499 132.114 79.3732 132.114 78.0451V69.4944C132.114 68.1662 131.038 67.0895 129.709 67.0895H113.143C111.814 67.0895 110.738 68.1662 110.738 69.4944ZM109.401 62.8141V64.6845C109.401 66.0127 110.478 67.0894 111.806 67.0894H131.045C132.373 67.0894 133.45 66.0127 133.45 64.6845V62.8141C133.45 61.4859 132.373 60.4092 131.045 60.4092H111.806C110.478 60.4092 109.401 61.4859 109.401 62.8141Z" stroke="#B1B1B1" stroke-width="1.67005"/>
<path d="M17.1046 538.782V519.409M21.8728 519.28C25.2123 517.944 21.2047 511.264 17.196 519.28M12.4278 519.28C9.08833 517.944 13.0959 511.264 17.1046 519.28M27.7926 528.494V537.045C27.7926 538.373 26.7159 539.45 25.3877 539.45H8.82085C7.49267 539.45 6.41598 538.373 6.41598 537.045V528.494C6.41598 527.166 7.49267 526.089 8.82085 526.089H25.3877C26.7159 526.089 27.7926 527.166 27.7926 528.494ZM29.1289 521.814V523.684C29.1289 525.013 28.0522 526.089 26.724 526.089H7.48507C6.1569 526.089 5.0802 525.013 5.0802 523.684V521.814C5.0802 520.486 6.1569 519.409 7.48507 519.409H26.724C28.0522 519.409 29.1289 520.486 29.1289 521.814Z" stroke="#B1B1B1" stroke-width="1.67005"/>
<path d="M322.425 229.678V249.051M317.657 249.18C314.318 250.516 318.325 257.196 322.334 249.18M327.102 249.18C330.442 250.516 326.434 257.196 322.425 249.18M311.737 239.966V231.415C311.737 230.087 312.814 229.01 314.142 229.01H330.709C332.037 229.01 333.114 230.087 333.114 231.415V239.966C333.114 241.294 332.037 242.37 330.709 242.37H314.142C312.814 242.37 311.737 241.294 311.737 239.966ZM310.401 246.646V244.775C310.401 243.447 311.478 242.371 312.806 242.371H332.045C333.373 242.371 334.45 243.447 334.45 244.775V246.646C334.45 247.974 333.373 249.051 332.045 249.051H312.806C311.478 249.051 310.401 247.974 310.401 246.646Z" stroke="#B1B1B1" stroke-width="1.67005"/>
<path d="M190.426 309.995L200.113 293.218M196.048 290.722C193.824 287.896 200.635 284.114 200.098 293.061M204.227 295.445C207.787 295.957 207.657 288.168 200.177 293.106M186.314 295.742L182.038 303.147C181.374 304.298 181.768 305.768 182.919 306.433L197.266 314.716C198.416 315.38 199.887 314.986 200.551 313.836L204.826 306.431C205.491 305.28 205.096 303.81 203.946 303.146L189.599 294.862C188.449 294.198 186.978 294.592 186.314 295.742ZM188.497 289.289L187.561 290.909C186.897 292.059 187.291 293.53 188.442 294.194L205.103 303.813C206.253 304.477 207.724 304.083 208.388 302.933L209.323 301.313C209.988 300.163 209.593 298.692 208.443 298.028L191.782 288.409C190.632 287.745 189.161 288.139 188.497 289.289Z" stroke="#B1B1B1" stroke-width="1.67005"/>
<path d="M151.748 194.26L161.434 177.483M157.369 174.987C155.145 172.16 161.956 168.379 161.419 177.325M165.549 179.71C169.109 180.222 168.978 172.433 161.498 177.371M147.635 180.007L143.36 187.412C142.696 188.563 143.09 190.033 144.24 190.697L158.587 198.981C159.738 199.645 161.208 199.251 161.872 198.101L166.148 190.696C166.812 189.545 166.418 188.074 165.268 187.41L150.92 179.127C149.77 178.463 148.299 178.857 147.635 180.007ZM149.818 173.554L148.883 175.174C148.219 176.324 148.613 177.795 149.763 178.459L166.424 188.078C167.575 188.742 169.045 188.348 169.71 187.198L170.645 185.578C171.309 184.428 170.915 182.957 169.765 182.293L153.103 172.673C151.953 172.009 150.482 172.403 149.818 173.554Z" stroke="#B1B1B1" stroke-width="1.67005"/>
<path d="M149.104 458.464L139.417 475.242M143.482 477.738C145.706 480.564 138.895 484.346 139.432 475.399M135.303 473.015C131.743 472.502 131.873 480.292 139.353 475.354M153.216 472.718L157.491 465.313C158.156 464.162 157.761 462.692 156.611 462.027L142.264 453.744C141.114 453.08 139.643 453.474 138.979 454.624L134.703 462.029C134.039 463.18 134.433 464.65 135.584 465.314L149.931 473.598C151.081 474.262 152.552 473.868 153.216 472.718ZM151.033 479.171L151.968 477.551C152.633 476.401 152.238 474.93 151.088 474.266L134.427 464.647C133.277 463.983 131.806 464.377 131.142 465.527L130.206 467.147C129.542 468.297 129.936 469.768 131.087 470.432L147.748 480.051C148.898 480.715 150.369 480.321 151.033 479.171Z" stroke="#B1B1B1" stroke-width="1.67005"/>
<path d="M69.4257 229.782V210.409M64.6575 210.28C61.318 208.944 65.3256 202.264 69.3342 210.28M74.1025 210.28C77.4419 208.944 73.4343 202.264 69.4257 210.28M58.7377 219.494V228.045C58.7377 229.373 59.8144 230.45 61.1425 230.45H77.7094C79.0376 230.45 80.1143 229.373 80.1143 228.045V219.494C80.1143 218.166 79.0376 217.09 77.7094 217.09H61.1425C59.8144 217.09 58.7377 218.166 58.7377 219.494ZM57.4014 212.814V214.685C57.4014 216.013 58.4781 217.089 59.8062 217.089H79.0452C80.3734 217.089 81.4501 216.013 81.4501 214.685V212.814C81.4501 211.486 80.3734 210.409 79.0452 210.409H59.8062C58.4781 210.409 57.4014 211.486 57.4014 212.814Z" stroke="#B1B1B1" stroke-width="1.67005"/>
<path d="M270.105 538.678V558.051M274.873 558.18C278.212 559.516 274.205 566.196 270.196 558.18M265.428 558.18C262.088 559.516 266.096 566.196 270.105 558.18M280.793 548.966V540.415C280.793 539.087 279.716 538.01 278.388 538.01H261.821C260.493 538.01 259.416 539.087 259.416 540.415V548.966C259.416 550.294 260.493 551.37 261.821 551.37H278.388C279.716 551.37 280.793 550.294 280.793 548.966ZM282.129 555.646V553.775C282.129 552.447 281.052 551.371 279.724 551.371H260.485C259.157 551.371 258.08 552.447 258.08 553.775V555.646C258.08 556.974 259.157 558.051 260.485 558.051H279.724C281.052 558.051 282.129 556.974 282.129 555.646Z" stroke="#B1B1B1" stroke-width="1.67005"/>
<path d="M364.024 184.182V203.555M368.793 203.684C372.132 205.02 368.125 211.7 364.116 203.684M359.348 203.684C356.008 205.02 360.016 211.7 364.024 203.684M374.713 194.47V185.919C374.713 184.591 373.636 183.514 372.308 183.514H355.741C354.413 183.514 353.336 184.591 353.336 185.919V194.47C353.336 195.798 354.413 196.874 355.741 196.874H372.308C373.636 196.874 374.713 195.798 374.713 194.47ZM376.049 201.15V199.279C376.049 197.951 374.972 196.875 373.644 196.875H354.405C353.077 196.875 352 197.951 352 199.279V201.15C352 202.478 353.077 203.555 354.405 203.555H373.644C374.972 203.555 376.049 202.478 376.049 201.15Z" stroke="#B1B1B1" stroke-width="1.67005"/>
<path d="M381.811 386.91L388.891 404.943M393.377 403.32C396.974 403.343 395.685 411.026 389.024 405.03M384.586 406.772C381.965 409.236 388.137 413.99 388.939 405.063M395.519 392.579L392.394 384.62C391.909 383.384 390.513 382.775 389.277 383.261L373.856 389.316C372.62 389.802 372.011 391.197 372.496 392.434L375.622 400.393C376.107 401.629 377.503 402.238 378.739 401.752L394.16 395.697C395.396 395.211 396.005 393.816 395.519 392.579ZM399.205 398.309L398.521 396.568C398.036 395.332 396.64 394.723 395.404 395.209L377.496 402.241C376.26 402.726 375.651 404.122 376.136 405.358L376.82 407.099C377.306 408.335 378.701 408.944 379.938 408.459L397.845 401.427C399.082 400.941 399.69 399.545 399.205 398.309Z" stroke="#B1B1B1" stroke-width="1.67005"/>
<path d="M246.124 699.975L232.425 713.673M235.706 717.136C237.122 720.443 229.565 722.332 232.399 713.83M229.027 710.458C225.721 709.041 223.831 716.599 232.334 713.765M246.407 714.807L252.453 708.761C253.393 707.821 253.393 706.299 252.453 705.36L240.739 693.645C239.8 692.706 238.277 692.706 237.338 693.645L231.292 699.691C230.352 700.63 230.352 702.153 231.292 703.092L243.006 714.807C243.945 715.746 245.468 715.746 246.407 714.807ZM242.628 720.475L243.951 719.153C244.89 718.214 244.89 716.691 243.951 715.752L230.347 702.148C229.408 701.209 227.885 701.209 226.946 702.148L225.623 703.47C224.684 704.41 224.684 705.932 225.623 706.871L239.227 720.475C240.167 721.415 241.689 721.415 242.628 720.475Z" stroke="#B1B1B1" stroke-width="1.67005"/>
<path d="M403.124 646.975L389.425 660.673M392.705 664.136C394.122 667.443 386.564 669.332 389.398 660.83M386.027 657.458C382.721 656.041 380.831 663.599 389.334 660.765M403.407 661.807L409.453 655.761C410.392 654.821 410.392 653.299 409.453 652.36L397.739 640.645C396.799 639.706 395.277 639.706 394.338 640.645L388.291 646.691C387.352 647.63 387.352 649.153 388.291 650.092L400.006 661.807C400.945 662.746 402.468 662.746 403.407 661.807ZM399.628 667.475L400.951 666.153C401.89 665.214 401.89 663.691 400.951 662.752L387.347 649.148C386.408 648.209 384.885 648.209 383.946 649.148L382.623 650.47C381.684 651.41 381.684 652.932 382.623 653.871L396.227 667.475C397.166 668.415 398.689 668.415 399.628 667.475Z" stroke="#B1B1B1" stroke-width="1.67005"/>
<path d="M69.1046 688.782V669.409M73.8728 669.28C77.2123 667.944 73.2047 661.264 69.196 669.28M64.4278 669.28C61.0883 667.944 65.0959 661.264 69.1046 669.28M79.7926 678.494V687.045C79.7926 688.373 78.7159 689.45 77.3877 689.45H60.8208C59.4927 689.45 58.416 688.373 58.416 687.045V678.494C58.416 677.166 59.4927 676.089 60.8208 676.089H77.3877C78.7159 676.089 79.7926 677.166 79.7926 678.494ZM81.1289 671.814V673.684C81.1289 675.013 80.0522 676.089 78.724 676.089H59.4851C58.1569 676.089 57.0802 675.013 57.0802 673.684V671.814C57.0802 670.486 58.1569 669.409 59.4851 669.409H78.724C80.0522 669.409 81.1289 670.486 81.1289 671.814Z" stroke="#B1B1B1" stroke-width="1.67005"/>
<path d="M270.425 79.6782V99.0508M265.657 99.18C262.318 100.516 266.325 107.196 270.334 99.1802M275.102 99.18C278.442 100.516 274.434 107.196 270.425 99.1802M259.737 89.9656V81.415C259.737 80.0868 260.814 79.0101 262.142 79.0101H278.709C280.037 79.0101 281.114 80.0868 281.114 81.415V89.9656C281.114 91.2938 280.037 92.3705 278.709 92.3705H262.142C260.814 92.3705 259.737 91.2938 259.737 89.9656ZM258.401 96.6459V94.7755C258.401 93.4473 259.478 92.3706 260.806 92.3706H280.045C281.373 92.3706 282.45 93.4473 282.45 94.7755V96.6459C282.45 97.9741 281.373 99.0508 280.045 99.0508H260.806C259.478 99.0508 258.401 97.9741 258.401 96.6459Z" stroke="#B1B1B1" stroke-width="1.67005"/>
<path d="M70.393 413.899L80.0793 397.122M76.0145 394.626C73.7905 391.799 80.6013 388.018 80.0648 396.964M84.1941 399.349C87.7542 399.861 87.6237 392.072 80.144 397.01M66.2806 399.646L62.0053 407.051C61.3412 408.201 61.7353 409.672 62.8855 410.336L77.2328 418.62C78.3831 419.284 79.8539 418.89 80.518 417.74L84.7933 410.334C85.4574 409.184 85.0633 407.713 83.913 407.049L69.5657 398.766C68.4155 398.102 66.9447 398.496 66.2806 399.646ZM68.4635 393.193L67.5282 394.813C66.8642 395.963 67.2583 397.434 68.4085 398.098L85.0699 407.717C86.2202 408.381 87.691 407.987 88.355 406.837L89.2903 405.217C89.9544 404.067 89.5603 402.596 88.41 401.932L71.7486 392.312C70.5984 391.648 69.1276 392.042 68.4635 393.193Z" stroke="#B1B1B1" stroke-width="1.67005"/>
<path d="M269.137 354.561L259.451 371.338M263.515 373.834C265.739 376.661 258.929 380.442 259.465 371.496M255.336 369.111C251.776 368.599 251.906 376.388 259.386 371.45M273.249 368.814L277.525 361.409C278.189 360.259 277.795 358.788 276.644 358.124L262.297 349.84C261.147 349.176 259.676 349.57 259.012 350.72L254.737 358.126C254.073 359.276 254.467 360.747 255.617 361.411L269.964 369.694C271.114 370.358 272.585 369.964 273.249 368.814ZM271.066 375.267L272.002 373.647C272.666 372.497 272.272 371.026 271.121 370.362L254.46 360.743C253.31 360.079 251.839 360.473 251.175 361.623L250.24 363.243C249.576 364.393 249.97 365.864 251.12 366.528L267.781 376.148C268.932 376.812 270.402 376.418 271.066 375.267Z" stroke="#B1B1B1" stroke-width="1.67005"/>
<path d="M68.1369 872.899L58.4506 856.122M62.5154 853.626C64.7394 850.799 57.9286 847.018 58.4651 855.964M54.3358 858.349C50.7757 858.861 50.9062 851.072 58.3859 856.01M72.2493 858.646L76.5247 866.051C77.1887 867.201 76.7946 868.672 75.6444 869.336L61.2971 877.62C60.1468 878.284 58.676 877.89 58.0119 876.74L53.7366 869.334C53.0725 868.184 53.4666 866.713 54.6169 866.049L68.9642 857.766C70.1144 857.102 71.5852 857.496 72.2493 858.646ZM70.0664 852.193L71.0017 853.813C71.6657 854.963 71.2716 856.434 70.1214 857.098L53.46 866.717C52.3098 867.381 50.839 866.987 50.1749 865.837L49.2396 864.217C48.5756 863.067 48.9697 861.596 50.1199 860.932L66.7813 851.312C67.9315 850.648 69.4023 851.042 70.0664 852.193Z" stroke="#B1B1B1" stroke-width="1.67005"/>
<path d="M41.0244 153.381V134.008M36.2561 133.879C32.9166 132.543 36.9243 125.862 40.9329 133.879M45.7011 133.879C49.0406 132.543 45.033 125.862 41.0244 133.879M30.3363 143.093V151.644C30.3363 152.972 31.413 154.049 32.7412 154.049H49.3081C50.6362 154.049 51.7129 152.972 51.7129 151.644V143.093C51.7129 141.765 50.6362 140.688 49.3081 140.688H32.7412C31.413 140.688 30.3363 141.765 30.3363 143.093ZM29 136.413V138.283C29 139.612 30.0767 140.688 31.4049 140.688H50.6438C51.972 140.688 53.0487 139.612 53.0487 138.283V136.413C53.0487 135.085 51.972 134.008 50.6438 134.008H31.4049C30.0767 134.008 29 135.085 29 136.413Z" stroke="#B1B1B1" stroke-width="1.67005"/>
<path d="M298.506 615.079V634.452M303.274 634.581C306.614 635.917 302.606 642.598 298.597 634.581M293.829 634.581C290.49 635.917 294.497 642.598 298.506 634.581M309.194 625.367V616.816C309.194 615.488 308.117 614.411 306.789 614.411H290.222C288.894 614.411 287.817 615.488 287.817 616.816V625.367C287.817 626.695 288.894 627.772 290.222 627.772H306.789C308.117 627.772 309.194 626.695 309.194 625.367ZM310.53 632.047V630.177C310.53 628.848 309.454 627.772 308.125 627.772H288.886C287.558 627.772 286.482 628.848 286.482 630.177V632.047C286.482 633.375 287.558 634.452 288.886 634.452H308.125C309.454 634.452 310.53 633.375 310.53 632.047Z" stroke="#B1B1B1" stroke-width="1.67005"/>
<path d="M208.94 558.583V577.956M213.708 578.085C217.047 579.421 213.04 586.101 209.031 578.085M204.263 578.085C200.923 579.421 204.931 586.101 208.94 578.085M219.628 568.871V560.32C219.628 558.992 218.551 557.915 217.223 557.915H200.656C199.328 557.915 198.251 558.992 198.251 560.32V568.871C198.251 570.199 199.328 571.276 200.656 571.276H217.223C218.551 571.276 219.628 570.199 219.628 568.871ZM220.964 575.551V573.681C220.964 572.352 219.887 571.276 218.559 571.276H199.32C197.992 571.276 196.915 572.352 196.915 573.681V575.551C196.915 576.879 197.992 577.956 199.32 577.956H218.559C219.887 577.956 220.964 576.879 220.964 575.551Z" stroke="#B1B1B1" stroke-width="1.67005"/>
<path d="M212.183 774.081L198.485 787.78M201.765 791.243C203.182 794.549 195.624 796.439 198.458 787.936M195.087 784.564C191.78 783.148 189.891 790.705 198.393 787.871M212.467 788.913L218.513 782.867C219.452 781.928 219.452 780.405 218.513 779.466L206.798 767.751C205.859 766.812 204.337 766.812 203.397 767.751L197.351 773.798C196.412 774.737 196.412 776.26 197.351 777.199L209.066 788.913C210.005 789.852 211.528 789.852 212.467 788.913ZM208.688 794.582L210.011 793.259C210.95 792.32 210.95 790.797 210.011 789.858L196.407 776.254C195.467 775.315 193.945 775.315 193.006 776.254L191.683 777.577C190.744 778.516 190.744 780.039 191.683 780.978L205.287 794.582C206.226 795.521 207.749 795.521 208.688 794.582Z" stroke="#B1B1B1" stroke-width="1.67005"/>
<path d="M369.183 721.081L355.485 734.78M358.765 738.243C360.182 741.549 352.624 743.439 355.458 734.936M352.086 731.564C348.78 730.148 346.89 737.705 355.393 734.871M369.466 735.913L375.513 729.867C376.452 728.928 376.452 727.405 375.513 726.466L363.798 714.751C362.859 713.812 361.336 713.812 360.397 714.751L354.351 720.798C353.412 721.737 353.412 723.26 354.351 724.199L366.065 735.913C367.005 736.852 368.527 736.852 369.466 735.913ZM365.688 741.582L367.01 740.259C367.949 739.32 367.949 737.797 367.01 736.858L353.406 723.254C352.467 722.315 350.944 722.315 350.005 723.254L348.683 724.577C347.744 725.516 347.744 727.039 348.683 727.978L362.287 741.582C363.226 742.521 364.749 742.521 365.688 741.582Z" stroke="#B1B1B1" stroke-width="1.67005"/>
<path d="M97.5059 612.381V593.008M102.274 592.879C105.614 591.543 101.606 584.862 97.5974 592.879M92.8292 592.879C89.4897 591.543 93.4973 584.862 97.5059 592.879M108.194 602.093V610.644C108.194 611.972 107.117 613.049 105.789 613.049H89.2222C87.894 613.049 86.8173 611.972 86.8173 610.644V602.093C86.8173 600.765 87.894 599.688 89.2222 599.688H105.789C107.117 599.688 108.194 600.765 108.194 602.093ZM109.53 595.413V597.283C109.53 598.612 108.454 599.688 107.125 599.688H87.8864C86.5583 599.688 85.4816 598.612 85.4816 597.283V595.413C85.4816 594.085 86.5583 593.008 87.8864 593.008H107.125C108.454 593.008 109.53 594.085 109.53 595.413Z" stroke="#B1B1B1" stroke-width="1.67005"/>
<path d="M242.024 156.079V175.452M237.256 175.581C233.917 176.917 237.924 183.598 241.933 175.581M246.701 175.581C250.041 176.917 246.033 183.598 242.024 175.581M231.336 166.367V157.816C231.336 156.488 232.413 155.411 233.741 155.411H250.308C251.636 155.411 252.713 156.488 252.713 157.816V166.367C252.713 167.695 251.636 168.772 250.308 168.772H233.741C232.413 168.772 231.336 167.695 231.336 166.367ZM230 173.047V171.177C230 169.848 231.077 168.772 232.405 168.772H251.644C252.972 168.772 254.049 169.848 254.049 171.177V173.047C254.049 174.375 252.972 175.452 251.644 175.452H232.405C231.077 175.452 230 174.375 230 173.047Z" stroke="#B1B1B1" stroke-width="1.67005"/>
<path d="M216.024 203.668V223.041M211.256 223.17C207.917 224.506 211.924 231.186 215.933 223.17M220.701 223.17C224.041 224.506 220.033 231.186 216.024 223.17M205.336 213.956V205.405C205.336 204.077 206.413 203 207.741 203H224.308C225.636 203 226.713 204.077 226.713 205.405V213.956C226.713 215.284 225.636 216.36 224.308 216.36H207.741C206.413 216.36 205.336 215.284 205.336 213.956ZM204 220.636V218.765C204 217.437 205.077 216.361 206.405 216.361H225.644C226.972 216.361 228.049 217.437 228.049 218.765V220.636C228.049 221.964 226.972 223.041 225.644 223.041H206.405C205.077 223.041 204 221.964 204 220.636Z" stroke="#B1B1B1" stroke-width="1.67005"/>
<path d="M83.9975 333.533L93.6838 316.756M89.619 314.26C87.395 311.433 94.2058 307.652 93.6693 316.598M97.7986 318.983C101.359 319.495 101.228 311.706 93.7485 316.644M79.8851 319.28L75.6097 326.685C74.9457 327.835 75.3398 329.306 76.49 329.97L90.8373 338.254C91.9876 338.918 93.4584 338.524 94.1225 337.374L98.3978 329.968C99.0619 328.818 98.6678 327.347 97.5175 326.683L83.1702 318.4C82.02 317.736 80.5492 318.13 79.8851 319.28ZM82.068 312.827L81.1327 314.447C80.4687 315.597 80.8628 317.068 82.013 317.732L98.6744 327.351C99.8246 328.015 101.295 327.621 101.96 326.471L102.895 324.851C103.559 323.701 103.165 322.23 102.015 321.566L85.3531 311.946C84.2028 311.282 82.7321 311.676 82.068 312.827Z" stroke="#B1B1B1" stroke-width="1.67005"/>
<path d="M255.532 434.927L245.846 451.704M249.911 454.2C252.135 457.027 245.324 460.808 245.861 451.862M241.731 449.477C238.171 448.965 238.302 456.754 245.781 451.816M259.645 449.18L263.92 441.775C264.584 440.624 264.19 439.154 263.04 438.49L248.693 430.206C247.542 429.542 246.072 429.936 245.407 431.086L241.132 438.491C240.468 439.642 240.862 441.113 242.012 441.777L256.36 450.06C257.51 450.724 258.981 450.33 259.645 449.18ZM257.462 455.633L258.397 454.013C259.061 452.863 258.667 451.392 257.517 450.728L240.855 441.109C239.705 440.445 238.234 440.839 237.57 441.989L236.635 443.609C235.971 444.759 236.365 446.23 237.515 446.894L254.177 456.514C255.327 457.178 256.798 456.784 257.462 455.633Z" stroke="#B1B1B1" stroke-width="1.67005"/>
<path d="M284.997 -24.0734L294.683 -7.29622M290.619 -4.80022C288.395 -1.97339 295.205 1.80816 294.669 -7.13843M298.798 -9.52269C302.358 -10.0354 302.228 -2.2462 294.748 -7.18417M280.885 -9.8202L276.609 -17.2253C275.945 -18.3755 276.339 -19.8463 277.49 -20.5104L291.837 -28.7938C292.987 -29.4579 294.458 -29.0638 295.122 -27.9136L299.397 -20.5085C300.061 -19.3583 299.667 -17.8875 298.517 -17.2234L284.17 -8.93996C283.02 -8.27587 281.549 -8.66997 280.885 -9.8202ZM283.068 -3.36672L282.132 -4.98658C281.468 -6.13681 281.862 -7.60761 283.013 -8.27169L299.674 -17.8912C300.824 -18.5553 302.295 -18.1612 302.959 -17.0109L303.894 -15.3911C304.558 -14.2408 304.164 -12.77 303.014 -12.106L286.353 -2.48647C285.202 -1.82239 283.732 -2.21649 283.068 -3.36672Z" stroke="#B1B1B1" stroke-width="1.67005"/>
<path d="M-10.9756 303.381V284.008M-15.7439 283.879C-19.0834 282.543 -15.0757 275.862 -11.0671 283.879M-6.29891 283.879C-2.95942 282.543 -6.96702 275.862 -10.9756 283.879M-21.6637 293.093V301.644C-21.6637 302.972 -20.587 304.049 -19.2588 304.049H-2.69194C-1.36377 304.049 -0.28707 302.972 -0.28707 301.644V293.093C-0.28707 291.765 -1.36377 290.688 -2.69194 290.688H-19.2588C-20.587 290.688 -21.6637 291.765 -21.6637 293.093ZM-23 286.413V288.283C-23 289.612 -21.9233 290.688 -20.5951 290.688H-1.35616C-0.027991 290.688 1.04871 289.612 1.04871 288.283V286.413C1.04871 285.085 -0.0279888 284.008 -1.35616 284.008H-20.5951C-21.9233 284.008 -23 285.085 -23 286.413Z" stroke="#B1B1B1" stroke-width="1.67005"/>
<path d="M350.506 465.079V484.452M355.274 484.581C358.614 485.917 354.606 492.598 350.597 484.581M345.829 484.581C342.49 485.917 346.497 492.598 350.506 484.581M361.194 475.367V466.816C361.194 465.488 360.117 464.411 358.789 464.411H342.222C340.894 464.411 339.817 465.488 339.817 466.816V475.367C339.817 476.695 340.894 477.772 342.222 477.772H358.789C360.117 477.772 361.194 476.695 361.194 475.367ZM362.53 482.047V480.177C362.53 478.848 361.454 477.772 360.125 477.772H340.886C339.558 477.772 338.482 478.848 338.482 480.177V482.047C338.482 483.375 339.558 484.452 340.886 484.452H360.125C361.454 484.452 362.53 483.375 362.53 482.047Z" stroke="#B1B1B1" stroke-width="1.67005"/>
</g>
</g>
<defs>
<clipPath id="clip0_1_12933">
<rect width="402" height="874" rx="32" fill="white"/>
</clipPath>
</defs>
</svg>
