<svg width="402" height="874" viewBox="0 0 402 874" fill="none" xmlns="http://www.w3.org/2000/svg">
<g opacity="0.1">
<g clip-path="url(#clip0_1_6815)">
<path d="M284.997 -24.0734L294.683 -7.29622M290.619 -4.80022C288.394 -1.97339 295.205 1.80816 294.669 -7.13843M298.798 -9.52269C302.358 -10.0354 302.228 -2.2462 294.748 -7.18417M280.885 -9.8202L276.609 -17.2253C275.945 -18.3755 276.339 -19.8463 277.49 -20.5104L291.837 -28.7938C292.987 -29.4579 294.458 -29.0638 295.122 -27.9136L299.397 -20.5085C300.061 -19.3583 299.667 -17.8875 298.517 -17.2234L284.17 -8.93996C283.019 -8.27587 281.549 -8.66997 280.885 -9.8202ZM283.067 -3.36672L282.132 -4.98658C281.468 -6.13681 281.862 -7.60761 283.012 -8.27169L299.674 -17.8912C300.824 -18.5553 302.295 -18.1612 302.959 -17.0109L303.894 -15.3911C304.558 -14.2408 304.164 -12.77 303.014 -12.106L286.353 -2.48647C285.202 -1.82239 283.732 -2.21649 283.067 -3.36672Z" stroke="#B1B1B1" stroke-width="1.67005"/>
<path d="M345.934 821.577L336.372 814.137C335.936 813.798 335.716 813.247 335.8 812.705L337.146 804.061C337.286 803.164 338.188 802.626 339.044 802.93L347.28 805.857C347.8 806.042 348.181 806.503 348.269 807.052L350.178 819.047M348.101 820.285L338.102 803.508M346.03 826.728L354.754 821.529C355.786 820.913 356.11 819.554 355.478 818.493C354.845 817.432 353.496 817.07 352.463 817.686L343.739 822.885C342.707 823.5 342.382 824.859 343.015 825.921C343.647 826.982 344.997 827.343 346.03 826.728ZM349.044 827.535C348.412 826.474 348.736 825.115 349.768 824.5L351.015 823.757C352.047 823.142 353.397 823.503 354.029 824.564C354.662 825.626 354.338 826.985 353.305 827.6L352.059 828.343C351.026 828.958 349.677 828.597 349.044 827.535Z" stroke="#B1B1B1" stroke-width="1.67005"/>
<path d="M345.934 668.577L336.372 661.137C335.936 660.798 335.716 660.247 335.8 659.705L337.146 651.061C337.286 650.164 338.188 649.626 339.044 649.93L347.28 652.857C347.8 653.042 348.181 653.503 348.269 654.052L350.178 666.047M348.101 667.285L338.102 650.508M346.03 673.728L354.754 668.529C355.786 667.913 356.11 666.554 355.478 665.493C354.845 664.432 353.496 664.07 352.463 664.686L343.739 669.885C342.707 670.5 342.382 671.859 343.015 672.921C343.647 673.982 344.997 674.343 346.03 673.728ZM349.044 674.535C348.412 673.474 348.736 672.115 349.768 671.5L351.015 670.757C352.047 670.142 353.397 670.503 354.029 671.564C354.662 672.626 354.338 673.985 353.305 674.6L352.059 675.343C351.026 675.958 349.677 675.597 349.044 674.535Z" stroke="#B1B1B1" stroke-width="1.67005"/>
<path d="M342.934 517.577L333.372 510.137C332.936 509.798 332.716 509.247 332.8 508.705L334.146 500.061C334.286 499.164 335.188 498.626 336.044 498.93L344.28 501.857C344.8 502.042 345.181 502.503 345.269 503.052L347.178 515.047M345.101 516.285L335.102 499.508M343.03 522.728L351.754 517.529C352.786 516.913 353.11 515.554 352.478 514.493C351.845 513.432 350.496 513.07 349.463 513.686L340.739 518.885C339.707 519.5 339.382 520.859 340.015 521.921C340.647 522.982 341.997 523.343 343.03 522.728ZM346.044 523.535C345.412 522.474 345.736 521.115 346.768 520.5L348.015 519.757C349.047 519.142 350.397 519.503 351.029 520.564C351.662 521.626 351.338 522.985 350.305 523.6L349.059 524.343C348.026 524.958 346.677 524.597 346.044 523.535Z" stroke="#B1B1B1" stroke-width="1.67005"/>
<path d="M414.934 517.577L405.372 510.137C404.936 509.798 404.716 509.247 404.8 508.705L406.146 500.061C406.286 499.164 407.188 498.626 408.044 498.93L416.28 501.857C416.8 502.042 417.181 502.503 417.269 503.052L419.178 515.047M417.101 516.285L407.102 499.508M415.03 522.728L423.754 517.529C424.786 516.913 425.11 515.554 424.478 514.493C423.845 513.432 422.496 513.07 421.463 513.686L412.739 518.885C411.707 519.5 411.382 520.859 412.015 521.921C412.647 522.982 413.997 523.343 415.03 522.728ZM418.044 523.535C417.412 522.474 417.736 521.115 418.768 520.5L420.015 519.757C421.047 519.142 422.397 519.503 423.029 520.564C423.662 521.626 423.338 522.985 422.305 523.6L421.059 524.343C420.026 524.958 418.677 524.597 418.044 523.535Z" stroke="#B1B1B1" stroke-width="1.67005"/>
<path d="M414.934 142.577L405.372 135.137C404.936 134.798 404.716 134.247 404.8 133.705L406.146 125.061C406.286 124.164 407.188 123.626 408.044 123.93L416.28 126.857C416.8 127.042 417.181 127.503 417.269 128.052L419.178 140.047M417.101 141.285L407.102 124.508M415.03 147.728L423.754 142.529C424.786 141.913 425.11 140.554 424.478 139.493C423.845 138.432 422.496 138.07 421.463 138.686L412.739 143.885C411.707 144.5 411.382 145.859 412.015 146.921C412.647 147.982 413.997 148.343 415.03 147.728ZM418.044 148.535C417.412 147.474 417.736 146.115 418.768 145.5L420.015 144.757C421.047 144.142 422.397 144.503 423.029 145.564C423.662 146.626 423.338 147.985 422.305 148.6L421.059 149.343C420.026 149.958 418.677 149.597 418.044 148.535Z" stroke="#B1B1B1" stroke-width="1.67005"/>
<path d="M341.338 401.245L331.777 393.805C331.341 393.466 331.121 392.915 331.205 392.374L332.551 383.73C332.691 382.833 333.593 382.295 334.449 382.599L342.685 385.525C343.205 385.71 343.586 386.171 343.674 386.72L345.583 398.716M343.506 399.954L333.507 383.176M341.434 406.396L350.158 401.197C351.191 400.582 351.515 399.223 350.883 398.161C350.25 397.1 348.901 396.739 347.868 397.354L339.144 402.553C338.111 403.169 337.787 404.528 338.42 405.589C339.052 406.65 340.402 407.012 341.434 406.396ZM344.449 407.204C343.816 406.143 344.141 404.783 345.173 404.168L346.42 403.425C347.452 402.81 348.802 403.172 349.434 404.233C350.067 405.294 349.742 406.653 348.71 407.268L347.464 408.011C346.431 408.627 345.081 408.265 344.449 407.204Z" stroke="#B1B1B1" stroke-width="1.67005"/>
<path d="M407.934 370.577L398.372 363.137C397.936 362.798 397.716 362.247 397.8 361.705L399.146 353.061C399.286 352.164 400.188 351.626 401.044 351.93L409.28 354.857C409.8 355.042 410.181 355.503 410.269 356.052L412.178 368.047M410.101 369.285L400.102 352.508M408.03 375.728L416.754 370.529C417.786 369.913 418.11 368.554 417.478 367.493C416.845 366.432 415.496 366.07 414.463 366.686L405.739 371.885C404.707 372.5 404.382 373.859 405.015 374.921C405.647 375.982 406.997 376.343 408.03 375.728ZM411.044 376.535C410.412 375.474 410.736 374.115 411.768 373.5L413.015 372.757C414.047 372.142 415.397 372.503 416.029 373.564C416.662 374.626 416.338 375.985 415.305 376.6L414.059 377.343C413.026 377.958 411.677 377.597 411.044 376.535Z" stroke="#B1B1B1" stroke-width="1.67005"/>
<path d="M407.934 -4.42296L398.372 -11.8633C397.936 -12.2022 397.716 -12.7535 397.8 -13.2947L399.146 -21.9386C399.286 -22.8358 400.188 -23.3736 401.044 -23.0696L409.28 -20.143C409.8 -19.9582 410.181 -19.4972 410.269 -18.9481L412.178 -6.95266M410.101 -5.71472L400.102 -22.4922M408.03 0.728066L416.754 -4.47127C417.786 -5.0866 418.11 -6.44573 417.478 -7.50698C416.845 -8.56823 415.496 -8.92972 414.463 -8.31439L405.739 -3.11505C404.707 -2.49973 404.382 -1.1406 405.015 -0.0793488C405.647 0.981898 406.997 1.34339 408.03 0.728066ZM411.044 1.53548C410.412 0.474233 410.736 -0.884901 411.768 -1.50023L413.015 -2.24299C414.047 -2.85831 415.397 -2.49682 416.029 -1.43557C416.662 -0.374324 416.338 0.984807 415.305 1.60013L414.059 2.34289C413.026 2.95822 411.677 2.59673 411.044 1.53548Z" stroke="#B1B1B1" stroke-width="1.67005"/>
<path d="M335.934 225.577L326.372 218.137C325.936 217.798 325.716 217.247 325.8 216.705L327.146 208.061C327.286 207.164 328.188 206.626 329.044 206.93L337.28 209.857C337.8 210.042 338.181 210.503 338.269 211.052L340.178 223.047M338.101 224.285L328.102 207.508M336.03 230.728L344.754 225.529C345.786 224.913 346.11 223.554 345.478 222.493C344.845 221.432 343.496 221.07 342.463 221.686L333.739 226.885C332.707 227.5 332.382 228.859 333.015 229.921C333.647 230.982 334.997 231.343 336.03 230.728ZM339.044 231.535C338.412 230.474 338.736 229.115 339.768 228.5L341.015 227.757C342.047 227.142 343.397 227.503 344.029 228.564C344.662 229.626 344.338 230.985 343.305 231.6L342.059 232.343C341.026 232.958 339.677 232.597 339.044 231.535Z" stroke="#B1B1B1" stroke-width="1.67005"/>
<path d="M332.934 76.577L323.372 69.1367C322.936 68.7978 322.716 68.2465 322.8 67.7053L324.146 59.0614C324.286 58.1642 325.188 57.6264 326.044 57.9304L334.28 60.857C334.8 61.0418 335.181 61.5028 335.269 62.0519L337.178 74.0473M335.101 75.2853L325.102 58.5078M333.03 81.7281L341.754 76.5287C342.786 75.9134 343.11 74.5543 342.478 73.493C341.845 72.4318 340.496 72.0703 339.463 72.6856L330.739 77.8849C329.707 78.5003 329.382 79.8594 330.015 80.9207C330.647 81.9819 331.997 82.3434 333.03 81.7281ZM336.044 82.5355C335.412 81.4742 335.736 80.1151 336.768 79.4998L338.015 78.757C339.047 78.1417 340.397 78.5032 341.029 79.5644C341.662 80.6257 341.338 81.9848 340.305 82.6001L339.059 83.3429C338.026 83.9582 336.677 83.5967 336.044 82.5355Z" stroke="#B1B1B1" stroke-width="1.67005"/>
<path d="M73.5269 822.251L67.9615 833.013C67.708 833.503 67.2063 833.82 66.6588 833.836L57.9146 834.095C57.007 834.122 56.3131 833.333 56.4555 832.436L57.8259 823.804C57.9124 823.259 58.2959 822.799 58.8197 822.613L70.2633 818.541M71.8604 820.357L57.1954 833.256M78.5734 821.215L71.8657 813.589C71.0719 812.686 69.6764 812.616 68.7487 813.432C67.8211 814.248 67.7127 815.641 68.5065 816.544L75.2142 824.169C76.008 825.072 77.4036 825.142 78.3312 824.326C79.2588 823.51 79.3673 822.117 78.5734 821.215ZM78.8157 818.103C77.888 818.919 76.4925 818.849 75.6987 817.946L74.7404 816.857C73.9466 815.955 74.0551 814.561 74.9827 813.746C75.9103 812.93 77.3058 813 78.0997 813.902L79.0579 814.992C79.8517 815.894 79.7433 817.287 78.8157 818.103Z" stroke="#B1B1B1" stroke-width="1.67005"/>
<path d="M73.5269 669.251L67.9615 680.013C67.708 680.503 67.2063 680.82 66.6588 680.836L57.9146 681.095C57.007 681.122 56.3131 680.333 56.4555 679.436L57.8259 670.804C57.9124 670.259 58.2959 669.799 58.8197 669.613L70.2633 665.541M71.8604 667.357L57.1954 680.256M78.5734 668.215L71.8657 660.589C71.0719 659.686 69.6764 659.616 68.7487 660.432C67.8211 661.248 67.7127 662.641 68.5065 663.544L75.2142 671.169C76.008 672.072 77.4036 672.142 78.3312 671.326C79.2588 670.51 79.3673 669.117 78.5734 668.215ZM78.8157 665.103C77.888 665.919 76.4925 665.849 75.6987 664.946L74.7404 663.857C73.9466 662.955 74.0551 661.561 74.9827 660.746C75.9103 659.93 77.3058 660 78.0997 660.902L79.0579 661.992C79.8517 662.894 79.7433 664.287 78.8157 665.103Z" stroke="#B1B1B1" stroke-width="1.67005"/>
<path d="M70.5269 518.251L64.9615 529.013C64.708 529.503 64.2063 529.82 63.6588 529.836L54.9146 530.095C54.007 530.122 53.3131 529.333 53.4555 528.436L54.8259 519.804C54.9124 519.259 55.2959 518.799 55.8197 518.613L67.2633 514.541M68.8604 516.357L54.1954 529.256M75.5734 517.215L68.8657 509.589C68.0719 508.686 66.6764 508.616 65.7487 509.432C64.8211 510.248 64.7127 511.641 65.5065 512.544L72.2142 520.169C73.008 521.072 74.4036 521.142 75.3312 520.326C76.2588 519.51 76.3673 518.117 75.5734 517.215ZM75.8157 514.103C74.888 514.919 73.4925 514.849 72.6987 513.946L71.7404 512.857C70.9466 511.955 71.0551 510.561 71.9827 509.746C72.9103 508.93 74.3058 509 75.0997 509.902L76.0579 510.992C76.8517 511.894 76.7433 513.287 75.8157 514.103Z" stroke="#B1B1B1" stroke-width="1.67005"/>
<path d="M12.5269 378.251L6.96153 389.013C6.70799 389.503 6.20633 389.82 5.65882 389.836L-3.08544 390.095C-3.99302 390.122 -4.68686 389.333 -4.5445 388.436L-3.17411 379.804C-3.08759 379.259 -2.70414 378.799 -2.18034 378.613L9.26329 374.541M10.8604 376.357L-3.80457 389.256M17.5734 377.215L10.8657 369.589C10.0719 368.686 8.67637 368.616 7.74875 369.432C6.82113 370.248 6.71267 371.641 7.50651 372.544L14.2142 380.169C15.008 381.072 16.4036 381.142 17.3312 380.326C18.2588 379.51 18.3673 378.117 17.5734 377.215ZM17.8157 374.103C16.888 374.919 15.4925 374.849 14.6987 373.946L13.7404 372.857C12.9466 371.955 13.0551 370.561 13.9827 369.746C14.9103 368.93 16.3058 369 17.0997 369.902L18.0579 370.992C18.8517 371.894 18.7433 373.287 17.8157 374.103Z" stroke="#B1B1B1" stroke-width="1.67005"/>
<path d="M70.5269 203.251L64.9615 214.013C64.708 214.503 64.2063 214.82 63.6588 214.836L54.9146 215.095C54.007 215.122 53.3131 214.333 53.4555 213.436L54.8259 204.804C54.9124 204.259 55.2959 203.799 55.8197 203.613L67.2633 199.541M68.8604 201.357L54.1954 214.256M75.5734 202.215L68.8657 194.589C68.0719 193.686 66.6764 193.616 65.7487 194.432C64.8211 195.248 64.7127 196.641 65.5065 197.544L72.2142 205.169C73.008 206.072 74.4036 206.142 75.3312 205.326C76.2588 204.51 76.3673 203.117 75.5734 202.215ZM75.8157 199.103C74.888 199.919 73.4925 199.849 72.6987 198.946L71.7404 197.857C70.9466 196.955 71.0551 195.561 71.9827 194.746C72.9103 193.93 74.3058 194 75.0997 194.902L76.0579 195.992C76.8517 196.894 76.7433 198.287 75.8157 199.103Z" stroke="#B1B1B1" stroke-width="1.67005"/>
<path d="M60.5269 77.2511L54.9615 88.0128C54.708 88.5031 54.2063 88.8203 53.6588 88.8364L44.9146 89.0948C44.007 89.1216 43.3131 88.3328 43.4555 87.436L44.8259 78.8038C44.9124 78.2588 45.2959 77.7993 45.8197 77.6129L57.2633 73.5409M58.8604 75.3566L44.1954 88.2562M65.5734 76.2145L58.8657 68.5889C58.0719 67.6864 56.6764 67.6163 55.7487 68.4323C54.8211 69.2482 54.7127 70.6413 55.5065 71.5438L62.2142 79.1694C63.008 80.0718 64.4036 80.142 65.3312 79.326C66.2588 78.51 66.3673 77.117 65.5734 76.2145ZM65.8157 73.103C64.888 73.919 63.4925 73.8489 62.6987 72.9464L61.7404 71.857C60.9466 70.9546 61.0551 69.5615 61.9827 68.7455C62.9103 67.9296 64.3058 67.9997 65.0997 68.9022L66.0579 69.9915C66.8517 70.894 66.7433 72.2871 65.8157 73.103Z" stroke="#B1B1B1" stroke-width="1.67005"/>
<path d="M172.527 819.251L166.962 830.013C166.708 830.503 166.206 830.82 165.659 830.836L156.915 831.095C156.007 831.122 155.313 830.333 155.455 829.436L156.826 820.804C156.912 820.259 157.296 819.799 157.82 819.613L169.263 815.541M170.86 817.357L156.195 830.256M177.573 818.215L170.866 810.589C170.072 809.686 168.676 809.616 167.749 810.432C166.821 811.248 166.713 812.641 167.507 813.544L174.214 821.169C175.008 822.072 176.404 822.142 177.331 821.326C178.259 820.51 178.367 819.117 177.573 818.215ZM177.816 815.103C176.888 815.919 175.493 815.849 174.699 814.946L173.74 813.857C172.947 812.955 173.055 811.561 173.983 810.746C174.91 809.93 176.306 810 177.1 810.902L178.058 811.992C178.852 812.894 178.743 814.287 177.816 815.103Z" stroke="#B1B1B1" stroke-width="1.67005"/>
<path d="M172.527 666.251L166.962 677.013C166.708 677.503 166.206 677.82 165.659 677.836L156.915 678.095C156.007 678.122 155.313 677.333 155.455 676.436L156.826 667.804C156.912 667.259 157.296 666.799 157.82 666.613L169.263 662.541M170.86 664.357L156.195 677.256M177.573 665.215L170.866 657.589C170.072 656.686 168.676 656.616 167.749 657.432C166.821 658.248 166.713 659.641 167.507 660.544L174.214 668.169C175.008 669.072 176.404 669.142 177.331 668.326C178.259 667.51 178.367 666.117 177.573 665.215ZM177.816 662.103C176.888 662.919 175.493 662.849 174.699 661.946L173.74 660.857C172.947 659.955 173.055 658.561 173.983 657.746C174.91 656.93 176.306 657 177.1 657.902L178.058 658.992C178.852 659.894 178.743 661.287 177.816 662.103Z" stroke="#B1B1B1" stroke-width="1.67005"/>
<path d="M169.527 515.251L163.962 526.013C163.708 526.503 163.206 526.82 162.659 526.836L153.915 527.095C153.007 527.122 152.313 526.333 152.455 525.436L153.826 516.804C153.912 516.259 154.296 515.799 154.82 515.613L166.263 511.541M167.86 513.357L153.195 526.256M174.573 514.215L167.866 506.589C167.072 505.686 165.676 505.616 164.749 506.432C163.821 507.248 163.713 508.641 164.507 509.544L171.214 517.169C172.008 518.072 173.404 518.142 174.331 517.326C175.259 516.51 175.367 515.117 174.573 514.215ZM174.816 511.103C173.888 511.919 172.493 511.849 171.699 510.946L170.74 509.857C169.947 508.955 170.055 507.561 170.983 506.746C171.91 505.93 173.306 506 174.1 506.902L175.058 507.992C175.852 508.894 175.743 510.287 174.816 511.103Z" stroke="#B1B1B1" stroke-width="1.67005"/>
<path d="M162.527 368.251L156.962 379.013C156.708 379.503 156.206 379.82 155.659 379.836L146.915 380.095C146.007 380.122 145.313 379.333 145.455 378.436L146.826 369.804C146.912 369.259 147.296 368.799 147.82 368.613L159.263 364.541M160.86 366.357L146.195 379.256M167.573 367.215L160.866 359.589C160.072 358.686 158.676 358.616 157.749 359.432C156.821 360.248 156.713 361.641 157.507 362.544L164.214 370.169C165.008 371.072 166.404 371.142 167.331 370.326C168.259 369.51 168.367 368.117 167.573 367.215ZM167.816 364.103C166.888 364.919 165.493 364.849 164.699 363.946L163.74 362.857C162.947 361.955 163.055 360.561 163.983 359.746C164.91 358.93 166.306 359 167.1 359.902L168.058 360.992C168.852 361.894 168.743 363.287 167.816 364.103Z" stroke="#B1B1B1" stroke-width="1.67005"/>
<path d="M162.527 223.251L156.962 234.013C156.708 234.503 156.206 234.82 155.659 234.836L146.915 235.095C146.007 235.122 145.313 234.333 145.455 233.436L146.826 224.804C146.912 224.259 147.296 223.799 147.82 223.613L159.263 219.541M160.86 221.357L146.195 234.256M167.573 222.215L160.866 214.589C160.072 213.686 158.676 213.616 157.749 214.432C156.821 215.248 156.713 216.641 157.507 217.544L164.214 225.169C165.008 226.072 166.404 226.142 167.331 225.326C168.259 224.51 168.367 223.117 167.573 222.215ZM167.816 219.103C166.888 219.919 165.493 219.849 164.699 218.946L163.74 217.857C162.947 216.955 163.055 215.561 163.983 214.746C164.91 213.93 166.306 214 167.1 214.902L168.058 215.992C168.852 216.894 168.743 218.287 167.816 219.103Z" stroke="#B1B1B1" stroke-width="1.67005"/>
<path d="M159.527 74.2511L153.962 85.0128C153.708 85.5031 153.206 85.8203 152.659 85.8364L143.915 86.0948C143.007 86.1216 142.313 85.3328 142.455 84.436L143.826 75.8038C143.912 75.2588 144.296 74.7993 144.82 74.6129L156.263 70.5409M157.86 72.3566L143.195 85.2562M164.573 73.2145L157.866 65.5889C157.072 64.6864 155.676 64.6163 154.749 65.4323C153.821 66.2482 153.713 67.6413 154.507 68.5438L161.214 76.1694C162.008 77.0718 163.404 77.142 164.331 76.326C165.259 75.51 165.367 74.117 164.573 73.2145ZM164.816 70.103C163.888 70.919 162.493 70.8489 161.699 69.9464L160.74 68.857C159.947 67.9546 160.055 66.5615 160.983 65.7455C161.91 64.9296 163.306 64.9997 164.1 65.9022L165.058 66.9915C165.852 67.894 165.743 69.2871 164.816 70.103Z" stroke="#B1B1B1" stroke-width="1.67005"/>
<path d="M274.527 819.251L268.962 830.013C268.708 830.503 268.206 830.82 267.659 830.836L258.915 831.095C258.007 831.122 257.313 830.333 257.455 829.436L258.826 820.804C258.912 820.259 259.296 819.799 259.82 819.613L271.263 815.541M272.86 817.357L258.195 830.256M279.573 818.215L272.866 810.589C272.072 809.686 270.676 809.616 269.749 810.432C268.821 811.248 268.713 812.641 269.507 813.544L276.214 821.169C277.008 822.072 278.404 822.142 279.331 821.326C280.259 820.51 280.367 819.117 279.573 818.215ZM279.816 815.103C278.888 815.919 277.493 815.849 276.699 814.946L275.74 813.857C274.947 812.955 275.055 811.561 275.983 810.746C276.91 809.93 278.306 810 279.1 810.902L280.058 811.992C280.852 812.894 280.743 814.287 279.816 815.103Z" stroke="#B1B1B1" stroke-width="1.67005"/>
<path d="M274.527 666.251L268.962 677.013C268.708 677.503 268.206 677.82 267.659 677.836L258.915 678.095C258.007 678.122 257.313 677.333 257.455 676.436L258.826 667.804C258.912 667.259 259.296 666.799 259.82 666.613L271.263 662.541M272.86 664.357L258.195 677.256M279.573 665.215L272.866 657.589C272.072 656.686 270.676 656.616 269.749 657.432C268.821 658.248 268.713 659.641 269.507 660.544L276.214 668.169C277.008 669.072 278.404 669.142 279.331 668.326C280.259 667.51 280.367 666.117 279.573 665.215ZM279.816 662.103C278.888 662.919 277.493 662.849 276.699 661.946L275.74 660.857C274.947 659.955 275.055 658.561 275.983 657.746C276.91 656.93 278.306 657 279.1 657.902L280.058 658.992C280.852 659.894 280.743 661.287 279.816 662.103Z" stroke="#B1B1B1" stroke-width="1.67005"/>
<path d="M271.527 515.251L265.962 526.013C265.708 526.503 265.206 526.82 264.659 526.836L255.915 527.095C255.007 527.122 254.313 526.333 254.455 525.436L255.826 516.804C255.912 516.259 256.296 515.799 256.82 515.613L268.263 511.541M269.86 513.357L255.195 526.256M276.573 514.215L269.866 506.589C269.072 505.686 267.676 505.616 266.749 506.432C265.821 507.248 265.713 508.641 266.507 509.544L273.214 517.169C274.008 518.072 275.404 518.142 276.331 517.326C277.259 516.51 277.367 515.117 276.573 514.215ZM276.816 511.103C275.888 511.919 274.493 511.849 273.699 510.946L272.74 509.857C271.947 508.955 272.055 507.561 272.983 506.746C273.91 505.93 275.306 506 276.1 506.902L277.058 507.992C277.852 508.894 277.743 510.287 276.816 511.103Z" stroke="#B1B1B1" stroke-width="1.67005"/>
<path d="M264.527 368.251L258.962 379.013C258.708 379.503 258.206 379.82 257.659 379.836L248.915 380.095C248.007 380.122 247.313 379.333 247.455 378.436L248.826 369.804C248.912 369.259 249.296 368.799 249.82 368.613L261.263 364.541M262.86 366.357L248.195 379.256M269.573 367.215L262.866 359.589C262.072 358.686 260.676 358.616 259.749 359.432C258.821 360.248 258.713 361.641 259.507 362.544L266.214 370.169C267.008 371.072 268.404 371.142 269.331 370.326C270.259 369.51 270.367 368.117 269.573 367.215ZM269.816 364.103C268.888 364.919 267.493 364.849 266.699 363.946L265.74 362.857C264.947 361.955 265.055 360.561 265.983 359.746C266.91 358.93 268.306 359 269.1 359.902L270.058 360.992C270.852 361.894 270.743 363.287 269.816 364.103Z" stroke="#B1B1B1" stroke-width="1.67005"/>
<path d="M264.527 223.251L258.962 234.013C258.708 234.503 258.206 234.82 257.659 234.836L248.915 235.095C248.007 235.122 247.313 234.333 247.455 233.436L248.826 224.804C248.912 224.259 249.296 223.799 249.82 223.613L261.263 219.541M262.86 221.357L248.195 234.256M269.573 222.215L262.866 214.589C262.072 213.686 260.676 213.616 259.749 214.432C258.821 215.248 258.713 216.641 259.507 217.544L266.214 225.169C267.008 226.072 268.404 226.142 269.331 225.326C270.259 224.51 270.367 223.117 269.573 222.215ZM269.816 219.103C268.888 219.919 267.493 219.849 266.699 218.946L265.74 217.857C264.947 216.955 265.055 215.561 265.983 214.746C266.91 213.93 268.306 214 269.1 214.902L270.058 215.992C270.852 216.894 270.743 218.287 269.816 219.103Z" stroke="#B1B1B1" stroke-width="1.67005"/>
<path d="M249.969 78.1772L254.835 67.0818C255.057 66.5764 255.537 66.2278 256.082 66.1767L264.792 65.36C265.696 65.2753 266.439 66.0181 266.354 66.9221L265.538 75.6243C265.487 76.1737 265.134 76.6568 264.623 76.8762L253.463 81.6712M251.753 79.9614L265.563 66.1509M244.999 79.5342L252.18 86.7156C253.03 87.5655 254.427 87.5463 255.301 86.6727C256.174 85.7991 256.193 84.402 255.344 83.5521L248.162 76.3707C247.312 75.5208 245.915 75.54 245.042 76.4136C244.168 77.2872 244.149 78.6843 244.999 79.5342ZM244.956 82.6548C245.829 81.7813 247.227 81.7621 248.076 82.6119L249.102 83.6379C249.952 84.4877 249.933 85.8849 249.059 86.7585C248.186 87.632 246.789 87.6512 245.939 86.8014L244.913 85.7754C244.063 84.9256 244.082 83.5284 244.956 82.6548Z" stroke="#B1B1B1" stroke-width="1.67005"/>
<path d="M48.6252 734.449L45.403 722.77C45.2562 722.238 45.4091 721.664 45.8001 721.281L52.0438 715.153C52.6918 714.517 53.7368 714.625 54.2412 715.38L59.0969 722.648C59.4035 723.106 59.434 723.704 59.176 724.197L53.5404 734.957M51.1351 734.708L53.1411 715.28M45.6244 738.637L55.7267 739.68C56.9223 739.803 57.9943 738.907 58.1212 737.678C58.2481 736.45 57.3818 735.353 56.1862 735.23L46.084 734.187C44.8884 734.063 43.8163 734.959 43.6894 736.188C43.5625 737.417 44.4289 738.513 45.6244 738.637ZM47.5595 741.085C47.6863 739.857 48.7584 738.96 49.954 739.084L51.3972 739.233C52.5927 739.356 53.4591 740.453 53.3322 741.682C53.2053 742.91 52.1332 743.807 50.9377 743.683L49.4945 743.534C48.2989 743.411 47.4326 742.314 47.5595 741.085Z" stroke="#B1B1B1" stroke-width="1.67005"/>
<path d="M48.6252 581.449L45.403 569.77C45.2562 569.238 45.4091 568.664 45.8001 568.281L52.0438 562.153C52.6918 561.517 53.7368 561.625 54.2412 562.38L59.0969 569.648C59.4035 570.106 59.434 570.704 59.176 571.197L53.5404 581.957M51.1351 581.708L53.1411 562.28M45.6244 585.637L55.7267 586.68C56.9223 586.803 57.9943 585.907 58.1212 584.678C58.2481 583.45 57.3818 582.353 56.1862 582.23L46.084 581.187C44.8884 581.063 43.8163 581.959 43.6894 583.188C43.5625 584.417 44.4289 585.513 45.6244 585.637ZM47.5595 588.085C47.6863 586.857 48.7584 585.96 49.954 586.084L51.3972 586.233C52.5927 586.356 53.4591 587.453 53.3322 588.682C53.2053 589.91 52.1332 590.807 50.9377 590.683L49.4945 590.534C48.2989 590.411 47.4326 589.314 47.5595 588.085Z" stroke="#B1B1B1" stroke-width="1.67005"/>
<path d="M21.6252 519.449L18.403 507.77C18.2562 507.238 18.4091 506.664 18.8001 506.281L25.0438 500.153C25.6918 499.517 26.7368 499.625 27.2412 500.38L32.0969 507.648C32.4035 508.106 32.434 508.704 32.176 509.197L26.5404 519.957M24.1351 519.708L26.1411 500.28M18.6244 523.637L28.7267 524.68C29.9223 524.803 30.9943 523.907 31.1212 522.678C31.2481 521.45 30.3818 520.353 29.1862 520.23L19.084 519.187C17.8884 519.063 16.8163 519.959 16.6894 521.188C16.5625 522.417 17.4289 523.513 18.6244 523.637ZM20.5595 526.085C20.6863 524.857 21.7584 523.96 22.954 524.084L24.3972 524.233C25.5927 524.356 26.4591 525.453 26.3322 526.682C26.2053 527.91 25.1332 528.807 23.9377 528.683L22.4945 528.534C21.2989 528.411 20.4326 527.314 20.5595 526.085Z" stroke="#B1B1B1" stroke-width="1.67005"/>
<path d="M38.6252 283.449L35.403 271.77C35.2562 271.238 35.4091 270.664 35.8001 270.281L42.0438 264.153C42.6918 263.517 43.7368 263.625 44.2412 264.38L49.0969 271.648C49.4035 272.106 49.434 272.704 49.176 273.197L43.5404 283.957M41.1351 283.708L43.1411 264.28M35.6244 287.637L45.7267 288.68C46.9223 288.803 47.9943 287.907 48.1212 286.678C48.2481 285.45 47.3818 284.353 46.1862 284.23L36.084 283.187C34.8884 283.063 33.8163 283.959 33.6894 285.188C33.5625 286.417 34.4289 287.513 35.6244 287.637ZM37.5595 290.085C37.6863 288.857 38.7584 287.96 39.954 288.084L41.3972 288.233C42.5927 288.356 43.4591 289.453 43.3322 290.682C43.2053 291.91 42.1332 292.807 40.9377 292.683L39.4945 292.534C38.2989 292.411 37.4326 291.314 37.5595 290.085Z" stroke="#B1B1B1" stroke-width="1.67005"/>
<path d="M38.6252 138.449L35.403 126.77C35.2562 126.238 35.4091 125.664 35.8001 125.281L42.0438 119.153C42.6918 118.517 43.7368 118.625 44.2412 119.38L49.0969 126.648C49.4035 127.106 49.434 127.704 49.176 128.197L43.5404 138.957M41.1351 138.708L43.1411 119.28M35.6244 142.637L45.7267 143.68C46.9223 143.803 47.9943 142.907 48.1212 141.678C48.2481 140.45 47.3818 139.353 46.1862 139.23L36.084 138.187C34.8884 138.063 33.8163 138.959 33.6894 140.188C33.5625 141.417 34.4289 142.513 35.6244 142.637ZM37.5595 145.085C37.6863 143.857 38.7584 142.96 39.954 143.084L41.3972 143.233C42.5927 143.356 43.4591 144.453 43.3322 145.682C43.2053 146.91 42.1332 147.807 40.9377 147.683L39.4945 147.534C38.2989 147.411 37.4326 146.314 37.5595 145.085Z" stroke="#B1B1B1" stroke-width="1.67005"/>
<path d="M35.6252 -10.5509L32.403 -22.2302C32.2562 -22.7623 32.4091 -23.3357 32.8001 -23.7194L39.0438 -29.8468C39.6918 -30.4827 40.7368 -30.3748 41.2412 -29.6199L46.0969 -22.3524C46.4035 -21.8936 46.434 -21.2959 46.176 -20.8034L40.5404 -10.0434M38.1351 -10.2918L40.1411 -29.7195M32.6244 -6.36313L42.7267 -5.32003C43.9223 -5.19658 44.9943 -6.09272 45.1212 -7.32161C45.2481 -8.5505 44.3818 -9.64679 43.1862 -9.77023L33.084 -10.8133C31.8884 -10.9368 30.8163 -10.0406 30.6894 -8.81176C30.5625 -7.58287 31.4289 -6.48658 32.6244 -6.36313ZM34.5595 -3.91451C34.6863 -5.1434 35.7584 -6.03954 36.954 -5.91609L38.3972 -5.76708C39.5927 -5.64363 40.4591 -4.54734 40.3322 -3.31845C40.2053 -2.08956 39.1332 -1.19342 37.9377 -1.31687L36.4945 -1.46588C35.2989 -1.58933 34.4326 -2.68562 34.5595 -3.91451Z" stroke="#B1B1B1" stroke-width="1.67005"/>
<path d="M147.625 731.449L144.403 719.77C144.256 719.238 144.409 718.664 144.8 718.281L151.044 712.153C151.692 711.517 152.737 711.625 153.241 712.38L158.097 719.648C158.403 720.106 158.434 720.704 158.176 721.197L152.54 731.957M150.135 731.708L152.141 712.28M144.624 735.637L154.727 736.68C155.922 736.803 156.994 735.907 157.121 734.678C157.248 733.45 156.382 732.353 155.186 732.23L145.084 731.187C143.888 731.063 142.816 731.959 142.689 733.188C142.563 734.417 143.429 735.513 144.624 735.637ZM146.559 738.085C146.686 736.857 147.758 735.96 148.954 736.084L150.397 736.233C151.593 736.356 152.459 737.453 152.332 738.682C152.205 739.91 151.133 740.807 149.938 740.683L148.494 740.534C147.299 740.411 146.433 739.314 146.559 738.085Z" stroke="#B1B1B1" stroke-width="1.67005"/>
<path d="M147.625 578.449L144.403 566.77C144.256 566.238 144.409 565.664 144.8 565.281L151.044 559.153C151.692 558.517 152.737 558.625 153.241 559.38L158.097 566.648C158.403 567.106 158.434 567.704 158.176 568.197L152.54 578.957M150.135 578.708L152.141 559.28M144.624 582.637L154.727 583.68C155.922 583.803 156.994 582.907 157.121 581.678C157.248 580.45 156.382 579.353 155.186 579.23L145.084 578.187C143.888 578.063 142.816 578.959 142.689 580.188C142.563 581.417 143.429 582.513 144.624 582.637ZM146.559 585.085C146.686 583.857 147.758 582.96 148.954 583.084L150.397 583.233C151.593 583.356 152.459 584.453 152.332 585.682C152.205 586.91 151.133 587.807 149.938 587.683L148.494 587.534C147.299 587.411 146.433 586.314 146.559 585.085Z" stroke="#B1B1B1" stroke-width="1.67005"/>
<path d="M70.6252 387.449L67.403 375.77C67.2562 375.238 67.4091 374.664 67.8001 374.281L74.0438 368.153C74.6918 367.517 75.7368 367.625 76.2412 368.38L81.0969 375.648C81.4035 376.106 81.434 376.704 81.176 377.197L75.5404 387.957M73.1351 387.708L75.1411 368.28M67.6244 391.637L77.7267 392.68C78.9223 392.803 79.9943 391.907 80.1212 390.678C80.2481 389.45 79.3818 388.353 78.1862 388.23L68.084 387.187C66.8884 387.063 65.8163 387.959 65.6894 389.188C65.5625 390.417 66.4289 391.513 67.6244 391.637ZM69.5595 394.085C69.6863 392.857 70.7584 391.96 71.954 392.084L73.3972 392.233C74.5927 392.356 75.4591 393.453 75.3322 394.682C75.2053 395.91 74.1332 396.807 72.9377 396.683L71.4945 396.534C70.2989 396.411 69.4326 395.314 69.5595 394.085Z" stroke="#B1B1B1" stroke-width="1.67005"/>
<path d="M137.625 280.449L134.403 268.77C134.256 268.238 134.409 267.664 134.8 267.281L141.044 261.153C141.692 260.517 142.737 260.625 143.241 261.38L148.097 268.648C148.403 269.106 148.434 269.704 148.176 270.197L142.54 280.957M140.135 280.708L142.141 261.28M134.624 284.637L144.727 285.68C145.922 285.803 146.994 284.907 147.121 283.678C147.248 282.45 146.382 281.353 145.186 281.23L135.084 280.187C133.888 280.063 132.816 280.959 132.689 282.188C132.563 283.417 133.429 284.513 134.624 284.637ZM136.559 287.085C136.686 285.857 137.758 284.96 138.954 285.084L140.397 285.233C141.593 285.356 142.459 286.453 142.332 287.682C142.205 288.91 141.133 289.807 139.938 289.683L138.494 289.534C137.299 289.411 136.433 288.314 136.559 287.085Z" stroke="#B1B1B1" stroke-width="1.67005"/>
<path d="M13.6252 193.449L10.403 181.77C10.2562 181.238 10.4091 180.664 10.8001 180.281L17.0438 174.153C17.6918 173.517 18.7368 173.625 19.2412 174.38L24.0969 181.648C24.4035 182.106 24.434 182.704 24.176 183.197L18.5404 193.957M16.1351 193.708L18.1411 174.28M10.6244 197.637L20.7267 198.68C21.9223 198.803 22.9943 197.907 23.1212 196.678C23.2481 195.45 22.3818 194.353 21.1862 194.23L11.084 193.187C9.88838 193.063 8.81632 193.959 8.68943 195.188C8.56254 196.417 9.42888 197.513 10.6244 197.637ZM12.5595 200.085C12.6863 198.857 13.7584 197.96 14.954 198.084L16.3972 198.233C17.5927 198.356 18.4591 199.453 18.3322 200.682C18.2053 201.91 17.1332 202.807 15.9377 202.683L14.4945 202.534C13.2989 202.411 12.4326 201.314 12.5595 200.085Z" stroke="#B1B1B1" stroke-width="1.67005"/>
<path d="M249.625 731.449L246.403 719.77C246.256 719.238 246.409 718.664 246.8 718.281L253.044 712.153C253.692 711.517 254.737 711.625 255.241 712.38L260.097 719.648C260.403 720.106 260.434 720.704 260.176 721.197L254.54 731.957M252.135 731.708L254.141 712.28M246.624 735.637L256.727 736.68C257.922 736.803 258.994 735.907 259.121 734.678C259.248 733.45 258.382 732.353 257.186 732.23L247.084 731.187C245.888 731.063 244.816 731.959 244.689 733.188C244.563 734.417 245.429 735.513 246.624 735.637ZM248.559 738.085C248.686 736.857 249.758 735.96 250.954 736.084L252.397 736.233C253.593 736.356 254.459 737.453 254.332 738.682C254.205 739.91 253.133 740.807 251.938 740.683L250.494 740.534C249.299 740.411 248.433 739.314 248.559 738.085Z" stroke="#B1B1B1" stroke-width="1.67005"/>
<path d="M249.625 578.449L246.403 566.77C246.256 566.238 246.409 565.664 246.8 565.281L253.044 559.153C253.692 558.517 254.737 558.625 255.241 559.38L260.097 566.648C260.403 567.106 260.434 567.704 260.176 568.197L254.54 578.957M252.135 578.708L254.141 559.28M246.624 582.637L256.727 583.68C257.922 583.803 258.994 582.907 259.121 581.678C259.248 580.45 258.382 579.353 257.186 579.23L247.084 578.187C245.888 578.063 244.816 578.959 244.689 580.188C244.563 581.417 245.429 582.513 246.624 582.637ZM248.559 585.085C248.686 583.857 249.758 582.96 250.954 583.084L252.397 583.233C253.593 583.356 254.459 584.453 254.332 585.682C254.205 586.91 253.133 587.807 251.938 587.683L250.494 587.534C249.299 587.411 248.433 586.314 248.559 585.085Z" stroke="#B1B1B1" stroke-width="1.67005"/>
<path d="M193.625 427.449L190.403 415.77C190.256 415.238 190.409 414.664 190.8 414.281L197.044 408.153C197.692 407.517 198.737 407.625 199.241 408.38L204.097 415.648C204.403 416.106 204.434 416.704 204.176 417.197L198.54 427.957M196.135 427.708L198.141 408.28M190.624 431.637L200.727 432.68C201.922 432.803 202.994 431.907 203.121 430.678C203.248 429.45 202.382 428.353 201.186 428.23L191.084 427.187C189.888 427.063 188.816 427.959 188.689 429.188C188.563 430.417 189.429 431.513 190.624 431.637ZM192.559 434.085C192.686 432.857 193.758 431.96 194.954 432.084L196.397 432.233C197.593 432.356 198.459 433.453 198.332 434.682C198.205 435.91 197.133 436.807 195.938 436.683L194.494 436.534C193.299 436.411 192.433 435.314 192.559 434.085Z" stroke="#B1B1B1" stroke-width="1.67005"/>
<path d="M239.625 280.449L236.403 268.77C236.256 268.238 236.409 267.664 236.8 267.281L243.044 261.153C243.692 260.517 244.737 260.625 245.241 261.38L250.097 268.648C250.403 269.106 250.434 269.704 250.176 270.197L244.54 280.957M242.135 280.708L244.141 261.28M236.624 284.637L246.727 285.68C247.922 285.803 248.994 284.907 249.121 283.678C249.248 282.45 248.382 281.353 247.186 281.23L237.084 280.187C235.888 280.063 234.816 280.959 234.689 282.188C234.563 283.417 235.429 284.513 236.624 284.637ZM238.559 287.085C238.686 285.857 239.758 284.96 240.954 285.084L242.397 285.233C243.593 285.356 244.459 286.453 244.332 287.682C244.205 288.91 243.133 289.807 241.938 289.683L240.494 289.534C239.299 289.411 238.433 288.314 238.559 287.085Z" stroke="#B1B1B1" stroke-width="1.67005"/>
<path d="M383.625 138.449L380.403 126.77C380.256 126.238 380.409 125.664 380.8 125.281L387.044 119.153C387.692 118.517 388.737 118.625 389.241 119.38L394.097 126.648C394.403 127.106 394.434 127.704 394.176 128.197L388.54 138.957M386.135 138.708L388.141 119.28M380.624 142.637L390.727 143.68C391.922 143.803 392.994 142.907 393.121 141.678C393.248 140.45 392.382 139.353 391.186 139.23L381.084 138.187C379.888 138.063 378.816 138.959 378.689 140.188C378.563 141.417 379.429 142.513 380.624 142.637ZM382.559 145.085C382.686 143.857 383.758 142.96 384.954 143.084L386.397 143.233C387.593 143.356 388.459 144.453 388.332 145.682C388.205 146.91 387.133 147.807 385.938 147.683L384.494 147.534C383.299 147.411 382.433 146.314 382.559 145.085Z" stroke="#B1B1B1" stroke-width="1.67005"/>
<path d="M101.609 759.512L109.577 750.386C109.94 749.97 110.503 749.782 111.038 749.896L119.593 751.728C120.48 751.918 120.966 752.85 120.615 753.687L117.228 761.744C117.014 762.253 116.532 762.608 115.979 762.664L103.895 763.893M102.776 761.749L120.091 752.714M96.4605 759.317L101.159 768.321C101.715 769.387 103.054 769.787 104.149 769.216C105.244 768.644 105.681 767.317 105.125 766.251L100.427 757.248C99.8708 756.182 98.5321 755.782 97.4369 756.353C96.3416 756.925 95.9045 758.252 96.4605 759.317ZM95.4842 762.282C96.5795 761.71 97.9181 762.111 98.4742 763.176L99.1454 764.462C99.7014 765.528 99.2643 766.855 98.169 767.427C97.0738 767.998 95.7351 767.598 95.1791 766.532L94.5079 765.246C93.9518 764.18 94.3889 762.853 95.4842 762.282Z" stroke="#B1B1B1" stroke-width="1.67005"/>
<path d="M104.625 611.449L101.403 599.77C101.256 599.238 101.409 598.664 101.8 598.281L108.044 592.153C108.692 591.517 109.737 591.625 110.241 592.38L115.097 599.648C115.403 600.106 115.434 600.704 115.176 601.197L109.54 611.957M107.135 611.708L109.141 592.28M101.624 615.637L111.727 616.68C112.922 616.803 113.994 615.907 114.121 614.678C114.248 613.45 113.382 612.353 112.186 612.23L102.084 611.187C100.888 611.063 99.8163 611.959 99.6894 613.188C99.5625 614.417 100.429 615.513 101.624 615.637ZM103.559 618.085C103.686 616.857 104.758 615.96 105.954 616.084L107.397 616.233C108.593 616.356 109.459 617.453 109.332 618.682C109.205 619.91 108.133 620.807 106.938 620.683L105.494 620.534C104.299 620.411 103.433 619.314 103.559 618.085Z" stroke="#B1B1B1" stroke-width="1.67005"/>
<path d="M101.625 460.449L98.403 448.77C98.2562 448.238 98.4091 447.664 98.8001 447.281L105.044 441.153C105.692 440.517 106.737 440.625 107.241 441.38L112.097 448.648C112.403 449.106 112.434 449.704 112.176 450.197L106.54 460.957M104.135 460.708L106.141 441.28M98.6244 464.637L108.727 465.68C109.922 465.803 110.994 464.907 111.121 463.678C111.248 462.45 110.382 461.353 109.186 461.23L99.084 460.187C97.8884 460.063 96.8163 460.959 96.6894 462.188C96.5625 463.417 97.4289 464.513 98.6244 464.637ZM100.559 467.085C100.686 465.857 101.758 464.96 102.954 465.084L104.397 465.233C105.593 465.356 106.459 466.453 106.332 467.682C106.205 468.91 105.133 469.807 103.938 469.683L102.494 469.534C101.299 469.411 100.433 468.314 100.559 467.085Z" stroke="#B1B1B1" stroke-width="1.67005"/>
<path d="M94.6252 313.449L91.403 301.77C91.2562 301.238 91.4091 300.664 91.8001 300.281L98.0438 294.153C98.6918 293.517 99.7368 293.625 100.241 294.38L105.097 301.648C105.403 302.106 105.434 302.704 105.176 303.197L99.5404 313.957M97.1351 313.708L99.1411 294.28M91.6244 317.637L101.727 318.68C102.922 318.803 103.994 317.907 104.121 316.678C104.248 315.45 103.382 314.353 102.186 314.23L92.084 313.187C90.8884 313.063 89.8163 313.959 89.6894 315.188C89.5625 316.417 90.4289 317.513 91.6244 317.637ZM93.5595 320.085C93.6863 318.857 94.7584 317.96 95.954 318.084L97.3972 318.233C98.5927 318.356 99.4591 319.453 99.3322 320.682C99.2053 321.91 98.1332 322.807 96.9377 322.683L95.4945 322.534C94.2989 322.411 93.4326 321.314 93.5595 320.085Z" stroke="#B1B1B1" stroke-width="1.67005"/>
<path d="M104.625 136.449L101.403 124.77C101.256 124.238 101.409 123.664 101.8 123.281L108.044 117.153C108.692 116.517 109.737 116.625 110.241 117.38L115.097 124.648C115.403 125.106 115.434 125.704 115.176 126.197L109.54 136.957M107.135 136.708L109.141 117.28M101.624 140.637L111.727 141.68C112.922 141.803 113.994 140.907 114.121 139.678C114.248 138.45 113.382 137.353 112.186 137.23L102.084 136.187C100.888 136.063 99.8163 136.959 99.6894 138.188C99.5625 139.417 100.429 140.513 101.624 140.637ZM103.559 143.085C103.686 141.857 104.758 140.96 105.954 141.084L107.397 141.233C108.593 141.356 109.459 142.453 109.332 143.682C109.205 144.91 108.133 145.807 106.938 145.683L105.494 145.534C104.299 145.411 103.433 144.314 103.559 143.085Z" stroke="#B1B1B1" stroke-width="1.67005"/>
<path d="M212.527 754.332L207.086 765.157C206.838 765.65 206.34 765.973 205.792 765.995L197.052 766.354C196.145 766.391 195.442 765.61 195.574 764.712L196.845 756.064C196.925 755.518 197.303 755.055 197.825 754.862L209.221 750.659M210.839 752.456L196.323 765.523M217.561 753.237L210.767 745.689C209.963 744.796 208.566 744.742 207.648 745.568C206.73 746.395 206.638 747.789 207.442 748.682L214.236 756.231C215.041 757.124 216.437 757.178 217.355 756.351C218.273 755.525 218.366 754.131 217.561 753.237ZM217.768 750.123C216.85 750.95 215.454 750.896 214.649 750.002L213.679 748.924C212.875 748.031 212.967 746.637 213.885 745.81C214.804 744.984 216.2 745.038 217.004 745.931L217.975 747.009C218.779 747.903 218.686 749.297 217.768 750.123Z" stroke="#B1B1B1" stroke-width="1.67005"/>
<path d="M203.625 608.449L200.403 596.77C200.256 596.238 200.409 595.664 200.8 595.281L207.044 589.153C207.692 588.517 208.737 588.625 209.241 589.38L214.097 596.648C214.403 597.106 214.434 597.704 214.176 598.197L208.54 608.957M206.135 608.708L208.141 589.28M200.624 612.637L210.727 613.68C211.922 613.803 212.994 612.907 213.121 611.678C213.248 610.45 212.382 609.353 211.186 609.23L201.084 608.187C199.888 608.063 198.816 608.959 198.689 610.188C198.563 611.417 199.429 612.513 200.624 612.637ZM202.559 615.085C202.686 613.857 203.758 612.96 204.954 613.084L206.397 613.233C207.593 613.356 208.459 614.453 208.332 615.682C208.205 616.91 207.133 617.807 205.938 617.683L204.494 617.534C203.299 617.411 202.433 616.314 202.559 615.085Z" stroke="#B1B1B1" stroke-width="1.67005"/>
<path d="M13.6252 716.449L10.403 704.77C10.2562 704.238 10.4091 703.664 10.8001 703.281L17.0438 697.153C17.6918 696.517 18.7368 696.625 19.2412 697.38L24.0969 704.648C24.4035 705.106 24.434 705.704 24.176 706.197L18.5404 716.957M16.1351 716.708L18.1411 697.28M10.6244 720.637L20.7267 721.68C21.9223 721.803 22.9943 720.907 23.1212 719.678C23.2481 718.45 22.3818 717.353 21.1862 717.23L11.084 716.187C9.88838 716.063 8.81632 716.959 8.68943 718.188C8.56254 719.417 9.42888 720.513 10.6244 720.637ZM12.5595 723.085C12.6863 721.857 13.7584 720.96 14.954 721.084L16.3972 721.233C17.5927 721.356 18.4591 722.453 18.3322 723.682C18.2053 724.91 17.1332 725.807 15.9377 725.683L14.4945 725.534C13.2989 725.411 12.4326 724.314 12.5595 723.085Z" stroke="#B1B1B1" stroke-width="1.67005"/>
<path d="M193.625 310.449L190.403 298.77C190.256 298.238 190.409 297.664 190.8 297.281L197.044 291.153C197.692 290.517 198.737 290.625 199.241 291.38L204.097 298.648C204.403 299.106 204.434 299.704 204.176 300.197L198.54 310.957M196.135 310.708L198.141 291.28M190.624 314.637L200.727 315.68C201.922 315.803 202.994 314.907 203.121 313.678C203.248 312.45 202.382 311.353 201.186 311.23L191.084 310.187C189.888 310.063 188.816 310.959 188.689 312.188C188.563 313.417 189.429 314.513 190.624 314.637ZM192.559 317.085C192.686 315.857 193.758 314.96 194.954 315.084L196.397 315.233C197.593 315.356 198.459 316.453 198.332 317.682C198.205 318.91 197.133 319.807 195.938 319.683L194.494 319.534C193.299 319.411 192.433 318.314 192.559 317.085Z" stroke="#B1B1B1" stroke-width="1.67005"/>
<path d="M193.625 165.449L190.403 153.77C190.256 153.238 190.409 152.664 190.8 152.281L197.044 146.153C197.692 145.517 198.737 145.625 199.241 146.38L204.097 153.648C204.403 154.106 204.434 154.704 204.176 155.197L198.54 165.957M196.135 165.708L198.141 146.28M190.624 169.637L200.727 170.68C201.922 170.803 202.994 169.907 203.121 168.678C203.248 167.45 202.382 166.353 201.186 166.23L191.084 165.187C189.888 165.063 188.816 165.959 188.689 167.188C188.563 168.417 189.429 169.513 190.624 169.637ZM192.559 172.085C192.686 170.857 193.758 169.96 194.954 170.084L196.397 170.233C197.593 170.356 198.459 171.453 198.332 172.682C198.205 173.91 197.133 174.807 195.938 174.683L194.494 174.534C193.299 174.411 192.433 173.314 192.559 172.085Z" stroke="#B1B1B1" stroke-width="1.67005"/>
<path d="M305.625 761.449L302.403 749.77C302.256 749.238 302.409 748.664 302.8 748.281L309.044 742.153C309.692 741.517 310.737 741.625 311.241 742.38L316.097 749.648C316.403 750.106 316.434 750.704 316.176 751.197L310.54 761.957M308.135 761.708L310.141 742.28M302.624 765.637L312.727 766.68C313.922 766.803 314.994 765.907 315.121 764.678C315.248 763.45 314.382 762.353 313.186 762.23L303.084 761.187C301.888 761.063 300.816 761.959 300.689 763.188C300.563 764.417 301.429 765.513 302.624 765.637ZM304.559 768.085C304.686 766.857 305.758 765.96 306.954 766.084L308.397 766.233C309.593 766.356 310.459 767.453 310.332 768.682C310.205 769.91 309.133 770.807 307.938 770.683L306.494 770.534C305.299 770.411 304.433 769.314 304.559 768.085Z" stroke="#B1B1B1" stroke-width="1.67005"/>
<path d="M305.625 608.449L302.403 596.77C302.256 596.238 302.409 595.664 302.8 595.281L309.044 589.153C309.692 588.517 310.737 588.625 311.241 589.38L316.097 596.648C316.403 597.106 316.434 597.704 316.176 598.197L310.54 608.957M308.135 608.708L310.141 589.28M302.624 612.637L312.727 613.68C313.922 613.803 314.994 612.907 315.121 611.678C315.248 610.45 314.382 609.353 313.186 609.23L303.084 608.187C301.888 608.063 300.816 608.959 300.689 610.188C300.563 611.417 301.429 612.513 302.624 612.637ZM304.559 615.085C304.686 613.857 305.758 612.96 306.954 613.084L308.397 613.233C309.593 613.356 310.459 614.453 310.332 615.682C310.205 616.91 309.133 617.807 307.938 617.683L306.494 617.534C305.299 617.411 304.433 616.314 304.559 615.085Z" stroke="#B1B1B1" stroke-width="1.67005"/>
<path d="M377.625 608.449L374.403 596.77C374.256 596.238 374.409 595.664 374.8 595.281L381.044 589.153C381.692 588.517 382.737 588.625 383.241 589.38L388.097 596.648C388.403 597.106 388.434 597.704 388.176 598.197L382.54 608.957M380.135 608.708L382.141 589.28M374.624 612.637L384.727 613.68C385.922 613.803 386.994 612.907 387.121 611.678C387.248 610.45 386.382 609.353 385.186 609.23L375.084 608.187C373.888 608.063 372.816 608.959 372.689 610.188C372.563 611.417 373.429 612.513 374.624 612.637ZM376.559 615.085C376.686 613.857 377.758 612.96 378.954 613.084L380.397 613.233C381.593 613.356 382.459 614.453 382.332 615.682C382.205 616.91 381.133 617.807 379.938 617.683L378.494 617.534C377.299 617.411 376.433 616.314 376.559 615.085Z" stroke="#B1B1B1" stroke-width="1.67005"/>
<path d="M377.625 233.449L374.403 221.77C374.256 221.238 374.409 220.664 374.8 220.281L381.044 214.153C381.692 213.517 382.737 213.625 383.241 214.38L388.097 221.648C388.403 222.106 388.434 222.704 388.176 223.197L382.54 233.957M380.135 233.708L382.141 214.28M374.624 237.637L384.727 238.68C385.922 238.803 386.994 237.907 387.121 236.678C387.248 235.45 386.382 234.353 385.186 234.23L375.084 233.187C373.888 233.063 372.816 233.959 372.689 235.188C372.563 236.417 373.429 237.513 374.624 237.637ZM376.559 240.085C376.686 238.857 377.758 237.96 378.954 238.084L380.397 238.233C381.593 238.356 382.459 239.453 382.332 240.682C382.205 241.91 381.133 242.807 379.938 242.683L378.494 242.534C377.299 242.411 376.433 241.314 376.559 240.085Z" stroke="#B1B1B1" stroke-width="1.67005"/>
<path d="M302.625 457.449L299.403 445.77C299.256 445.238 299.409 444.664 299.8 444.281L306.044 438.153C306.692 437.517 307.737 437.625 308.241 438.38L313.097 445.648C313.403 446.106 313.434 446.704 313.176 447.197L307.54 457.957M305.135 457.708L307.141 438.28M299.624 461.637L309.727 462.68C310.922 462.803 311.994 461.907 312.121 460.678C312.248 459.45 311.382 458.353 310.186 458.23L300.084 457.187C298.888 457.063 297.816 457.959 297.689 459.188C297.563 460.417 298.429 461.513 299.624 461.637ZM301.559 464.085C301.686 462.857 302.758 461.96 303.954 462.084L305.397 462.233C306.593 462.356 307.459 463.453 307.332 464.682C307.205 465.91 306.133 466.807 304.938 466.683L303.494 466.534C302.299 466.411 301.433 465.314 301.559 464.085Z" stroke="#B1B1B1" stroke-width="1.67005"/>
<path d="M374.625 457.449L371.403 445.77C371.256 445.238 371.409 444.664 371.8 444.281L378.044 438.153C378.692 437.517 379.737 437.625 380.241 438.38L385.097 445.648C385.403 446.106 385.434 446.704 385.176 447.197L379.54 457.957M377.135 457.708L379.141 438.28M371.624 461.637L381.727 462.68C382.922 462.803 383.994 461.907 384.121 460.678C384.248 459.45 383.382 458.353 382.186 458.23L372.084 457.187C370.888 457.063 369.816 457.959 369.689 459.188C369.563 460.417 370.429 461.513 371.624 461.637ZM373.559 464.085C373.686 462.857 374.758 461.96 375.954 462.084L377.397 462.233C378.593 462.356 379.459 463.453 379.332 464.682C379.205 465.91 378.133 466.807 376.938 466.683L375.494 466.534C374.299 466.411 373.433 465.314 373.559 464.085Z" stroke="#B1B1B1" stroke-width="1.67005"/>
<path d="M374.625 82.4491L371.403 70.7698C371.256 70.2377 371.409 69.6643 371.8 69.2806L378.044 63.1532C378.692 62.5173 379.737 62.6252 380.241 63.3801L385.097 70.6476C385.403 71.1064 385.434 71.7041 385.176 72.1966L379.54 82.9566M377.135 82.7082L379.141 63.2805M371.624 86.6369L381.727 87.68C382.922 87.8034 383.994 86.9073 384.121 85.6784C384.248 84.4495 383.382 83.3532 382.186 83.2298L372.084 82.1867C370.888 82.0632 369.816 82.9594 369.689 84.1882C369.563 85.4171 370.429 86.5134 371.624 86.6369ZM373.559 89.0855C373.686 87.8566 374.758 86.9605 375.954 87.0839L377.397 87.2329C378.593 87.3564 379.459 88.4527 379.332 89.6816C379.205 90.9104 378.133 91.8066 376.938 91.6831L375.494 91.5341C374.299 91.4107 373.433 90.3144 373.559 89.0855Z" stroke="#B1B1B1" stroke-width="1.67005"/>
<path d="M295.625 310.449L292.403 298.77C292.256 298.238 292.409 297.664 292.8 297.281L299.044 291.153C299.692 290.517 300.737 290.625 301.241 291.38L306.097 298.648C306.403 299.106 306.434 299.704 306.176 300.197L300.54 310.957M298.135 310.708L300.141 291.28M292.624 314.637L302.727 315.68C303.922 315.803 304.994 314.907 305.121 313.678C305.248 312.45 304.382 311.353 303.186 311.23L293.084 310.187C291.888 310.063 290.816 310.959 290.689 312.188C290.563 313.417 291.429 314.513 292.624 314.637ZM294.559 317.085C294.686 315.857 295.758 314.96 296.954 315.084L298.397 315.233C299.593 315.356 300.459 316.453 300.332 317.682C300.205 318.91 299.133 319.807 297.938 319.683L296.494 319.534C295.299 319.411 294.433 318.314 294.559 317.085Z" stroke="#B1B1B1" stroke-width="1.67005"/>
<path d="M367.625 310.449L364.403 298.77C364.256 298.238 364.409 297.664 364.8 297.281L371.044 291.153C371.692 290.517 372.737 290.625 373.241 291.38L378.097 298.648C378.403 299.106 378.434 299.704 378.176 300.197L372.54 310.957M370.135 310.708L372.141 291.28M364.624 314.637L374.727 315.68C375.922 315.803 376.994 314.907 377.121 313.678C377.248 312.45 376.382 311.353 375.186 311.23L365.084 310.187C363.888 310.063 362.816 310.959 362.689 312.188C362.563 313.417 363.429 314.513 364.624 314.637ZM366.559 317.085C366.686 315.857 367.758 314.96 368.954 315.084L370.397 315.233C371.593 315.356 372.459 316.453 372.332 317.682C372.205 318.91 371.133 319.807 369.938 319.683L368.494 319.534C367.299 319.411 366.433 318.314 366.559 317.085Z" stroke="#B1B1B1" stroke-width="1.67005"/>
<path d="M299.301 136.254L289.843 128.682C289.413 128.337 289.2 127.783 289.292 127.243L290.757 118.619C290.91 117.723 291.819 117.198 292.671 117.514L300.865 120.554C301.382 120.746 301.758 121.213 301.837 121.763L303.581 133.784M301.486 134.993L291.721 118.078M299.326 141.406L308.121 136.328C309.162 135.727 309.505 134.373 308.887 133.303C308.27 132.233 306.925 131.853 305.884 132.454L297.089 137.532C296.048 138.133 295.705 139.487 296.323 140.557C296.94 141.627 298.285 142.007 299.326 141.406ZM302.329 142.255C301.711 141.185 302.054 139.831 303.095 139.23L304.352 138.504C305.393 137.903 306.737 138.284 307.355 139.354C307.972 140.423 307.629 141.778 306.589 142.379L305.332 143.104C304.291 143.705 302.947 143.325 302.329 142.255Z" stroke="#B1B1B1" stroke-width="1.67005"/>
</g>
</g>
<defs>
<clipPath id="clip0_1_6815">
<rect width="402" height="874" rx="32" fill="white"/>
</clipPath>
</defs>
</svg>
