<svg width="402" height="874" viewBox="0 0 402 874" fill="none" xmlns="http://www.w3.org/2000/svg">
<g opacity="0.1">
<g clip-path="url(#clip0_1_13079)">
<path fill-rule="evenodd" clip-rule="evenodd" d="M5.24255 232.24L-2.88275 235.842C-3.19327 235.98 -3.47498 236.043 -3.85433 236.025C-4.28543 236.031 -4.60717 235.864 -4.80245 235.702C-4.80245 235.702 -4.82539 235.651 -4.87714 235.674C-5.14712 235.484 -5.38828 235.219 -5.54889 234.857C-5.68655 234.546 -5.77245 234.213 -5.7031 233.811L-4.47987 222.741C-4.46814 222.488 -4.30701 222.293 -4.04824 222.178C-3.84123 222.086 -3.58833 222.098 -3.34129 222.236L5.57916 228.809C5.77444 228.97 6.09617 229.137 6.27972 229.551C6.49208 229.89 6.52623 230.247 6.50863 230.626C6.49103 231.005 6.34698 231.379 6.03059 231.643C5.81184 231.988 5.44957 232.148 5.24255 232.24ZM1.27618 232.512L4.69191 230.998C4.89893 230.906 5.00243 230.86 5.03124 230.786C5.11181 230.688 5.14062 230.613 5.14648 230.487C5.17529 230.412 5.12941 230.309 5.08352 230.205C5.06058 230.153 4.98588 230.125 4.7906 229.964L-2.07354 224.956L1.27618 232.512ZM0.0340975 233.063L-3.33857 225.455L-4.26626 233.979C-4.27213 234.105 -4.22624 234.209 -4.18035 234.312C-4.13447 234.416 -4.08858 234.519 -4.01388 234.548C-3.93919 234.577 -3.91624 234.628 -3.86449 234.605L-3.78979 234.634C-3.66334 234.64 -3.55984 234.594 -3.40458 234.525L0.0111541 233.011L0.0340975 233.063Z" fill="white"/>
<path fill-rule="evenodd" clip-rule="evenodd" d="M7.75321 877.819L-1.02892 879.186C-1.36455 879.238 -1.65294 879.226 -2.01469 879.11C-2.43238 879.004 -2.69968 878.759 -2.84639 878.552C-2.84639 878.552 -2.8551 878.497 -2.91104 878.505C-3.1224 878.252 -3.28653 877.933 -3.3475 877.542C-3.39975 877.206 -3.39607 876.862 -3.22458 876.491L0.832563 866.12C0.909599 865.879 1.11593 865.732 1.39561 865.688C1.61936 865.654 1.86053 865.731 2.06318 865.928L8.96971 874.593C9.11642 874.799 9.38372 875.044 9.4534 875.491C9.5703 875.874 9.51069 876.227 9.39513 876.589C9.27958 876.951 9.04344 877.274 8.6693 877.447C8.36851 877.723 7.97695 877.784 7.75321 877.819ZM3.85233 877.051L7.54418 876.476C7.76792 876.441 7.8798 876.424 7.92703 876.359C8.03019 876.286 8.07742 876.221 8.11594 876.101C8.16316 876.036 8.14575 875.924 8.12833 875.812C8.11962 875.756 8.05497 875.709 7.90826 875.503L2.58073 868.884L3.85233 877.051ZM2.50983 877.26L1.22952 869.037L-1.88074 877.027C-1.91926 877.148 -1.90184 877.26 -1.88442 877.371C-1.867 877.483 -1.84958 877.595 -1.78494 877.642C-1.72029 877.69 -1.71158 877.746 -1.65564 877.737L-1.591 877.784C-1.47041 877.823 -1.35854 877.805 -1.19073 877.779L2.50112 877.204L2.50983 877.26Z" fill="white"/>
<path d="M5.5103 45.9555L11.216 43.4726M11.216 43.4726L21.8811 55.0258C22.6567 55.866 23.8984 55.3257 23.8122 54.1855L22.6273 38.507M11.216 43.4726L11.7903 34.8686M11.216 43.4726L22.6273 38.507M22.6273 38.507L28.333 36.0241M22.6273 38.507L16.4586 32.8372M6.17657 47.3616L21.5226 55.961C22.843 56.7009 24.3555 56.0214 24.6848 54.5402L28.4358 37.6687C28.6799 36.5708 28.1838 35.3667 27.2344 34.7531L22.1568 31.4715C21.5084 31.0524 20.7425 30.973 20.0895 31.2572L7.12203 36.9C6.46897 37.1842 6.00502 37.7988 5.86974 38.5589L4.81767 44.4698C4.61623 45.6017 5.18114 46.8038 6.17657 47.3616Z" stroke="#B1B1B1" stroke-width="1.67005"/>
<path d="M277.226 290.955L271.52 288.473M271.52 288.473L260.855 300.026C260.08 300.866 258.838 300.326 258.924 299.186L260.109 283.507M271.52 288.473L270.946 279.869M271.52 288.473L260.109 283.507M260.109 283.507L254.403 281.024M260.109 283.507L266.278 277.837M276.56 292.362L261.214 300.961C259.893 301.701 258.381 301.021 258.052 299.54L254.3 282.669C254.056 281.571 254.553 280.367 255.502 279.753L260.58 276.471C261.228 276.052 261.994 275.973 262.647 276.257L275.614 281.9C276.267 282.184 276.731 282.799 276.867 283.559L277.919 289.47C278.12 290.602 277.555 291.804 276.56 292.362Z" stroke="#B1B1B1" stroke-width="1.67005"/>
<path d="M379.226 578.955L373.52 576.473M373.52 576.473L362.855 588.026C362.08 588.866 360.838 588.326 360.924 587.186L362.109 571.507M373.52 576.473L372.946 567.869M373.52 576.473L362.109 571.507M362.109 571.507L356.403 569.024M362.109 571.507L368.278 565.837M378.56 580.362L363.214 588.961C361.893 589.701 360.381 589.021 360.052 587.54L356.3 570.669C356.056 569.571 356.553 568.367 357.502 567.753L362.58 564.471C363.228 564.052 363.994 563.973 364.647 564.257L377.614 569.9C378.267 570.184 378.731 570.799 378.867 571.559L379.919 577.47C380.12 578.602 379.555 579.804 378.56 580.362Z" stroke="#B1B1B1" stroke-width="1.67005"/>
<path d="M239.157 107.393L234.154 103.694M234.154 103.694L238.827 88.6807C239.166 87.5889 238.078 86.7838 237.133 87.4285L224.148 96.2939M234.154 103.694L226.415 107.498M234.154 103.694L224.148 96.2939M224.148 96.2939L219.145 92.5941M224.148 96.2939L222.322 104.471M240.041 106.113L239.816 88.5236C239.796 87.0101 238.452 86.0401 237.004 86.4954L220.518 91.6827C219.445 92.0202 218.65 93.052 218.593 94.1809L218.29 100.219C218.251 100.99 218.566 101.693 219.138 102.117L230.509 110.525C231.081 110.949 231.846 111.043 232.571 110.78L238.217 108.736C239.297 108.345 240.056 107.254 240.041 106.113Z" stroke="#B1B1B1" stroke-width="1.67005"/>
<path d="M43.5795 352.393L48.5825 348.694M48.5825 348.694L43.9097 333.681C43.5699 332.589 44.6587 331.784 45.603 332.428L58.5886 341.294M48.5825 348.694L56.321 352.498M48.5825 348.694L58.5886 341.294M58.5886 341.294L63.5917 337.594M58.5886 341.294L60.4144 349.471M42.6949 351.113L42.9206 333.524C42.9401 332.01 44.2848 331.04 45.7321 331.495L62.2188 336.683C63.2917 337.02 64.0864 338.052 64.1431 339.181L64.4463 345.219C64.485 345.99 64.1708 346.693 63.5982 347.117L52.2276 355.525C51.655 355.949 50.8908 356.043 50.1649 355.78L44.5198 353.736C43.4389 353.345 42.6803 352.254 42.6949 351.113Z" stroke="#B1B1B1" stroke-width="1.67005"/>
<path d="M145.579 640.393L150.583 636.694M150.583 636.694L145.91 621.681C145.57 620.589 146.659 619.784 147.603 620.428L160.589 629.294M150.583 636.694L158.321 640.498M150.583 636.694L160.589 629.294M160.589 629.294L165.592 625.594M160.589 629.294L162.414 637.471M144.695 639.113L144.921 621.524C144.94 620.01 146.285 619.04 147.732 619.495L164.219 624.683C165.292 625.02 166.086 626.052 166.143 627.181L166.446 633.219C166.485 633.99 166.171 634.693 165.598 635.117L154.228 643.525C153.655 643.949 152.891 644.043 152.165 643.78L146.52 641.736C145.439 641.345 144.68 640.254 144.695 639.113Z" stroke="#B1B1B1" stroke-width="1.67005"/>
<path d="M372.579 401.393L377.583 397.694M377.583 397.694L372.91 382.681C372.57 381.589 373.659 380.784 374.603 381.428L387.589 390.294M377.583 397.694L385.321 401.498M377.583 397.694L387.589 390.294M387.589 390.294L392.592 386.594M387.589 390.294L389.414 398.471M371.695 400.113L371.921 382.524C371.94 381.01 373.285 380.04 374.732 380.495L391.219 385.683C392.292 386.02 393.086 387.052 393.143 388.181L393.446 394.219C393.485 394.99 393.171 395.693 392.598 396.117L381.228 404.525C380.655 404.949 379.891 405.043 379.165 404.78L373.52 402.736C372.439 402.345 371.68 401.254 371.695 400.113Z" stroke="#B1B1B1" stroke-width="1.67005"/>
<path d="M330.157 215.393L325.154 211.694M325.154 211.694L329.827 196.681C330.166 195.589 329.078 194.784 328.133 195.428L315.148 204.294M325.154 211.694L317.415 215.498M325.154 211.694L315.148 204.294M315.148 204.294L310.145 200.594M315.148 204.294L313.322 212.471M331.041 214.113L330.816 196.524C330.796 195.01 329.452 194.04 328.004 194.495L311.518 199.683C310.445 200.02 309.65 201.052 309.593 202.181L309.29 208.219C309.251 208.99 309.566 209.693 310.138 210.117L321.509 218.525C322.081 218.949 322.846 219.043 323.571 218.78L329.217 216.736C330.297 216.345 331.056 215.254 331.041 214.113Z" stroke="#B1B1B1" stroke-width="1.67005"/>
<path d="M54.5795 748.393L59.5825 744.694M59.5825 744.694L54.9097 729.681C54.5699 728.589 55.6587 727.784 56.603 728.428L69.5886 737.294M59.5825 744.694L67.321 748.498M59.5825 744.694L69.5886 737.294M69.5886 737.294L74.5917 733.594M69.5886 737.294L71.4144 745.471M53.6949 747.113L53.9206 729.524C53.9401 728.01 55.2848 727.04 56.7321 727.495L73.2188 732.683C74.2917 733.02 75.0864 734.052 75.1431 735.181L75.4463 741.219C75.485 741.99 75.1708 742.693 74.5982 743.117L63.2276 751.525C62.655 751.949 61.8908 752.043 61.1649 751.78L55.5198 749.736C54.4389 749.345 53.6803 748.254 53.6949 747.113Z" stroke="#B1B1B1" stroke-width="1.67005"/>
<path d="M281.579 509.393L286.583 505.694M286.583 505.694L281.91 490.681C281.57 489.589 282.659 488.784 283.603 489.428L296.589 498.294M286.583 505.694L294.321 509.498M286.583 505.694L296.589 498.294M296.589 498.294L301.592 494.594M296.589 498.294L298.414 506.471M280.695 508.113L280.921 490.524C280.94 489.01 282.285 488.04 283.732 488.495L300.219 493.683C301.292 494.02 302.086 495.052 302.143 496.181L302.446 502.219C302.485 502.99 302.171 503.693 301.598 504.117L290.228 512.525C289.655 512.949 288.891 513.043 288.165 512.78L282.52 510.736C281.439 510.345 280.68 509.254 280.695 508.113Z" stroke="#B1B1B1" stroke-width="1.67005"/>
<path d="M75.3146 27.1575L79.1895 32.0262M79.1895 32.0262L70.7903 45.3181C70.1795 46.2847 71.0228 47.3442 72.1018 46.9659L86.9395 41.7635M79.1895 32.0262L87.649 30.3541M79.1895 32.0262L86.9395 41.7635M86.9395 41.7635L90.8145 46.6321M86.9395 41.7635L90.8195 34.3375M74.1288 28.165L69.7943 45.2138C69.4213 46.6808 70.4692 47.9658 71.9851 47.9005L89.2525 47.1571C90.3762 47.1088 91.4108 46.3179 91.7578 45.242L93.6135 39.4881C93.8505 38.7534 93.7289 37.993 93.2854 37.4357L84.4786 26.3706C84.0351 25.8134 83.3214 25.5243 82.5522 25.5903L76.5703 26.104C75.4249 26.2024 74.41 27.0592 74.1288 28.165Z" stroke="#B1B1B1" stroke-width="1.67005"/>
<path d="M207.422 272.158L203.547 277.026M203.547 277.026L211.946 290.318C212.557 291.285 211.713 292.344 210.634 291.966L195.797 286.763M203.547 277.026L195.087 275.354M203.547 277.026L195.797 286.763M195.797 286.763L191.922 291.632M195.797 286.763L191.917 279.337M208.608 273.165L212.942 290.214C213.315 291.681 212.267 292.966 210.751 292.901L193.484 292.157C192.36 292.109 191.325 291.318 190.979 290.242L189.123 284.488C188.886 283.753 189.007 282.993 189.451 282.436L198.258 271.371C198.701 270.813 199.415 270.524 200.184 270.59L206.166 271.104C207.311 271.202 208.326 272.059 208.608 273.165Z" stroke="#B1B1B1" stroke-width="1.67005"/>
<path d="M309.422 560.158L305.547 565.026M305.547 565.026L313.946 578.318C314.557 579.285 313.713 580.344 312.634 579.966L297.797 574.763M305.547 565.026L297.087 563.354M305.547 565.026L297.797 574.763M297.797 574.763L293.922 579.632M297.797 574.763L293.917 567.337M310.608 561.165L314.942 578.214C315.315 579.681 314.267 580.966 312.751 580.901L295.484 580.157C294.36 580.109 293.325 579.318 292.979 578.242L291.123 572.488C290.886 571.753 291.007 570.993 291.451 570.436L300.258 559.371C300.701 558.813 301.415 558.524 302.184 558.59L308.166 559.104C309.311 559.202 310.326 560.059 310.608 561.165Z" stroke="#B1B1B1" stroke-width="1.67005"/>
<path d="M161.315 135.158L165.19 140.026M165.19 140.026L156.79 153.318C156.18 154.285 157.023 155.344 158.102 154.966L172.94 149.763M165.19 140.026L173.649 138.354M165.19 140.026L172.94 149.763M172.94 149.763L176.814 154.632M172.94 149.763L176.819 142.337M160.129 136.165L155.794 153.214C155.421 154.681 156.469 155.966 157.985 155.901L175.253 155.157C176.376 155.109 177.411 154.318 177.758 153.242L179.614 147.488C179.85 146.753 179.729 145.993 179.285 145.436L170.479 134.371C170.035 133.813 169.321 133.524 168.552 133.59L162.57 134.104C161.425 134.202 160.41 135.059 160.129 136.165Z" stroke="#B1B1B1" stroke-width="1.67005"/>
<path d="M121.422 380.158L117.547 385.026M117.547 385.026L125.946 398.318C126.557 399.285 125.713 400.344 124.634 399.966L109.797 394.763M117.547 385.026L109.087 383.354M117.547 385.026L109.797 394.763M109.797 394.763L105.922 399.632M109.797 394.763L105.917 387.337M122.608 381.165L126.942 398.214C127.315 399.681 126.267 400.966 124.751 400.901L107.484 400.157C106.36 400.109 105.325 399.318 104.979 398.242L103.123 392.488C102.886 391.753 103.007 390.993 103.451 390.436L112.258 379.371C112.701 378.813 113.415 378.524 114.184 378.59L120.166 379.104C121.311 379.202 122.326 380.059 122.608 381.165Z" stroke="#B1B1B1" stroke-width="1.67005"/>
<path d="M223.422 668.158L219.547 673.026M219.547 673.026L227.946 686.318C228.557 687.285 227.713 688.344 226.634 687.966L211.797 682.763M219.547 673.026L211.087 671.354M219.547 673.026L211.797 682.763M211.797 682.763L207.922 687.632M211.797 682.763L207.917 675.337M224.608 669.165L228.942 686.214C229.315 687.681 228.267 688.966 226.751 688.901L209.484 688.157C208.36 688.109 207.325 687.318 206.979 686.242L205.123 680.488C204.886 679.753 205.007 678.993 205.451 678.436L214.258 667.371C214.701 666.813 215.415 666.524 216.184 666.59L222.166 667.104C223.311 667.202 224.326 668.059 224.608 669.165Z" stroke="#B1B1B1" stroke-width="1.67005"/>
<path d="M189.309 70.5278L191.588 64.7377M191.588 64.7377L207.299 65.3656C208.441 65.4113 208.937 64.1512 208.07 63.4059L196.146 53.1574M191.588 64.7377L185.91 58.2476M191.588 64.7377L196.146 53.1574M196.146 53.1574L198.425 47.3672M196.146 53.1574L187.775 53.5102M190.775 71.051L207.707 66.2804C209.164 65.8699 209.752 64.3199 208.938 63.0397L199.66 48.4574C199.057 47.5084 197.854 47.0079 196.749 47.2453L190.838 48.5152C190.084 48.6774 189.486 49.1628 189.225 49.8255L184.046 62.985C183.785 63.6477 183.891 64.4103 184.333 65.0435L187.769 69.9671C188.427 70.9098 189.676 71.3604 190.775 71.051Z" stroke="#B1B1B1" stroke-width="1.67005"/>
<path d="M93.427 315.528L91.1482 309.738M91.1482 309.738L75.4374 310.366C74.2949 310.411 73.799 309.151 74.6661 308.406L86.5904 298.157M91.1482 309.738L96.826 303.248M91.1482 309.738L86.5904 298.157M86.5904 298.157L84.3115 292.367M86.5904 298.157L94.9615 298.51M91.9617 316.051L75.0297 311.28C73.5728 310.87 72.9839 309.32 73.7983 308.04L83.0759 293.457C83.6796 292.508 84.8819 292.008 85.987 292.245L91.8979 293.515C92.6527 293.677 93.2505 294.163 93.5113 294.826L98.6906 307.985C98.9514 308.648 98.8449 309.41 98.4031 310.043L94.9673 314.967C94.3095 315.91 93.06 316.36 91.9617 316.051Z" stroke="#B1B1B1" stroke-width="1.67005"/>
<path d="M195.427 603.528L193.148 597.738M193.148 597.738L177.437 598.366C176.295 598.411 175.799 597.151 176.666 596.406L188.59 586.157M193.148 597.738L198.826 591.248M193.148 597.738L188.59 586.157M188.59 586.157L186.312 580.367M188.59 586.157L196.961 586.51M193.962 604.051L177.03 599.28C175.573 598.87 174.984 597.32 175.798 596.04L185.076 581.457C185.68 580.508 186.882 580.008 187.987 580.245L193.898 581.515C194.653 581.677 195.25 582.163 195.511 582.826L200.691 595.985C200.951 596.648 200.845 597.41 200.403 598.043L196.967 602.967C196.309 603.91 195.06 604.36 193.962 604.051Z" stroke="#B1B1B1" stroke-width="1.67005"/>
<path d="M422.427 364.528L420.148 358.738M420.148 358.738L404.437 359.366C403.295 359.411 402.799 358.151 403.666 357.406L415.59 347.157M420.148 358.738L425.826 352.248M420.148 358.738L415.59 347.157M415.59 347.157L413.312 341.367M415.59 347.157L423.961 347.51M420.962 365.051L404.03 360.28C402.573 359.87 401.984 358.32 402.798 357.04L412.076 342.457C412.68 341.508 413.882 341.008 414.987 341.245L420.898 342.515C421.653 342.677 422.25 343.163 422.511 343.826L427.691 356.985C427.951 357.648 427.845 358.41 427.403 359.043L423.967 363.967C423.309 364.91 422.06 365.36 420.962 365.051Z" stroke="#B1B1B1" stroke-width="1.67005"/>
<path d="M272.309 178.528L274.588 172.738M274.588 172.738L290.299 173.366C291.441 173.411 291.937 172.151 291.07 171.406L279.146 161.157M274.588 172.738L268.91 166.248M274.588 172.738L279.146 161.157M279.146 161.157L281.425 155.367M279.146 161.157L270.775 161.51M273.775 179.051L290.707 174.28C292.164 173.87 292.752 172.32 291.938 171.04L282.66 156.457C282.057 155.508 280.854 155.008 279.749 155.245L273.838 156.515C273.084 156.677 272.486 157.163 272.225 157.826L267.046 170.985C266.785 171.648 266.891 172.41 267.333 173.043L270.769 177.967C271.427 178.91 272.676 179.36 273.775 179.051Z" stroke="#B1B1B1" stroke-width="1.67005"/>
<path d="M10.427 423.528L8.14817 417.738M8.14817 417.738L-7.56256 418.366C-8.70506 418.411 -9.201 417.151 -8.33386 416.406L3.59041 406.157M8.14817 417.738L13.826 411.248M8.14817 417.738L3.59041 406.157M3.59041 406.157L1.31154 400.367M3.59041 406.157L11.9615 406.51M8.96165 424.051L-7.97028 419.28C-9.42718 418.87 -10.0161 417.32 -9.20167 416.04L0.0758814 401.457C0.67962 400.508 1.88188 400.008 2.98704 400.245L8.89794 401.515C9.65274 401.677 10.2505 402.163 10.5113 402.826L15.6906 415.985C15.9514 416.648 15.8449 417.41 15.4031 418.043L11.9673 422.967C11.3095 423.91 10.06 424.36 8.96165 424.051Z" stroke="#B1B1B1" stroke-width="1.67005"/>
<path d="M112.427 711.528L110.148 705.738M110.148 705.738L94.4374 706.366C93.2949 706.411 92.799 705.151 93.6661 704.406L105.59 694.157M110.148 705.738L115.826 699.248M110.148 705.738L105.59 694.157M105.59 694.157L103.312 688.367M105.59 694.157L113.961 694.51M110.962 712.051L94.0297 707.28C92.5728 706.87 91.9839 705.32 92.7983 704.04L102.076 689.457C102.68 688.508 103.882 688.008 104.987 688.245L110.898 689.515C111.653 689.677 112.25 690.163 112.511 690.826L117.691 703.985C117.951 704.648 117.845 705.41 117.403 706.043L113.967 710.967C113.309 711.91 112.06 712.36 110.962 712.051Z" stroke="#B1B1B1" stroke-width="1.67005"/>
<path d="M339.427 472.528L337.148 466.738M337.148 466.738L321.437 467.366C320.295 467.411 319.799 466.151 320.666 465.406L332.59 455.157M337.148 466.738L342.826 460.248M337.148 466.738L332.59 455.157M332.59 455.157L330.312 449.367M332.59 455.157L340.961 455.51M337.962 473.051L321.03 468.28C319.573 467.87 318.984 466.32 319.798 465.04L329.076 450.457C329.68 449.508 330.882 449.008 331.987 449.245L337.898 450.515C338.653 450.677 339.25 451.163 339.511 451.826L344.691 464.985C344.951 465.648 344.845 466.41 344.403 467.043L340.967 471.967C340.309 472.91 339.06 473.36 337.962 473.051Z" stroke="#B1B1B1" stroke-width="1.67005"/>
<path d="M86.5103 89.9555L92.216 87.4726M92.216 87.4726L102.881 99.0258C103.657 99.866 104.898 99.3257 104.812 98.1855L103.627 82.507M92.216 87.4726L92.7903 78.8686M92.216 87.4726L103.627 82.507M103.627 82.507L109.333 80.0241M103.627 82.507L97.4586 76.8372M87.1766 91.3616L102.523 99.961C103.843 100.701 105.355 100.021 105.685 98.5402L109.436 81.6687C109.68 80.5708 109.184 79.3667 108.234 78.7531L103.157 75.4715C102.508 75.0524 101.743 74.973 101.089 75.2572L88.122 80.9C87.469 81.1842 87.005 81.7988 86.8697 82.5589L85.8177 88.4698C85.6162 89.6017 86.1811 90.8038 87.1766 91.3616Z" stroke="#B1B1B1" stroke-width="1.67005"/>
<path d="M196.226 334.955L190.52 332.473M190.52 332.473L179.855 344.026C179.08 344.866 177.838 344.326 177.924 343.186L179.109 327.507M190.52 332.473L189.946 323.869M190.52 332.473L179.109 327.507M179.109 327.507L173.403 325.024M179.109 327.507L185.278 321.837M195.56 336.362L180.214 344.961C178.893 345.701 177.381 345.021 177.052 343.54L173.3 326.669C173.056 325.571 173.553 324.367 174.502 323.753L179.58 320.471C180.228 320.052 180.994 319.973 181.647 320.257L194.614 325.9C195.267 326.184 195.731 326.799 195.867 327.559L196.919 333.47C197.12 334.602 196.555 335.804 195.56 336.362Z" stroke="#B1B1B1" stroke-width="1.67005"/>
<path d="M298.226 622.955L292.52 620.473M292.52 620.473L281.855 632.026C281.08 632.866 279.838 632.326 279.924 631.186L281.109 615.507M292.52 620.473L291.946 611.869M292.52 620.473L281.109 615.507M281.109 615.507L275.403 613.024M281.109 615.507L287.278 609.837M297.56 624.362L282.214 632.961C280.893 633.701 279.381 633.021 279.052 631.54L275.3 614.669C275.056 613.571 275.553 612.367 276.502 611.753L281.58 608.471C282.228 608.052 282.994 607.973 283.647 608.257L296.614 613.9C297.267 614.184 297.731 614.799 297.867 615.559L298.919 621.47C299.12 622.602 298.555 623.804 297.56 624.362Z" stroke="#B1B1B1" stroke-width="1.67005"/>
<path d="M172.51 197.955L178.216 195.473M178.216 195.473L188.881 207.026C189.657 207.866 190.898 207.326 190.812 206.186L189.627 190.507M178.216 195.473L178.79 186.869M178.216 195.473L189.627 190.507M189.627 190.507L195.333 188.024M189.627 190.507L183.459 184.837M173.177 199.362L188.523 207.961C189.843 208.701 191.355 208.021 191.685 206.54L195.436 189.669C195.68 188.571 195.184 187.367 194.234 186.753L189.157 183.471C188.508 183.052 187.743 182.973 187.089 183.257L174.122 188.9C173.469 189.184 173.005 189.799 172.87 190.559L171.818 196.47C171.616 197.602 172.181 198.804 173.177 199.362Z" stroke="#B1B1B1" stroke-width="1.67005"/>
<path d="M110.226 442.955L104.52 440.473M104.52 440.473L93.8552 452.026C93.0797 452.866 91.838 452.326 91.9241 451.186L93.109 435.507M104.52 440.473L103.946 431.869M104.52 440.473L93.109 435.507M93.109 435.507L87.4034 433.024M93.109 435.507L99.2778 429.837M109.56 444.362L94.2137 452.961C92.8933 453.701 91.3809 453.021 91.0516 451.54L87.3005 434.669C87.0564 433.571 87.5526 432.367 88.5019 431.753L93.5795 428.471C94.2279 428.052 94.9938 427.973 95.6469 428.257L108.614 433.9C109.267 434.184 109.731 434.799 109.867 435.559L110.919 441.47C111.12 442.602 110.555 443.804 109.56 444.362Z" stroke="#B1B1B1" stroke-width="1.67005"/>
<path d="M212.226 730.955L206.52 728.473M206.52 728.473L195.855 740.026C195.08 740.866 193.838 740.326 193.924 739.186L195.109 723.507M206.52 728.473L205.946 719.869M206.52 728.473L195.109 723.507M195.109 723.507L189.403 721.024M195.109 723.507L201.278 717.837M211.56 732.362L196.214 740.961C194.893 741.701 193.381 741.021 193.052 739.54L189.3 722.669C189.056 721.571 189.553 720.367 190.502 719.753L195.58 716.471C196.228 716.052 196.994 715.973 197.647 716.257L210.614 721.9C211.267 722.184 211.731 722.799 211.867 723.559L212.919 729.47C213.12 730.602 212.555 731.804 211.56 732.362Z" stroke="#B1B1B1" stroke-width="1.67005"/>
<path d="M256.157 36.0299L251.154 32.33M251.154 32.33L255.827 17.3172C256.166 16.2254 255.078 15.4202 254.133 16.0649L241.148 24.9304M251.154 32.33L243.415 36.1347M251.154 32.33L241.148 24.9304M241.148 24.9304L236.145 21.2305M241.148 24.9304L239.322 33.1075M257.041 34.7498L256.816 17.1601C256.796 15.6466 255.452 14.6765 254.004 15.1319L237.518 20.3191C236.445 20.6567 235.65 21.6884 235.593 22.8174L235.29 28.8556C235.251 29.6266 235.566 30.3296 236.138 30.7531L247.509 39.1618C248.081 39.5853 248.846 39.6798 249.571 39.4169L255.217 37.3725C256.297 36.9811 257.056 35.8908 257.041 34.7498Z" stroke="#B1B1B1" stroke-width="1.67005"/>
<path d="M26.5795 281.03L31.5825 277.33M31.5825 277.33L26.9097 262.317C26.5699 261.225 27.6587 260.42 28.603 261.065L41.5886 269.93M31.5825 277.33L39.321 281.135M31.5825 277.33L41.5886 269.93M41.5886 269.93L46.5917 266.231M41.5886 269.93L43.4144 278.108M25.6949 279.75L25.9206 262.16C25.9401 260.647 27.2848 259.677 28.7321 260.132L45.2188 265.319C46.2917 265.657 47.0864 266.688 47.1431 267.817L47.4463 273.856C47.485 274.627 47.1708 275.33 46.5982 275.753L35.2276 284.162C34.655 284.585 33.8908 284.68 33.1649 284.417L27.5198 282.373C26.4389 281.981 25.6803 280.891 25.6949 279.75Z" stroke="#B1B1B1" stroke-width="1.67005"/>
<path d="M128.579 569.03L133.583 565.33M133.583 565.33L128.91 550.317C128.57 549.225 129.659 548.42 130.603 549.065L143.589 557.93M133.583 565.33L141.321 569.135M133.583 565.33L143.589 557.93M143.589 557.93L148.592 554.231M143.589 557.93L145.414 566.108M127.695 567.75L127.921 550.16C127.94 548.647 129.285 547.677 130.732 548.132L147.219 553.319C148.292 553.657 149.086 554.688 149.143 555.817L149.446 561.856C149.485 562.627 149.171 563.33 148.598 563.753L137.228 572.162C136.655 572.585 135.891 572.68 135.165 572.417L129.52 570.373C128.439 569.981 127.68 568.891 127.695 567.75Z" stroke="#B1B1B1" stroke-width="1.67005"/>
<path d="M355.579 330.03L360.583 326.33M360.583 326.33L355.91 311.317C355.57 310.225 356.659 309.42 357.603 310.065L370.589 318.93M360.583 326.33L368.321 330.135M360.583 326.33L370.589 318.93M370.589 318.93L375.592 315.231M370.589 318.93L372.414 327.108M354.695 328.75L354.921 311.16C354.94 309.647 356.285 308.677 357.732 309.132L374.219 314.319C375.292 314.657 376.086 315.688 376.143 316.817L376.446 322.856C376.485 323.627 376.171 324.33 375.598 324.753L364.228 333.162C363.655 333.585 362.891 333.68 362.165 333.417L356.52 331.373C355.439 330.981 354.68 329.891 354.695 328.75Z" stroke="#B1B1B1" stroke-width="1.67005"/>
<path d="M347.157 144.03L342.154 140.33M342.154 140.33L346.827 125.317C347.166 124.225 346.078 123.42 345.133 124.065L332.148 132.93M342.154 140.33L334.415 144.135M342.154 140.33L332.148 132.93M332.148 132.93L327.145 129.231M332.148 132.93L330.322 141.108M348.041 142.75L347.816 125.16C347.796 123.647 346.452 122.677 345.004 123.132L328.518 128.319C327.445 128.657 326.65 129.688 326.593 130.817L326.29 136.856C326.251 137.627 326.566 138.33 327.138 138.753L338.509 147.162C339.081 147.585 339.846 147.68 340.571 147.417L346.217 145.373C347.297 144.981 348.056 143.891 348.041 142.75Z" stroke="#B1B1B1" stroke-width="1.67005"/>
<path d="M37.5795 677.03L42.5825 673.33M42.5825 673.33L37.9097 658.317C37.5699 657.225 38.6587 656.42 39.603 657.065L52.5886 665.93M42.5825 673.33L50.321 677.135M42.5825 673.33L52.5886 665.93M52.5886 665.93L57.5917 662.231M52.5886 665.93L54.4144 674.108M36.6949 675.75L36.9206 658.16C36.9401 656.647 38.2848 655.677 39.7321 656.132L56.2188 661.319C57.2917 661.657 58.0864 662.688 58.1431 663.817L58.4463 669.856C58.485 670.627 58.1708 671.33 57.5982 671.753L46.2276 680.162C45.655 680.585 44.8908 680.68 44.1649 680.417L38.5198 678.373C37.4389 677.981 36.6803 676.891 36.6949 675.75Z" stroke="#B1B1B1" stroke-width="1.67005"/>
<path d="M264.579 438.03L269.583 434.33M269.583 434.33L264.91 419.317C264.57 418.225 265.659 417.42 266.603 418.065L279.589 426.93M269.583 434.33L277.321 438.135M269.583 434.33L279.589 426.93M279.589 426.93L284.592 423.231M279.589 426.93L281.414 435.108M263.695 436.75L263.921 419.16C263.94 417.647 265.285 416.677 266.732 417.132L283.219 422.319C284.292 422.657 285.086 423.688 285.143 424.817L285.446 430.856C285.485 431.627 285.171 432.33 284.598 432.753L273.228 441.162C272.655 441.585 271.891 441.68 271.165 441.417L265.52 439.373C264.439 438.981 263.68 437.891 263.695 436.75Z" stroke="#B1B1B1" stroke-width="1.67005"/>
<path d="M39.3146 93.6033L43.1895 98.472M43.1895 98.472L34.7903 111.764C34.1795 112.73 35.0228 113.79 36.1018 113.412L50.9395 108.209M43.1895 98.472L51.649 96.7999M43.1895 98.472L50.9395 108.209M50.9395 108.209L54.8145 113.078M50.9395 108.209L54.8195 100.783M38.1288 94.6108L33.7943 111.66C33.4213 113.127 34.4692 114.412 35.9851 114.346L53.2525 113.603C54.3762 113.555 55.4108 112.764 55.7578 111.688L57.6135 105.934C57.8505 105.199 57.7289 104.439 57.2854 103.882L48.4786 92.8164C48.0351 92.2592 47.3214 91.9701 46.5522 92.0361L40.5703 92.5498C39.4249 92.6482 38.41 93.505 38.1288 94.6108Z" stroke="#B1B1B1" stroke-width="1.67005"/>
<path d="M243.422 338.603L239.547 343.472M239.547 343.472L247.946 356.764C248.557 357.73 247.713 358.79 246.634 358.412L231.797 353.209M239.547 343.472L231.087 341.8M239.547 343.472L231.797 353.209M231.797 353.209L227.922 358.078M231.797 353.209L227.917 345.783M244.608 339.611L248.942 356.66C249.315 358.127 248.267 359.412 246.751 359.346L229.484 358.603C228.36 358.555 227.325 357.764 226.979 356.688L225.123 350.934C224.886 350.199 225.007 349.439 225.451 348.882L234.258 337.816C234.701 337.259 235.415 336.97 236.184 337.036L242.166 337.55C243.311 337.648 244.326 338.505 244.608 339.611Z" stroke="#B1B1B1" stroke-width="1.67005"/>
<path d="M345.422 626.603L341.547 631.472M341.547 631.472L349.946 644.764C350.557 645.73 349.713 646.79 348.634 646.412L333.797 641.209M341.547 631.472L333.087 629.8M341.547 631.472L333.797 641.209M333.797 641.209L329.922 646.078M333.797 641.209L329.917 633.783M346.608 627.611L350.942 644.66C351.315 646.127 350.267 647.412 348.751 647.346L331.484 646.603C330.36 646.555 329.325 645.764 328.979 644.688L327.123 638.934C326.886 638.199 327.007 637.439 327.451 636.882L336.258 625.816C336.701 625.259 337.415 624.97 338.184 625.036L344.166 625.55C345.311 625.648 346.326 626.505 346.608 627.611Z" stroke="#B1B1B1" stroke-width="1.67005"/>
<path d="M125.315 201.603L129.19 206.472M129.19 206.472L120.79 219.764C120.18 220.73 121.023 221.79 122.102 221.412L136.94 216.209M129.19 206.472L137.649 204.8M129.19 206.472L136.94 216.209M136.94 216.209L140.814 221.078M136.94 216.209L140.819 208.783M124.129 202.611L119.794 219.66C119.421 221.127 120.469 222.412 121.985 222.346L139.253 221.603C140.376 221.555 141.411 220.764 141.758 219.688L143.614 213.934C143.85 213.199 143.729 212.439 143.285 211.882L134.479 200.816C134.035 200.259 133.321 199.97 132.552 200.036L126.57 200.55C125.425 200.648 124.41 201.505 124.129 202.611Z" stroke="#B1B1B1" stroke-width="1.67005"/>
<path d="M157.422 446.603L153.547 451.472M153.547 451.472L161.946 464.764C162.557 465.73 161.713 466.79 160.634 466.412L145.797 461.209M153.547 451.472L145.087 449.8M153.547 451.472L145.797 461.209M145.797 461.209L141.922 466.078M145.797 461.209L141.917 453.783M158.608 447.611L162.942 464.66C163.315 466.127 162.267 467.412 160.751 467.346L143.484 466.603C142.36 466.555 141.325 465.764 140.979 464.688L139.123 458.934C138.886 458.199 139.007 457.439 139.451 456.882L148.258 445.816C148.701 445.259 149.415 444.97 150.184 445.036L156.166 445.55C157.311 445.648 158.326 446.505 158.608 447.611Z" stroke="#B1B1B1" stroke-width="1.67005"/>
<path d="M259.422 734.603L255.547 739.472M255.547 739.472L263.946 752.764C264.557 753.73 263.713 754.79 262.634 754.412L247.797 749.209M255.547 739.472L247.087 737.8M255.547 739.472L247.797 749.209M247.797 749.209L243.922 754.078M247.797 749.209L243.917 741.783M260.608 735.611L264.942 752.66C265.315 754.127 264.267 755.412 262.751 755.346L245.484 754.603C244.36 754.555 243.325 753.764 242.979 752.688L241.123 746.934C240.886 746.199 241.007 745.439 241.451 744.882L250.258 733.816C250.701 733.259 251.415 732.97 252.184 733.036L258.166 733.55C259.311 733.648 260.326 734.505 260.608 735.611Z" stroke="#B1B1B1" stroke-width="1.67005"/>
<path d="M289.309 61.3354L291.588 55.5453M291.588 55.5453L307.299 56.1733C308.441 56.2189 308.937 54.9588 308.07 54.2135L296.146 43.965M291.588 55.5453L285.91 49.0552M291.588 55.5453L296.146 43.965M296.146 43.965L298.425 38.1748M296.146 43.965L287.775 44.3178M290.775 61.8586L307.707 57.088C309.164 56.6775 309.752 55.1275 308.938 53.8474L299.66 39.265C299.057 38.3161 297.854 37.8155 296.749 38.0529L290.838 39.3228C290.084 39.485 289.486 39.9704 289.225 40.6332L284.046 53.7926C283.785 54.4553 283.891 55.218 284.333 55.8511L287.769 60.7747C288.427 61.7174 289.676 62.168 290.775 61.8586Z" stroke="#B1B1B1" stroke-width="1.67005"/>
<path d="M-6.57295 306.335L-8.85183 300.545M-8.85183 300.545L-24.5626 301.173C-25.7051 301.219 -26.201 299.959 -25.3339 299.214L-13.4096 288.965M-8.85183 300.545L-3.17398 294.055M-8.85183 300.545L-13.4096 288.965M-13.4096 288.965L-15.6885 283.175M-13.4096 288.965L-5.03851 289.318M-8.03835 306.859L-24.9703 302.088C-26.4272 301.677 -27.0161 300.128 -26.2017 298.847L-16.9241 284.265C-16.3204 283.316 -15.1181 282.815 -14.013 283.053L-8.10206 284.323C-7.34726 284.485 -6.74954 284.97 -6.48871 285.633L-1.30944 298.793C-1.04861 299.455 -1.15511 300.218 -1.5969 300.851L-5.03268 305.775C-5.69055 306.717 -6.94004 307.168 -8.03835 306.859Z" stroke="#B1B1B1" stroke-width="1.67005"/>
<path d="M95.427 594.335L93.1482 588.545M93.1482 588.545L77.4374 589.173C76.2949 589.219 75.799 587.959 76.6661 587.214L88.5904 576.965M93.1482 588.545L98.826 582.055M93.1482 588.545L88.5904 576.965M88.5904 576.965L86.3115 571.175M88.5904 576.965L96.9615 577.318M93.9617 594.859L77.0297 590.088C75.5728 589.677 74.9839 588.128 75.7983 586.847L85.0759 572.265C85.6796 571.316 86.8819 570.815 87.987 571.053L93.8979 572.323C94.6527 572.485 95.2505 572.97 95.5113 573.633L100.691 586.793C100.951 587.455 100.845 588.218 100.403 588.851L96.9673 593.775C96.3095 594.717 95.06 595.168 93.9617 594.859Z" stroke="#B1B1B1" stroke-width="1.67005"/>
<path d="M322.427 355.335L320.148 349.545M320.148 349.545L304.437 350.173C303.295 350.219 302.799 348.959 303.666 348.214L315.59 337.965M320.148 349.545L325.826 343.055M320.148 349.545L315.59 337.965M315.59 337.965L313.312 332.175M315.59 337.965L323.961 338.318M320.962 355.859L304.03 351.088C302.573 350.677 301.984 349.128 302.798 347.847L312.076 333.265C312.68 332.316 313.882 331.815 314.987 332.053L320.898 333.323C321.653 333.485 322.25 333.97 322.511 334.633L327.691 347.793C327.951 348.455 327.845 349.218 327.403 349.851L323.967 354.775C323.309 355.717 322.06 356.168 320.962 355.859Z" stroke="#B1B1B1" stroke-width="1.67005"/>
<path d="M373.309 169.335L375.588 163.545M375.588 163.545L391.299 164.173C392.441 164.219 392.937 162.959 392.07 162.214L380.146 151.965M375.588 163.545L369.91 157.055M375.588 163.545L380.146 151.965M380.146 151.965L382.425 146.175M380.146 151.965L371.775 152.318M374.775 169.859L391.707 165.088C393.164 164.677 393.752 163.128 392.938 161.847L383.66 147.265C383.057 146.316 381.854 145.815 380.749 146.053L374.838 147.323C374.084 147.485 373.486 147.97 373.225 148.633L368.046 161.793C367.785 162.455 367.891 163.218 368.333 163.851L371.769 168.775C372.427 169.717 373.676 170.168 374.775 169.859Z" stroke="#B1B1B1" stroke-width="1.67005"/>
<path d="M11.427 702.335L9.14817 696.545M9.14817 696.545L-6.56256 697.173C-7.70506 697.219 -8.201 695.959 -7.33386 695.214L4.59041 684.965M9.14817 696.545L14.826 690.055M9.14817 696.545L4.59041 684.965M4.59041 684.965L2.31154 679.175M4.59041 684.965L12.9615 685.318M9.96165 702.859L-6.97028 698.088C-8.42718 697.677 -9.01614 696.128 -8.20167 694.847L1.07588 680.265C1.67962 679.316 2.88188 678.815 3.98704 679.053L9.89794 680.323C10.6527 680.485 11.2505 680.97 11.5113 681.633L16.6906 694.793C16.9514 695.455 16.8449 696.218 16.4031 696.851L12.9673 701.775C12.3095 702.717 11.06 703.168 9.96165 702.859Z" stroke="#B1B1B1" stroke-width="1.67005"/>
<path d="M238.427 463.335L236.148 457.545M236.148 457.545L220.437 458.173C219.295 458.219 218.799 456.959 219.666 456.214L231.59 445.965M236.148 457.545L241.826 451.055M236.148 457.545L231.59 445.965M231.59 445.965L229.312 440.175M231.59 445.965L239.961 446.318M236.962 463.859L220.03 459.088C218.573 458.677 217.984 457.128 218.798 455.847L228.076 441.265C228.68 440.316 229.882 439.815 230.987 440.053L236.898 441.323C237.653 441.485 238.25 441.97 238.511 442.633L243.691 455.793C243.951 456.455 243.845 457.218 243.403 457.851L239.967 462.775C239.309 463.717 238.06 464.168 236.962 463.859Z" stroke="#B1B1B1" stroke-width="1.67005"/>
<path d="M376.804 719.128L370.592 718.757M370.592 718.757L364.549 733.273C364.109 734.328 362.757 734.248 362.446 733.147L358.17 718.017M370.592 718.757L367.095 710.875M370.592 718.757L358.17 718.017M358.17 718.017L351.958 717.647M358.17 718.017L362.013 710.572M376.662 720.677L365.207 734.028C364.221 735.176 362.567 735.058 361.749 733.78L352.427 719.226C351.82 718.279 351.872 716.978 352.553 716.076L356.193 711.248C356.658 710.632 357.35 710.294 358.061 710.337L372.178 711.178C372.889 711.22 373.535 711.638 373.924 712.305L376.944 717.495C377.522 718.488 377.405 719.811 376.662 720.677Z" stroke="#B1B1B1" stroke-width="1.67005"/>
<path d="M178.513 857.136L181.939 851.942M181.939 851.942L172.39 839.45C171.696 838.542 172.442 837.412 173.55 837.692L188.792 841.554M181.939 851.942L190.514 852.855M181.939 851.942L188.792 841.554M188.792 841.554L192.218 836.36M188.792 841.554L193.317 848.605M177.242 856.238L171.408 839.643C170.906 838.215 171.835 836.842 173.351 836.772L190.616 835.976C191.739 835.924 192.84 836.62 193.282 837.66L195.642 843.226C195.943 843.937 195.89 844.705 195.498 845.3L187.71 857.105C187.318 857.699 186.633 858.051 185.861 858.053L179.857 858.074C178.708 858.078 177.62 857.315 177.242 856.238Z" stroke="#B1B1B1" stroke-width="1.67005"/>
<path d="M304.791 725.47L302.826 731.374M302.826 731.374L315.282 740.969C316.188 741.666 315.761 742.951 314.617 742.967L298.895 743.182M302.826 731.374L294.307 732.712M302.826 731.374L298.895 743.182M298.895 743.182L296.93 749.086M298.895 743.182L292.699 737.542M306.251 726.008L316.182 740.528C317.036 741.778 316.494 743.345 315.048 743.804L298.577 749.042C297.506 749.383 296.262 748.996 295.566 748.105L291.846 743.339C291.371 742.731 291.224 741.975 291.449 741.299L295.915 727.881C296.14 727.205 296.711 726.689 297.456 726.486L303.25 724.912C304.359 724.611 305.607 725.067 306.251 726.008Z" stroke="#B1B1B1" stroke-width="1.67005"/>
<path d="M261.157 856.451L259.191 862.355M259.191 862.355L271.648 871.95C272.553 872.647 272.126 873.932 270.982 873.948L255.261 874.163M259.191 862.355L250.672 863.693M259.191 862.355L255.261 874.163M255.261 874.163L253.295 880.067M255.261 874.163L249.064 868.523M262.616 856.989L272.547 871.509C273.402 872.759 272.859 874.326 271.413 874.785L254.943 880.023C253.871 880.364 252.627 879.977 251.932 879.086L248.211 874.32C247.736 873.712 247.589 872.956 247.814 872.28L252.28 858.862C252.505 858.186 253.076 857.67 253.821 857.467L259.615 855.893C260.725 855.592 261.972 856.048 262.616 856.989Z" stroke="#B1B1B1" stroke-width="1.67005"/>
<path d="M212.651 805.383L208.521 800.729M208.521 800.729L193.983 806.719C192.926 807.154 192.027 806.142 192.585 805.144L200.26 791.421M208.521 800.729L211.622 792.682M208.521 800.729L200.26 791.421M200.26 791.421L196.13 786.767M200.26 791.421L208.242 788.874M211.455 806.378L193.915 807.718C192.405 807.833 191.32 806.58 191.644 805.098L195.344 788.215C195.585 787.117 196.542 786.233 197.661 786.076L203.648 785.237C204.413 785.13 205.141 785.38 205.614 785.913L215.001 796.49C215.474 797.023 215.636 797.776 215.439 798.522L213.905 804.327C213.611 805.438 212.592 806.291 211.455 806.378Z" stroke="#B1B1B1" stroke-width="1.67005"/>
<path d="M315.864 788.29L309.653 787.92M309.653 787.92L303.609 802.435C303.17 803.49 301.818 803.41 301.507 802.31L297.23 787.179M309.653 787.92L306.156 780.037M309.653 787.92L297.23 787.179M297.23 787.179L291.019 786.809M297.23 787.179L301.074 779.734M315.722 789.839L304.267 803.19C303.282 804.338 301.628 804.22 300.809 802.943L291.487 788.389C290.881 787.441 290.933 786.14 291.613 785.238L295.253 780.411C295.718 779.794 296.41 779.456 297.121 779.499L311.238 780.34C311.949 780.383 312.596 780.8 312.984 781.467L316.004 786.657C316.582 787.65 316.465 788.973 315.722 789.839Z" stroke="#B1B1B1" stroke-width="1.67005"/>
<path d="M138.019 795.965L141.445 790.771M141.445 790.771L131.896 778.279C131.202 777.371 131.948 776.24 133.056 776.521L148.298 780.383M141.445 790.771L150.02 791.684M141.445 790.771L148.298 780.383M148.298 780.383L151.724 775.188M148.298 780.383L152.823 787.434M136.748 795.067L130.913 778.472C130.411 777.044 131.341 775.67 132.856 775.601L150.122 774.805C151.245 774.753 152.346 775.448 152.787 776.489L155.148 782.055C155.449 782.766 155.396 783.534 155.004 784.129L147.216 795.933C146.824 796.528 146.139 796.879 145.367 796.882L139.363 796.903C138.213 796.907 137.126 796.144 136.748 795.067Z" stroke="#B1B1B1" stroke-width="1.67005"/>
<path d="M361.438 775.492L359.473 781.396M359.473 781.396L371.929 790.991C372.835 791.689 372.407 792.974 371.264 792.989L355.542 793.204M359.473 781.396L350.954 782.734M359.473 781.396L355.542 793.204M355.542 793.204L353.577 799.108M355.542 793.204L349.346 787.564M362.898 776.031L372.828 790.551C373.683 791.8 373.141 793.367 371.695 793.827L355.224 799.064C354.152 799.405 352.909 799.018 352.213 798.127L348.492 793.362C348.017 792.753 347.87 791.997 348.095 791.321L352.562 777.903C352.787 777.228 353.357 776.711 354.102 776.508L359.896 774.935C361.006 774.633 362.253 775.089 362.898 776.031Z" stroke="#B1B1B1" stroke-width="1.67005"/>
<path d="M115.585 831.125L111.454 826.471M111.454 826.471L96.9168 832.461C95.8596 832.897 94.9607 831.884 95.5189 830.886L103.194 817.163M111.454 826.471L114.555 818.424M111.454 826.471L103.194 817.163M103.194 817.163L99.0633 812.509M103.194 817.163L111.176 814.617M114.388 832.12L96.8483 833.46C95.3391 833.575 94.2533 832.322 94.5781 830.84L98.2777 813.957C98.5184 812.859 99.4754 811.975 100.595 811.818L106.582 810.979C107.347 810.872 108.075 811.122 108.547 811.655L117.935 822.232C118.407 822.765 118.57 823.518 118.372 824.264L116.838 830.069C116.545 831.18 115.526 832.033 114.388 832.12Z" stroke="#B1B1B1" stroke-width="1.67005"/>
</g>
</g>
<defs>
<clipPath id="clip0_1_13079">
<rect width="402" height="874" rx="32" fill="white"/>
</clipPath>
</defs>
</svg>
