<svg width="402" height="874" viewBox="0 0 402 874" fill="none" xmlns="http://www.w3.org/2000/svg">
<g opacity="0.1">
<g clip-path="url(#clip0_1_12794)">
<path d="M284.997 -24.0734L294.683 -7.29622M290.619 -4.80022C288.395 -1.97339 295.205 1.80816 294.669 -7.13843M298.798 -9.52269C302.358 -10.0354 302.228 -2.2462 294.748 -7.18417M280.885 -9.8202L276.609 -17.2253C275.945 -18.3755 276.339 -19.8463 277.49 -20.5104L291.837 -28.7938C292.987 -29.4579 294.458 -29.0638 295.122 -27.9136L299.397 -20.5085C300.061 -19.3583 299.667 -17.8875 298.517 -17.2234L284.17 -8.93996C283.02 -8.27587 281.549 -8.66997 280.885 -9.8202ZM283.068 -3.36672L282.132 -4.98658C281.468 -6.13681 281.862 -7.60761 283.013 -8.27169L299.674 -17.8912C300.824 -18.5553 302.295 -18.1612 302.959 -17.0109L303.894 -15.3911C304.558 -14.2408 304.164 -12.77 303.014 -12.106L286.353 -2.48647C285.202 -1.82239 283.732 -2.21649 283.068 -3.36672Z" stroke="#B1B1B1" stroke-width="1.67005"/>
<path d="M367.081 829.884C367.635 828.516 369.193 827.856 370.561 828.41L374.276 829.913C375.644 830.466 376.305 832.024 375.751 833.392C375.198 834.76 373.64 835.42 372.272 834.867L368.556 833.364C367.188 832.81 366.528 831.252 367.081 829.884ZM367.081 829.884L366.722 829.739C365.438 829.22 364.764 827.805 365.169 826.481L367.661 818.337C368.066 817.012 367.392 815.597 366.108 815.078L364.662 814.493C363.293 813.939 361.736 814.599 361.182 815.967L360.61 817.383M358.383 833.572L363.394 821.186C363.948 819.818 363.288 818.261 361.92 817.707L359.442 816.705C358.074 816.152 356.517 816.812 355.963 818.18L350.952 830.565C350.399 831.933 351.059 833.491 352.427 834.044L354.904 835.046C356.272 835.6 357.83 834.94 358.383 833.572Z" stroke="#B1B1B1" stroke-width="1.67005"/>
<path d="M24.6803 581.884C24.1268 580.516 22.5691 579.856 21.2011 580.41L17.4855 581.913C16.1175 582.466 15.4572 584.024 16.0107 585.392C16.5642 586.76 18.1219 587.42 19.4899 586.867L23.2054 585.364C24.5735 584.81 25.2338 583.252 24.6803 581.884ZM24.6803 581.884L25.0396 581.739C26.3236 581.22 26.9976 579.805 26.5924 578.481L24.1009 570.337C23.6957 569.012 24.3698 567.597 25.6538 567.078L27.1002 566.493C28.4682 565.939 30.026 566.599 30.5795 567.967L31.1521 569.383M33.3783 585.572L28.3674 573.186C27.8139 571.818 28.4742 570.261 29.8422 569.707L32.3192 568.705C33.6872 568.152 35.2449 568.812 35.7984 570.18L40.8093 582.565C41.3628 583.933 40.7025 585.491 39.3345 586.044L36.8575 587.046C35.4895 587.6 33.9318 586.94 33.3783 585.572Z" stroke="#B1B1B1" stroke-width="1.67005"/>
<path d="M25.6803 200.644C25.1268 202.012 23.5691 202.672 22.2011 202.119L18.4855 200.615C17.1175 200.062 16.4572 198.504 17.0107 197.136C17.5642 195.768 19.1219 195.108 20.4899 195.661L24.2054 197.165C25.5735 197.718 26.2338 199.276 25.6803 200.644ZM25.6803 200.644L26.0396 200.789C27.3236 201.309 27.9976 202.723 27.5924 204.048L25.1009 212.192C24.6957 213.516 25.3698 214.931 26.6538 215.45L28.1002 216.036C29.4682 216.589 31.026 215.929 31.5795 214.561L32.1521 213.146M34.3783 196.957L29.3674 209.342C28.8139 210.71 29.4742 212.268 30.8422 212.821L33.3192 213.823C34.6872 214.377 36.2449 213.716 36.7984 212.348L41.8093 199.963C42.3628 198.595 41.7025 197.038 40.3345 196.484L37.8575 195.482C36.4895 194.928 34.9318 195.589 34.3783 196.957Z" stroke="#B1B1B1" stroke-width="1.67005"/>
<path d="M52.0547 824.844C50.6972 824.265 50.0661 822.695 50.6449 821.338L52.2172 817.651C52.7961 816.293 54.3658 815.662 55.7232 816.241C57.0807 816.82 57.7119 818.39 57.133 819.747L55.5608 823.434C54.9819 824.791 53.4122 825.423 52.0547 824.844ZM52.0547 824.844L51.9029 825.2C51.3595 826.474 49.9326 827.122 48.6159 826.692L40.5196 824.049C39.2028 823.619 37.7759 824.267 37.2325 825.541L36.6204 826.976C36.0415 828.334 36.6726 829.904 38.0301 830.483L39.4346 831.082M55.5791 833.609L43.2895 828.368C41.932 827.789 40.3623 828.42 39.7834 829.778L38.7353 832.236C38.1564 833.593 38.7876 835.163 40.1451 835.742L52.4347 840.983C53.7921 841.561 55.3619 840.93 55.9407 839.573L56.9889 837.115C57.5678 835.757 56.9366 834.188 55.5791 833.609Z" stroke="#B1B1B1" stroke-width="1.67005"/>
<path d="M339.707 576.844C341.064 576.265 341.696 574.695 341.117 573.338L339.545 569.651C338.966 568.293 337.396 567.662 336.038 568.241C334.681 568.82 334.05 570.39 334.629 571.747L336.201 575.434C336.78 576.791 338.35 577.423 339.707 576.844ZM339.707 576.844L339.859 577.2C340.402 578.474 341.829 579.122 343.146 578.692L351.242 576.049C352.559 575.619 353.986 576.267 354.529 577.541L355.141 578.976C355.72 580.334 355.089 581.904 353.732 582.483L352.327 583.082M336.183 585.609L348.472 580.368C349.83 579.789 351.399 580.42 351.978 581.778L353.026 584.236C353.605 585.593 352.974 587.163 351.617 587.742L339.327 592.983C337.97 593.561 336.4 592.93 335.821 591.573L334.773 589.115C334.194 587.757 334.825 586.188 336.183 585.609Z" stroke="#B1B1B1" stroke-width="1.67005"/>
<path d="M340.707 205.685C342.064 206.264 342.696 207.833 342.117 209.191L340.545 212.878C339.966 214.235 338.396 214.866 337.038 214.287C335.681 213.709 335.05 212.139 335.629 210.781L337.201 207.094C337.78 205.737 339.35 205.106 340.707 205.685ZM340.707 205.685L340.859 205.328C341.402 204.054 342.829 203.406 344.146 203.836L352.242 206.479C353.559 206.909 354.986 206.261 355.529 204.987L356.141 203.552C356.72 202.194 356.089 200.625 354.732 200.046L353.327 199.447M337.183 196.919L349.472 202.16C350.83 202.739 352.399 202.108 352.978 200.75L354.026 198.293C354.605 196.935 353.974 195.365 352.617 194.786L340.327 189.546C338.97 188.967 337.4 189.598 336.821 190.955L335.773 193.413C335.194 194.771 335.825 196.341 337.183 196.919Z" stroke="#B1B1B1" stroke-width="1.67005"/>
<path d="M119.179 866.271C119.754 864.912 121.322 864.276 122.681 864.851L126.372 866.413C127.731 866.988 128.367 868.556 127.792 869.915C127.217 871.274 125.649 871.91 124.29 871.335L120.599 869.773C119.24 869.198 118.604 867.63 119.179 866.271ZM119.179 866.271L118.822 866.12C117.546 865.581 116.895 864.156 117.321 862.838L119.941 854.734C120.367 853.416 119.715 851.991 118.439 851.451L117.002 850.843C115.643 850.268 114.075 850.904 113.5 852.263L112.905 853.669M110.424 869.821L115.63 857.516C116.205 856.157 115.569 854.589 114.21 854.014L111.749 852.973C110.39 852.398 108.822 853.033 108.247 854.393L103.041 866.697C102.466 868.056 103.102 869.624 104.461 870.199L106.922 871.24C108.281 871.815 109.849 871.18 110.424 869.821Z" stroke="#B1B1B1" stroke-width="1.67005"/>
<path d="M272.583 618.271C272.008 616.912 270.44 616.276 269.081 616.851L265.389 618.413C264.03 618.988 263.395 620.556 263.97 621.915C264.545 623.274 266.113 623.91 267.472 623.335L271.163 621.773C272.522 621.198 273.158 619.63 272.583 618.271ZM272.583 618.271L272.94 618.12C274.215 617.581 274.867 616.156 274.441 614.838L271.821 606.734C271.395 605.416 272.047 603.991 273.322 603.451L274.759 602.843C276.119 602.268 277.687 602.904 278.262 604.263L278.857 605.669M281.338 621.821L276.132 609.516C275.557 608.157 276.193 606.589 277.552 606.014L280.013 604.973C281.372 604.398 282.94 605.033 283.515 606.393L288.721 618.697C289.296 620.056 288.66 621.624 287.301 622.199L284.84 623.24C283.481 623.815 281.913 623.18 281.338 621.821Z" stroke="#B1B1B1" stroke-width="1.67005"/>
<path d="M273.583 164.257C273.008 165.616 271.44 166.252 270.081 165.677L266.389 164.115C265.03 163.54 264.395 161.972 264.97 160.613C265.545 159.254 267.113 158.618 268.472 159.193L272.163 160.755C273.522 161.33 274.158 162.898 273.583 164.257ZM273.583 164.257L273.94 164.408C275.215 164.948 275.867 166.373 275.441 167.691L272.821 175.795C272.395 177.112 273.047 178.538 274.322 179.077L275.759 179.685C277.119 180.26 278.687 179.625 279.262 178.266L279.857 176.86M282.338 160.708L277.132 173.012C276.557 174.371 277.193 175.939 278.552 176.514L281.013 177.555C282.372 178.131 283.94 177.495 284.515 176.136L289.721 163.831C290.296 162.472 289.66 160.904 288.301 160.329L285.84 159.288C284.481 158.713 282.913 159.349 282.338 160.708Z" stroke="#B1B1B1" stroke-width="1.67005"/>
<path d="M347.819 122.257C347.244 123.616 345.676 124.252 344.317 123.677L340.626 122.115C339.266 121.54 338.631 119.972 339.206 118.613C339.781 117.254 341.349 116.618 342.708 117.193L346.399 118.755C347.758 119.33 348.394 120.898 347.819 122.257ZM347.819 122.257L348.176 122.408C349.452 122.948 350.103 124.373 349.677 125.691L347.057 133.795C346.631 135.112 347.283 136.538 348.559 137.077L349.996 137.685C351.355 138.26 352.923 137.625 353.498 136.266L354.093 134.86M356.574 118.708L351.368 131.012C350.793 132.371 351.429 133.939 352.788 134.514L355.249 135.555C356.608 136.131 358.176 135.495 358.751 134.136L363.957 121.831C364.532 120.472 363.896 118.904 362.537 118.329L360.076 117.288C358.717 116.713 357.149 117.349 356.574 118.708Z" stroke="#B1B1B1" stroke-width="1.67005"/>
<path d="M219.356 542.236C219.866 540.851 219.156 539.315 217.771 538.806L214.009 537.422C212.624 536.913 211.088 537.623 210.579 539.008C210.07 540.393 210.779 541.929 212.164 542.438L215.926 543.822C217.311 544.331 218.847 543.621 219.356 542.236ZM219.356 542.236L219.72 542.37C221.02 542.848 222.47 542.254 223.06 541L226.688 533.295C227.278 532.042 228.727 531.447 230.027 531.925L231.492 532.464C232.877 532.973 233.587 534.509 233.077 535.894L232.55 537.327M223.32 550.812L227.932 538.273C228.441 536.888 229.977 536.178 231.362 536.687L233.87 537.61C235.255 538.119 235.965 539.655 235.455 541.04L230.843 553.579C230.334 554.964 228.798 555.674 227.413 555.164L224.905 554.242C223.52 553.733 222.81 552.197 223.32 550.812Z" stroke="#B1B1B1" stroke-width="1.67005"/>
<path d="M220.356 240.292C220.866 241.677 220.156 243.213 218.771 243.722L215.009 245.106C213.624 245.615 212.088 244.906 211.579 243.521C211.07 242.136 211.779 240.6 213.164 240.09L216.926 238.707C218.311 238.197 219.847 238.907 220.356 240.292ZM220.356 240.292L220.72 240.158C222.02 239.68 223.47 240.275 224.06 241.528L227.688 249.233C228.278 250.486 229.727 251.081 231.027 250.603L232.492 250.064C233.877 249.555 234.587 248.019 234.077 246.634L233.55 245.201M224.32 231.717L228.932 244.256C229.441 245.641 230.977 246.351 232.362 245.841L234.87 244.919C236.255 244.409 236.965 242.873 236.455 241.488L231.843 228.949C231.334 227.564 229.798 226.855 228.413 227.364L225.905 228.286C224.52 228.796 223.81 230.332 224.32 231.717Z" stroke="#B1B1B1" stroke-width="1.67005"/>
<path d="M347.657 463.69C349.009 464.282 350.585 463.666 351.177 462.314L352.784 458.642C353.375 457.29 352.759 455.714 351.407 455.123C350.055 454.531 348.48 455.147 347.888 456.499L346.281 460.171C345.689 461.523 346.305 463.099 347.657 463.69ZM347.657 463.69L347.502 464.045C346.947 465.314 347.453 466.797 348.668 467.461L356.142 471.545C357.358 472.209 357.864 473.692 357.309 474.961L356.683 476.391C356.091 477.743 354.516 478.359 353.164 477.767L351.765 477.155M338.859 467.132L351.099 472.488C352.451 473.08 353.067 474.656 352.475 476.008L351.404 478.456C350.812 479.807 349.237 480.424 347.885 479.832L335.645 474.475C334.293 473.884 333.677 472.308 334.269 470.956L335.34 468.508C335.932 467.156 337.507 466.54 338.859 467.132Z" stroke="#B1B1B1" stroke-width="1.67005"/>
<path d="M159.453 609.999C160.048 608.648 159.436 607.071 158.086 606.475L154.419 604.858C153.069 604.262 151.491 604.874 150.896 606.225C150.3 607.575 150.912 609.152 152.262 609.748L155.929 611.365C157.28 611.961 158.857 611.349 159.453 609.999ZM159.453 609.999L159.807 610.155C161.074 610.714 162.559 610.212 163.226 608.998L167.332 601.536C167.999 600.323 169.484 599.821 170.751 600.379L172.179 601.009C173.529 601.605 174.141 603.182 173.545 604.532L172.929 605.929M162.869 618.807L168.26 606.582C168.856 605.232 170.433 604.62 171.784 605.216L174.228 606.294C175.579 606.89 176.19 608.467 175.595 609.817L170.203 622.041C169.608 623.392 168.03 624.004 166.68 623.408L164.235 622.33C162.885 621.734 162.273 620.157 162.869 618.807Z" stroke="#B1B1B1" stroke-width="1.67005"/>
<path d="M160.453 172.53C161.048 173.88 160.436 175.457 159.086 176.053L155.419 177.67C154.069 178.266 152.491 177.654 151.896 176.304C151.3 174.954 151.912 173.376 153.262 172.781L156.929 171.163C158.28 170.568 159.857 171.179 160.453 172.53ZM160.453 172.53L160.807 172.373C162.074 171.814 163.559 172.316 164.226 173.53L168.332 180.992C168.999 182.206 170.484 182.708 171.751 182.149L173.179 181.519C174.529 180.924 175.141 179.346 174.545 177.996L173.929 176.599M163.869 163.722L169.26 175.946C169.856 177.296 171.433 177.908 172.784 177.312L175.228 176.234C176.579 175.639 177.19 174.061 176.595 172.711L171.203 160.487C170.608 159.137 169.03 158.525 167.68 159.12L165.235 160.199C163.885 160.794 163.273 162.372 163.869 163.722Z" stroke="#B1B1B1" stroke-width="1.67005"/>
<path d="M249.319 706.862C247.961 706.283 247.329 704.714 247.907 703.356L249.478 699.669C250.057 698.311 251.626 697.679 252.984 698.258C254.342 698.836 254.973 700.405 254.395 701.763L252.824 705.451C252.246 706.808 250.676 707.44 249.319 706.862ZM249.319 706.862L249.167 707.218C248.624 708.493 247.197 709.141 245.881 708.711L237.783 706.072C236.466 705.642 235.04 706.291 234.497 707.565L233.885 709C233.307 710.358 233.938 711.928 235.296 712.506L236.701 713.104M252.846 715.626L240.555 710.39C239.197 709.811 237.628 710.443 237.049 711.801L236.002 714.259C235.424 715.617 236.055 717.186 237.413 717.764L249.705 723.001C251.062 723.579 252.632 722.947 253.21 721.589L254.258 719.131C254.836 717.773 254.204 716.204 252.846 715.626Z" stroke="#B1B1B1" stroke-width="1.67005"/>
<path d="M28.2694 348.84C29.6271 348.262 30.2588 346.692 29.6805 345.335L28.1097 341.647C27.5313 340.29 25.9618 339.658 24.6041 340.236C23.2464 340.815 22.6147 342.384 23.193 343.742L24.7638 347.429C25.3422 348.787 26.9117 349.419 28.2694 348.84ZM28.2694 348.84L28.421 349.197C28.964 350.471 30.3906 351.119 31.7074 350.69L39.8048 348.05C41.1217 347.621 42.5484 348.269 43.0913 349.544L43.7028 350.979C44.2813 352.337 43.6495 353.906 42.2918 354.485L40.8871 355.083M24.7416 357.604L37.0332 352.368C38.3909 351.79 39.9604 352.422 40.5387 353.779L41.5859 356.238C42.1643 357.595 41.5325 359.165 40.1748 359.743L27.8832 364.979C26.5255 365.557 24.956 364.926 24.3777 363.568L23.3305 361.11C22.7521 359.752 23.3839 358.182 24.7416 357.604Z" stroke="#B1B1B1" stroke-width="1.67005"/>
<path d="M143.443 323.667C144.801 324.245 145.433 325.814 144.854 327.172L143.283 330.86C142.705 332.217 141.136 332.849 139.778 332.271C138.42 331.692 137.788 330.123 138.367 328.765L139.938 325.078C140.516 323.72 142.085 323.088 143.443 323.667ZM143.443 323.667L143.595 323.31C144.138 322.036 145.564 321.388 146.881 321.817L154.979 324.457C156.295 324.886 157.722 324.238 158.265 322.963L158.877 321.528C159.455 320.17 158.823 318.601 157.466 318.022L156.061 317.424M139.915 314.903L152.207 320.139C153.565 320.717 155.134 320.085 155.712 318.728L156.76 316.269C157.338 314.912 156.706 313.342 155.349 312.764L143.057 307.528C141.699 306.949 140.13 307.581 139.551 308.939L138.504 311.397C137.926 312.755 138.558 314.324 139.915 314.903Z" stroke="#B1B1B1" stroke-width="1.67005"/>
<path d="M98.3077 728.94C96.9394 728.387 96.2784 726.829 96.8312 725.461L98.3327 721.745C98.8855 720.377 100.443 719.716 101.811 720.268C103.179 720.821 103.841 722.379 103.288 723.747L101.786 727.463C101.233 728.831 99.676 729.492 98.3077 728.94ZM98.3077 728.94L98.1628 729.299C97.6438 730.583 96.2296 731.258 94.9049 730.853L86.7595 728.366C85.4348 727.961 84.0206 728.636 83.5016 729.92L82.917 731.367C82.3641 732.735 83.0252 734.293 84.3935 734.846L85.8091 735.418M101.999 737.636L89.6115 732.631C88.2432 732.078 86.6859 732.739 86.133 734.107L85.1321 736.585C84.5792 737.953 85.2403 739.511 86.6086 740.063L98.9961 745.068C100.364 745.621 101.922 744.96 102.475 743.592L103.476 741.114C104.028 739.746 103.367 738.189 101.999 737.636Z" stroke="#B1B1B1" stroke-width="1.67005"/>
<path d="M293.454 480.94C294.822 480.387 295.483 478.829 294.931 477.461L293.429 473.745C292.876 472.377 291.319 471.716 289.951 472.268C288.582 472.821 287.921 474.379 288.474 475.747L289.975 479.463C290.528 480.831 292.086 481.492 293.454 480.94ZM293.454 480.94L293.599 481.299C294.118 482.583 295.532 483.258 296.857 482.853L305.002 480.366C306.327 479.961 307.741 480.636 308.26 481.92L308.845 483.367C309.398 484.735 308.737 486.293 307.368 486.846L305.953 487.418M289.763 489.636L302.15 484.631C303.518 484.078 305.076 484.739 305.629 486.107L306.63 488.585C307.182 489.953 306.521 491.511 305.153 492.063L292.766 497.068C291.397 497.621 289.84 496.96 289.287 495.592L288.286 493.114C287.733 491.746 288.394 490.189 289.763 489.636Z" stroke="#B1B1B1" stroke-width="1.67005"/>
<path d="M294.454 301.589C295.822 302.142 296.483 303.699 295.931 305.067L294.429 308.783C293.876 310.152 292.319 310.813 290.951 310.26C289.582 309.707 288.921 308.15 289.474 306.781L290.975 303.065C291.528 301.697 293.086 301.036 294.454 301.589ZM294.454 301.589L294.599 301.229C295.118 299.945 296.532 299.27 297.857 299.675L306.002 302.162C307.327 302.567 308.741 301.892 309.26 300.608L309.845 299.161C310.398 297.793 309.737 296.236 308.368 295.683L306.953 295.111M290.763 292.892L303.15 297.897C304.518 298.45 306.076 297.789 306.629 296.421L307.63 293.943C308.182 292.575 307.521 291.018 306.153 290.465L293.766 285.46C292.397 284.907 290.84 285.568 290.287 286.936L289.286 289.414C288.733 290.782 289.394 292.34 290.763 292.892Z" stroke="#B1B1B1" stroke-width="1.67005"/>
<path d="M117.832 510.143C118.368 508.768 117.688 507.219 116.312 506.683L112.578 505.228C111.203 504.692 109.654 505.372 109.118 506.747C108.582 508.122 109.262 509.672 110.638 510.207L114.372 511.663C115.747 512.198 117.296 511.518 117.832 510.143ZM117.832 510.143L118.193 510.284C119.484 510.787 120.944 510.22 121.558 508.978L125.333 501.344C125.947 500.102 127.408 499.535 128.698 500.038L130.152 500.605C131.527 501.14 132.208 502.69 131.672 504.065L131.117 505.487M121.631 518.793L126.482 506.344C127.018 504.969 128.567 504.289 129.942 504.825L132.431 505.795C133.806 506.331 134.487 507.88 133.951 509.255L129.1 521.703C128.564 523.078 127.015 523.759 125.64 523.223L123.15 522.253C121.775 521.717 121.095 520.168 121.631 518.793Z" stroke="#B1B1B1" stroke-width="1.67005"/>
<path d="M118.832 272.385C119.368 273.76 118.688 275.309 117.312 275.845L113.578 277.3C112.203 277.836 110.654 277.156 110.118 275.781C109.582 274.406 110.262 272.857 111.638 272.321L115.372 270.866C116.747 270.33 118.296 271.01 118.832 272.385ZM118.832 272.385L119.193 272.244C120.484 271.742 121.944 272.308 122.558 273.55L126.333 281.185C126.947 282.426 128.408 282.993 129.698 282.49L131.152 281.924C132.527 281.388 133.208 279.839 132.672 278.464L132.117 277.041M122.631 263.735L127.482 276.184C128.018 277.559 129.567 278.239 130.942 277.704L133.431 276.733C134.806 276.198 135.487 274.649 134.951 273.274L130.1 260.825C129.564 259.45 128.015 258.77 126.64 259.305L124.15 260.276C122.775 260.811 122.095 262.36 122.631 263.735Z" stroke="#B1B1B1" stroke-width="1.67005"/>
<path d="M344.728 509.942C345.073 511.377 346.516 512.26 347.951 511.915L351.848 510.978C353.282 510.633 354.166 509.19 353.821 507.755C353.476 506.32 352.033 505.437 350.598 505.782L346.701 506.719C345.266 507.064 344.383 508.507 344.728 509.942ZM344.728 509.942L344.351 510.032C343.004 510.356 342.128 511.656 342.333 513.025L343.593 521.449C343.798 522.818 342.922 524.118 341.575 524.442L340.058 524.807C338.623 525.152 337.18 524.268 336.835 522.833L336.478 521.349M336.671 505.009L339.795 517.999C340.14 519.434 339.257 520.877 337.822 521.222L335.224 521.847C333.789 522.192 332.346 521.308 332.001 519.873L328.877 506.883C328.532 505.449 329.415 504.006 330.85 503.661L333.448 503.036C334.883 502.691 336.326 503.574 336.671 505.009Z" stroke="#B1B1B1" stroke-width="1.67005"/>
<path d="M366.476 274.427C366.821 272.992 368.264 272.108 369.699 272.454L373.596 273.391C375.031 273.736 375.914 275.179 375.569 276.614C375.224 278.048 373.781 278.932 372.346 278.587L368.449 277.65C367.014 277.304 366.131 275.862 366.476 274.427ZM366.476 274.427L366.099 274.336C364.752 274.012 363.877 272.713 364.081 271.343L365.341 262.92C365.546 261.55 364.67 260.251 363.323 259.927L361.806 259.562C360.371 259.217 358.928 260.1 358.583 261.535L358.226 263.02M358.419 279.36L361.543 266.37C361.888 264.935 361.005 263.492 359.57 263.147L356.972 262.522C355.537 262.177 354.094 263.06 353.749 264.495L350.625 277.485C350.28 278.92 351.163 280.363 352.598 280.708L355.196 281.333C356.631 281.678 358.074 280.795 358.419 279.36Z" stroke="#B1B1B1" stroke-width="1.67005"/>
<path d="M205.695 613.06C207.13 612.719 208.018 611.278 207.677 609.843L206.751 605.943C206.41 604.507 204.969 603.62 203.534 603.961C202.098 604.302 201.21 605.742 201.551 607.178L202.477 611.077C202.818 612.513 204.259 613.401 205.695 613.06ZM205.695 613.06L205.784 613.437C206.104 614.785 207.401 615.664 208.771 615.463L217.198 614.228C218.568 614.027 219.865 614.906 220.185 616.254L220.546 617.772C220.887 619.208 219.999 620.648 218.564 620.989L217.078 621.342M200.739 621.103L213.738 618.016C215.173 617.675 216.614 618.562 216.955 619.998L217.572 622.598C217.913 624.034 217.026 625.474 215.59 625.815L202.591 628.902C201.155 629.243 199.715 628.356 199.374 626.92L198.756 624.32C198.415 622.884 199.303 621.444 200.739 621.103Z" stroke="#B1B1B1" stroke-width="1.67005"/>
<path d="M206.695 169.468C208.13 169.809 209.018 171.25 208.677 172.686L207.751 176.585C207.41 178.021 205.969 178.909 204.534 178.568C203.098 178.227 202.21 176.786 202.551 175.35L203.477 171.451C203.818 170.015 205.259 169.127 206.695 169.468ZM206.695 169.468L206.784 169.091C207.104 167.744 208.401 166.864 209.771 167.065L218.198 168.301C219.568 168.502 220.865 167.622 221.185 166.275L221.546 164.756C221.887 163.321 220.999 161.88 219.564 161.539L218.078 161.186M201.739 161.426L214.738 164.513C216.173 164.854 217.614 163.966 217.955 162.53L218.572 159.93C218.913 158.495 218.026 157.054 216.59 156.713L203.591 153.626C202.155 153.285 200.715 154.173 200.374 155.609L199.756 158.208C199.415 159.644 200.303 161.085 201.739 161.426Z" stroke="#B1B1B1" stroke-width="1.67005"/>
<path d="M217.662 740.707C216.381 741.44 214.748 740.996 214.015 739.715L212.026 736.235C211.293 734.954 211.737 733.322 213.018 732.589C214.299 731.857 215.932 732.301 216.665 733.582L218.654 737.061C219.387 738.342 218.943 739.975 217.662 740.707ZM217.662 740.707L217.854 741.044C218.542 742.246 218.197 743.775 217.059 744.565L210.064 749.424C208.926 750.214 208.581 751.742 209.269 752.945L210.044 754.299C210.776 755.58 212.409 756.025 213.69 755.292L215.015 754.534M226.777 743.19L215.179 749.823C213.898 750.555 213.454 752.188 214.186 753.469L215.513 755.788C216.246 757.069 217.878 757.514 219.159 756.781L230.757 750.148C232.038 749.416 232.482 747.783 231.75 746.502L230.423 744.183C229.69 742.902 228.058 742.457 226.777 743.19Z" stroke="#B1B1B1" stroke-width="1.67005"/>
<path d="M174.1 492.707C175.381 493.44 177.014 492.996 177.746 491.715L179.736 488.235C180.469 486.954 180.024 485.322 178.743 484.589C177.462 483.857 175.83 484.301 175.097 485.582L173.107 489.061C172.375 490.342 172.819 491.975 174.1 492.707ZM174.1 492.707L173.908 493.044C173.22 494.246 173.565 495.775 174.703 496.565L181.698 501.424C182.835 502.214 183.18 503.742 182.493 504.945L181.718 506.299C180.986 507.58 179.353 508.025 178.072 507.292L176.747 506.534M164.985 495.19L176.582 501.823C177.863 502.555 178.308 504.188 177.575 505.469L176.249 507.788C175.516 509.069 173.884 509.514 172.603 508.781L161.005 502.148C159.724 501.416 159.279 499.783 160.012 498.502L161.339 496.183C162.071 494.902 163.704 494.457 164.985 495.19Z" stroke="#B1B1B1" stroke-width="1.67005"/>
<path d="M175.1 289.821C176.381 289.088 178.014 289.533 178.746 290.814L180.736 294.293C181.469 295.574 181.024 297.206 179.743 297.939C178.462 298.672 176.83 298.227 176.097 296.946L174.107 293.467C173.375 292.186 173.819 290.553 175.1 289.821ZM175.1 289.821L174.908 289.485C174.22 288.282 174.565 286.754 175.703 285.964L182.698 281.105C183.835 280.315 184.18 278.786 183.493 277.584L182.718 276.229C181.986 274.948 180.353 274.504 179.072 275.236L177.747 275.994M165.985 287.339L177.582 280.706C178.863 279.973 179.308 278.34 178.575 277.059L177.249 274.74C176.516 273.459 174.884 273.014 173.603 273.747L162.005 280.38C160.724 281.113 160.279 282.745 161.012 284.026L162.339 286.346C163.071 287.627 164.704 288.071 165.985 287.339Z" stroke="#B1B1B1" stroke-width="1.67005"/>
<path d="M-8.0527 669.491C-7.24443 670.726 -7.59013 672.382 -8.82484 673.191L-12.1783 675.386C-13.413 676.194 -15.0692 675.848 -15.8775 674.614C-16.6858 673.379 -16.3401 671.723 -15.1053 670.915L-11.7519 668.719C-10.5171 667.911 -8.86098 668.257 -8.0527 669.491ZM-8.0527 669.491L-7.72857 669.279C-6.56965 668.52 -5.02325 668.773 -4.16619 669.861L1.10383 676.552C1.96093 677.64 3.5074 677.893 4.66633 677.134L5.97187 676.279C7.20666 675.471 7.55241 673.815 6.74411 672.58L5.90788 671.303M-6.12235 660.243L1.19521 671.422C2.00348 672.656 3.65965 673.002 4.89437 672.194L7.13002 670.73C8.36474 669.922 8.71044 668.266 7.90216 667.031L0.584605 655.853C-0.22367 654.618 -1.87984 654.273 -3.11456 655.081L-5.35021 656.544C-6.58493 657.353 -6.93063 659.009 -6.12235 660.243Z" stroke="#B1B1B1" stroke-width="1.67005"/>
<path d="M92.0083 662.146C91.6907 663.587 90.265 664.498 88.8238 664.18L84.9096 663.318C83.4684 663 82.5576 661.574 82.8752 660.133C83.1928 658.692 84.6185 657.781 86.0597 658.099L89.9739 658.961C91.4151 659.279 92.3259 660.705 92.0083 662.146ZM92.0083 662.146L92.3869 662.229C93.7395 662.527 94.64 663.809 94.4613 665.183L93.363 673.629C93.1843 675.002 94.0849 676.284 95.4376 676.583L96.9613 676.918C98.4025 677.236 99.8284 676.325 100.146 674.884L100.475 673.393M99.9696 657.06L97.0944 670.107C96.7768 671.548 97.6876 672.974 99.1288 673.291L101.738 673.867C103.179 674.184 104.605 673.273 104.923 671.832L107.798 658.785C108.116 657.344 107.205 655.918 105.764 655.6L103.154 655.025C101.713 654.708 100.287 655.618 99.9696 657.06Z" stroke="#B1B1B1" stroke-width="1.67005"/>
<path d="M299.753 414.146C300.071 415.587 301.497 416.498 302.938 416.18L306.852 415.318C308.293 415 309.204 413.574 308.887 412.133C308.569 410.692 307.143 409.781 305.702 410.099L301.788 410.961C300.347 411.279 299.436 412.705 299.753 414.146ZM299.753 414.146L299.375 414.229C298.022 414.527 297.122 415.809 297.3 417.183L298.399 425.629C298.577 427.002 297.677 428.284 296.324 428.583L294.8 428.918C293.359 429.236 291.933 428.325 291.616 426.884L291.287 425.393M291.792 409.06L294.667 422.107C294.985 423.548 294.074 424.974 292.633 425.291L290.023 425.867C288.582 426.184 287.157 425.273 286.839 423.832L283.964 410.785C283.646 409.344 284.557 407.918 285.998 407.6L288.608 407.025C290.049 406.708 291.475 407.618 291.792 409.06Z" stroke="#B1B1B1" stroke-width="1.67005"/>
<path d="M300.753 368.383C301.071 366.941 302.497 366.031 303.938 366.348L307.852 367.211C309.293 367.528 310.204 368.954 309.887 370.395C309.569 371.836 308.143 372.747 306.702 372.43L302.788 371.567C301.347 371.25 300.436 369.824 300.753 368.383ZM300.753 368.383L300.375 368.299C299.022 368.001 298.122 366.719 298.3 365.345L299.399 356.9C299.577 355.526 298.677 354.244 297.324 353.946L295.8 353.61C294.359 353.292 292.933 354.203 292.616 355.644L292.287 357.135M292.792 373.469L295.667 360.421C295.985 358.98 295.074 357.554 293.633 357.237L291.023 356.662C289.582 356.344 288.157 357.255 287.839 358.696L284.964 371.744C284.646 373.185 285.557 374.61 286.998 374.928L289.608 375.503C291.049 375.821 292.475 374.91 292.792 373.469Z" stroke="#B1B1B1" stroke-width="1.67005"/>
<path d="M201.365 396.21C201.682 394.769 203.108 393.858 204.549 394.176L208.463 395.039C209.905 395.356 210.815 396.782 210.498 398.223C210.18 399.664 208.755 400.575 207.313 400.257L203.399 399.395C201.958 399.077 201.047 397.652 201.365 396.21ZM201.365 396.21L200.986 396.127C199.634 395.829 198.733 394.547 198.912 393.173L200.01 384.728C200.189 383.354 199.288 382.072 197.935 381.774L196.412 381.438C194.971 381.12 193.545 382.031 193.227 383.472L192.899 384.963M193.403 401.296L196.279 388.249C196.596 386.808 195.685 385.382 194.244 385.065L191.635 384.49C190.194 384.172 188.768 385.083 188.45 386.524L185.575 399.571C185.257 401.012 186.168 402.438 187.609 402.756L190.219 403.331C191.66 403.648 193.086 402.738 193.403 401.296Z" stroke="#B1B1B1" stroke-width="1.67005"/>
<path d="M216.365 105.21C216.682 103.769 218.108 102.858 219.549 103.176L223.463 104.039C224.905 104.356 225.815 105.782 225.498 107.223C225.18 108.664 223.755 109.575 222.313 109.257L218.399 108.395C216.958 108.077 216.047 106.652 216.365 105.21ZM216.365 105.21L215.986 105.127C214.634 104.829 213.733 103.547 213.912 102.173L215.01 93.7276C215.189 92.354 214.288 91.0716 212.935 90.7735L211.412 90.4376C209.971 90.12 208.545 91.0308 208.227 92.472L207.899 93.9631M208.403 110.296L211.279 97.2491C211.596 95.8079 210.685 94.3822 209.244 94.0646L206.635 93.4895C205.194 93.172 203.768 94.0828 203.45 95.524L200.575 108.571C200.257 110.012 201.168 111.438 202.609 111.756L205.219 112.331C206.66 112.648 208.086 111.738 208.403 110.296Z" stroke="#B1B1B1" stroke-width="1.67005"/>
<path d="M318.228 707.759C316.961 708.516 315.321 708.103 314.564 706.836L312.508 703.395C311.751 702.129 312.164 700.488 313.431 699.731C314.697 698.974 316.338 699.387 317.095 700.654L319.151 704.095C319.908 705.361 319.495 707.002 318.228 707.759ZM318.228 707.759L318.427 708.092C319.137 709.281 318.822 710.815 317.699 711.627L310.799 716.619C309.676 717.43 309.36 718.965 310.071 720.154L310.871 721.494C311.628 722.761 313.269 723.174 314.536 722.417L315.846 721.634M327.389 710.067L315.92 716.92C314.654 717.677 314.24 719.318 314.997 720.585L316.368 722.878C317.125 724.145 318.766 724.558 320.033 723.801L331.501 716.948C332.768 716.191 333.181 714.55 332.424 713.283L331.054 710.99C330.296 709.723 328.656 709.31 327.389 710.067Z" stroke="#B1B1B1" stroke-width="1.67005"/>
<path d="M74.5337 322.769C75.8005 322.012 77.4411 322.426 78.1981 323.692L80.2542 327.133C81.0112 328.4 80.598 330.04 79.3312 330.797C78.0644 331.554 76.4238 331.141 75.6667 329.874L73.6107 326.434C72.8537 325.167 73.2669 323.526 74.5337 322.769ZM74.5337 322.769L74.3347 322.437C73.6243 321.248 73.9402 319.713 75.0625 318.901L81.9632 313.91C83.0855 313.098 83.4014 311.563 82.6909 310.374L81.8905 309.035C81.1335 307.768 79.4929 307.354 78.226 308.111L76.9154 308.895M65.3726 320.462L76.8413 313.608C78.108 312.851 78.5213 311.211 77.7643 309.944L76.3936 307.65C75.6366 306.383 73.9959 305.97 72.7291 306.727L61.2605 313.581C59.9937 314.338 59.5805 315.978 60.3375 317.245L61.7082 319.539C62.4652 320.806 64.1058 321.219 65.3726 320.462Z" stroke="#B1B1B1" stroke-width="1.67005"/>
<path d="M317.113 57.7693C315.846 57.0123 314.206 57.4255 313.449 58.6923L311.393 62.1329C310.636 63.3997 311.049 65.0403 312.316 65.7973C313.582 66.5544 315.223 66.1411 315.98 64.8743L318.036 61.4337C318.793 60.167 318.38 58.5263 317.113 57.7693ZM317.113 57.7693L317.312 57.4368C318.023 56.2477 317.707 54.713 316.584 53.9012L309.684 48.9097C308.561 48.0979 308.245 46.563 308.956 45.374L309.756 44.0346C310.513 42.7677 312.154 42.3544 313.421 43.1114L314.731 43.8946M326.274 55.4618L314.806 48.6082C313.539 47.8512 313.126 46.2106 313.883 44.9438L315.253 42.6501C316.01 41.3833 317.651 40.97 318.918 41.7271L330.386 48.5806C331.653 49.3376 332.066 50.9782 331.309 52.245L329.939 54.5387C329.182 55.8055 327.541 56.2188 326.274 55.4618Z" stroke="#B1B1B1" stroke-width="1.67005"/>
<path d="M298.594 542.574C297.653 543.711 297.812 545.395 298.949 546.336L302.038 548.891C303.175 549.832 304.859 549.672 305.8 548.535C306.741 547.398 306.581 545.714 305.444 544.773L302.356 542.218C301.219 541.278 299.535 541.437 298.594 542.574ZM298.594 542.574L298.295 542.327C297.228 541.444 295.663 541.523 294.69 542.509L288.708 548.571C287.735 549.557 286.17 549.636 285.103 548.753L283.901 547.759C282.764 546.818 282.604 545.134 283.545 543.997L284.518 542.82M297.705 533.169L289.189 543.463C288.248 544.6 286.563 544.759 285.426 543.819L283.368 542.115C282.23 541.175 282.071 539.49 283.012 538.353L291.528 528.059C292.469 526.922 294.153 526.763 295.29 527.703L297.349 529.407C298.486 530.347 298.645 532.032 297.705 533.169Z" stroke="#B1B1B1" stroke-width="1.67005"/>
<path d="M299.594 239.954C298.653 238.817 298.812 237.133 299.949 236.192L303.038 233.637C304.175 232.697 305.859 232.856 306.8 233.993C307.741 235.13 307.581 236.814 306.444 237.755L303.356 240.31C302.219 241.251 300.535 241.091 299.594 239.954ZM299.594 239.954L299.295 240.202C298.228 241.084 296.663 241.005 295.69 240.019L289.708 233.957C288.735 232.971 287.17 232.892 286.103 233.775L284.901 234.77C283.764 235.71 283.604 237.395 284.545 238.532L285.518 239.708M298.705 249.36L290.189 239.065C289.248 237.928 287.563 237.769 286.426 238.71L284.368 240.413C283.23 241.354 283.071 243.038 284.012 244.175L292.528 254.469C293.469 255.607 295.153 255.766 296.29 254.825L298.349 253.122C299.486 252.181 299.645 250.497 298.705 249.36Z" stroke="#B1B1B1" stroke-width="1.67005"/>
<path d="M225.541 796.664C225.359 798.128 224.023 799.167 222.559 798.985L218.582 798.489C217.117 798.306 216.078 796.971 216.261 795.506C216.444 794.042 217.779 793.003 219.243 793.186L223.22 793.682C224.685 793.864 225.724 795.2 225.541 796.664ZM225.541 796.664L225.926 796.712C227.3 796.883 228.316 798.077 228.265 799.461L227.954 807.972C227.904 809.356 228.919 810.549 230.294 810.721L231.842 810.914C233.306 811.097 234.642 810.058 234.824 808.593L235.013 807.078M232.997 790.862L231.343 804.12C231.16 805.584 232.2 806.919 233.664 807.102L236.315 807.433C237.78 807.615 239.115 806.576 239.298 805.112L240.951 791.854C241.134 790.39 240.095 789.055 238.631 788.872L235.979 788.541C234.515 788.359 233.18 789.398 232.997 790.862Z" stroke="#B1B1B1" stroke-width="1.67005"/>
<path d="M166.221 548.664C166.403 550.128 167.738 551.167 169.203 550.985L173.18 550.489C174.644 550.306 175.684 548.971 175.501 547.506C175.318 546.042 173.983 545.003 172.519 545.186L168.541 545.682C167.077 545.864 166.038 547.2 166.221 548.664ZM166.221 548.664L165.836 548.712C164.461 548.883 163.446 550.077 163.497 551.461L163.808 559.972C163.858 561.356 162.843 562.549 161.468 562.721L159.92 562.914C158.455 563.097 157.12 562.058 156.937 560.593L156.748 559.078M158.765 542.862L160.419 556.12C160.601 557.584 159.562 558.919 158.098 559.102L155.446 559.433C153.982 559.615 152.647 558.576 152.464 557.112L150.81 543.854C150.628 542.39 151.667 541.055 153.131 540.872L155.783 540.541C157.247 540.359 158.582 541.398 158.765 542.862Z" stroke="#B1B1B1" stroke-width="1.67005"/>
<path d="M167.221 233.864C167.403 232.4 168.738 231.361 170.203 231.544L174.18 232.04C175.644 232.222 176.684 233.558 176.501 235.022C176.318 236.486 174.983 237.525 173.519 237.343L169.541 236.847C168.077 236.664 167.038 235.329 167.221 233.864ZM167.221 233.864L166.836 233.817C165.461 233.645 164.446 232.452 164.497 231.068L164.808 222.556C164.858 221.172 163.843 219.979 162.468 219.807L160.92 219.614C159.455 219.431 158.12 220.47 157.937 221.935L157.748 223.45M159.765 239.666L161.419 226.409C161.601 224.944 160.562 223.609 159.098 223.426L156.446 223.096C154.982 222.913 153.647 223.952 153.464 225.416L151.81 238.674C151.628 240.138 152.667 241.474 154.131 241.656L156.783 241.987C158.247 242.17 159.582 241.131 159.765 239.666Z" stroke="#B1B1B1" stroke-width="1.67005"/>
<path d="M47.3296 658.265C48.8023 658.359 49.9197 659.629 49.8253 661.102L49.5689 665.102C49.4746 666.575 48.2042 667.692 46.7314 667.598C45.2587 667.503 44.1413 666.233 44.2357 664.76L44.4921 660.76C44.5865 659.288 45.8569 658.17 47.3296 658.265ZM47.3296 658.265L47.3542 657.878C47.4429 656.496 48.5731 655.41 49.9578 655.378L58.4722 655.177C59.8569 655.144 60.9872 654.059 61.0758 652.677L61.1757 651.119C61.2701 649.647 60.1528 648.376 58.68 648.282L57.1563 648.184M41.0904 651.171L54.4234 652.025C55.8962 652.12 57.1666 651.002 57.2609 649.53L57.4319 646.863C57.5263 645.39 56.4089 644.12 54.9362 644.025L41.6031 643.171C40.1304 643.077 38.86 644.194 38.7656 645.667L38.5947 648.333C38.5003 649.806 39.6177 651.076 41.0904 651.171Z" stroke="#B1B1B1" stroke-width="1.67005"/>
<path d="M345.432 372.264C343.959 372.169 342.842 370.899 342.936 369.426L343.193 365.426C343.287 363.954 344.558 362.836 346.03 362.931C347.503 363.025 348.62 364.295 348.526 365.768L348.27 369.768C348.175 371.241 346.905 372.358 345.432 372.264ZM345.432 372.264L345.408 372.651C345.319 374.033 344.189 375.118 342.804 375.151L334.29 375.351C332.905 375.384 331.775 376.469 331.686 377.852L331.586 379.409C331.492 380.882 332.609 382.152 334.082 382.247L335.605 382.344M351.671 379.358L338.338 378.503C336.866 378.409 335.595 379.526 335.501 380.999L335.33 383.665C335.235 385.138 336.353 386.408 337.826 386.503L351.159 387.357C352.631 387.452 353.902 386.334 353.996 384.862L354.167 382.195C354.261 380.722 353.144 379.452 351.671 379.358Z" stroke="#B1B1B1" stroke-width="1.67005"/>
<path d="M46.2148 107.264C47.6875 107.169 48.8048 105.899 48.7104 104.426L48.4541 100.426C48.3597 98.9536 47.0893 97.8363 45.6166 97.9307C44.1438 98.0251 43.0265 99.2955 43.1209 100.768L43.3772 104.768C43.4716 106.241 44.742 107.358 46.2148 107.264ZM46.2148 107.264L46.2393 107.651C46.328 109.033 47.4582 110.118 48.8429 110.151L57.3573 110.351C58.7421 110.384 59.8723 111.469 59.9609 112.852L60.0608 114.409C60.1553 115.882 59.0379 117.152 57.5651 117.247L56.0415 117.344M39.9755 114.358L53.3086 113.503C54.7813 113.409 56.0517 114.526 56.1461 115.999L56.317 118.665C56.4114 120.138 55.294 121.408 53.8213 121.503L40.4883 122.357C39.0155 122.452 37.7451 121.334 37.6507 119.862L37.4798 117.195C37.3854 115.722 38.5028 114.452 39.9755 114.358Z" stroke="#B1B1B1" stroke-width="1.67005"/>
<path d="M285.744 861.072C285.654 862.545 284.386 863.666 282.913 863.575L278.913 863.33C277.44 863.24 276.319 861.973 276.409 860.5C276.499 859.027 277.766 857.906 279.239 857.996L283.24 858.241C284.713 858.331 285.834 859.599 285.744 861.072ZM285.744 861.072L286.131 861.095C287.513 861.18 288.602 862.307 288.638 863.691L288.863 872.205C288.9 873.59 289.988 874.717 291.371 874.802L292.928 874.897C294.401 874.987 295.669 873.866 295.759 872.393L295.852 870.87M292.82 854.812L292.003 868.148C291.913 869.621 293.034 870.888 294.507 870.978L297.174 871.141C298.647 871.231 299.914 870.11 300.004 868.638L300.821 855.302C300.911 853.829 299.79 852.562 298.317 852.472L295.65 852.308C294.177 852.218 292.91 853.339 292.82 854.812Z" stroke="#B1B1B1" stroke-width="1.67005"/>
<path d="M106.018 613.072C106.108 614.545 107.375 615.666 108.848 615.575L112.849 615.33C114.322 615.24 115.443 613.973 115.353 612.5C115.263 611.027 113.995 609.906 112.522 609.996L108.522 610.241C107.049 610.331 105.928 611.599 106.018 613.072ZM106.018 613.072L105.631 613.095C104.249 613.18 103.16 614.307 103.123 615.691L102.899 624.205C102.862 625.59 101.773 626.717 100.391 626.802L98.8334 626.897C97.3603 626.987 96.0931 625.866 96.0029 624.393L95.9095 622.87M98.9419 606.812L99.7585 620.148C99.8487 621.621 98.7277 622.888 97.2547 622.978L94.5876 623.141C93.1147 623.231 91.8474 622.11 91.7572 620.638L90.9407 607.302C90.8505 605.829 91.9714 604.562 93.4444 604.472L96.1115 604.308C97.5845 604.218 98.8517 605.339 98.9419 606.812Z" stroke="#B1B1B1" stroke-width="1.67005"/>
<path d="M107.018 169.457C107.108 167.984 108.375 166.863 109.848 166.953L113.849 167.198C115.322 167.288 116.443 168.555 116.353 170.028C116.263 171.501 114.995 172.622 113.522 172.532L109.522 172.287C108.049 172.197 106.928 170.93 107.018 169.457ZM107.018 169.457L106.631 169.433C105.249 169.349 104.16 168.221 104.123 166.837L103.899 158.323C103.862 156.938 102.773 155.811 101.391 155.727L99.8334 155.631C98.3603 155.541 97.0931 156.662 97.0029 158.135L96.9095 159.659M99.9419 175.716L100.758 162.381C100.849 160.908 99.7277 159.641 98.2547 159.55L95.5876 159.387C94.1147 159.297 92.8474 160.418 92.7572 161.891L91.9407 175.226C91.8505 176.699 92.9714 177.966 94.4444 178.057L97.1115 178.22C98.5845 178.31 99.8517 177.189 99.9419 175.716Z" stroke="#B1B1B1" stroke-width="1.67005"/>
<path d="M290.417 672.576C291.359 673.713 291.2 675.397 290.063 676.338L286.976 678.894C285.839 679.835 284.155 679.677 283.214 678.54C282.273 677.403 282.431 675.719 283.568 674.778L286.655 672.222C287.792 671.281 289.476 671.439 290.417 672.576ZM290.417 672.576L290.716 672.329C291.783 671.445 293.348 671.524 294.321 672.509L300.305 678.569C301.278 679.555 302.844 679.634 303.91 678.75L305.112 677.755C306.249 676.814 306.408 675.13 305.467 673.993L304.493 672.817M291.303 663.17L299.823 673.461C300.764 674.598 302.449 674.757 303.585 673.816L305.644 672.112C306.78 671.17 306.939 669.486 305.998 668.349L297.477 658.058C296.536 656.921 294.852 656.763 293.715 657.704L291.657 659.408C290.52 660.349 290.362 662.034 291.303 663.17Z" stroke="#B1B1B1" stroke-width="1.67005"/>
<path d="M101.344 424.576C100.403 425.713 100.562 427.397 101.698 428.338L104.786 430.894C105.922 431.835 107.607 431.677 108.548 430.54C109.489 429.403 109.331 427.719 108.194 426.778L105.107 424.222C103.97 423.281 102.285 423.439 101.344 424.576ZM101.344 424.576L101.046 424.329C99.9789 423.445 98.414 423.524 97.4408 424.509L91.4565 430.569C90.4832 431.555 88.9182 431.634 87.8512 430.75L86.6493 429.755C85.5125 428.814 85.3539 427.13 86.2951 425.993L87.2687 424.817M100.459 415.17L91.9386 425.461C90.9975 426.598 89.3131 426.757 88.1764 425.816L86.1182 424.112C84.9814 423.17 84.8229 421.486 85.764 420.349L94.2842 410.058C95.2254 408.921 96.9098 408.763 98.0465 409.704L100.105 411.408C101.241 412.349 101.4 414.034 100.459 415.17Z" stroke="#B1B1B1" stroke-width="1.67005"/>
<path d="M102.344 357.952C101.403 356.816 101.562 355.131 102.698 354.19L105.786 351.634C106.922 350.693 108.607 350.851 109.548 351.988C110.489 353.125 110.331 354.809 109.194 355.75L106.107 358.306C104.97 359.248 103.285 359.089 102.344 357.952ZM102.344 357.952L102.046 358.2C100.979 359.083 99.414 359.004 98.4408 358.019L92.4565 351.959C91.4832 350.973 89.9182 350.895 88.8512 351.778L87.6493 352.773C86.5125 353.714 86.3539 355.399 87.2951 356.535L88.2687 357.711M101.459 367.358L92.9386 357.067C91.9975 355.93 90.3131 355.772 89.1764 356.713L87.1182 358.417C85.9814 359.358 85.8229 361.042 86.764 362.179L95.2842 372.47C96.2254 373.607 97.9098 373.765 99.0465 372.824L101.105 371.12C102.241 370.179 102.4 368.495 101.459 367.358Z" stroke="#B1B1B1" stroke-width="1.67005"/>
<path d="M289.303 92.9523C290.244 91.8156 290.085 90.1312 288.948 89.1901L285.861 86.634C284.724 85.6929 283.04 85.8514 282.099 86.9882C281.158 88.1249 281.316 89.8093 282.453 90.7504L285.54 93.3065C286.677 94.2476 288.361 94.089 289.303 92.9523ZM289.303 92.9523L289.601 93.1997C290.668 94.0829 292.233 94.0044 293.206 93.0188L299.19 86.9588C300.164 85.9733 301.729 85.8948 302.796 86.7781L303.998 87.7731C305.134 88.7142 305.293 90.3987 304.352 91.5355L303.378 92.7115M290.188 102.358L298.708 92.0669C299.649 90.9302 301.334 90.7716 302.47 91.7128L304.529 93.4168C305.665 94.3579 305.824 96.0423 304.883 97.1791L296.363 107.47C295.421 108.607 293.737 108.765 292.6 107.824L290.542 106.12C289.405 105.179 289.247 103.495 290.188 102.358Z" stroke="#B1B1B1" stroke-width="1.67005"/>
<path d="M138.758 693.89C139.72 695.009 139.593 696.696 138.475 697.658L135.436 700.272C134.317 701.234 132.63 701.107 131.667 699.988C130.705 698.869 130.832 697.182 131.951 696.22L134.99 693.607C136.109 692.644 137.796 692.771 138.758 693.89ZM138.758 693.89L139.052 693.637C140.102 692.734 141.668 692.783 142.66 693.751L148.756 699.697C149.748 700.665 151.314 700.714 152.364 699.811L153.548 698.793C154.667 697.831 154.794 696.144 153.831 695.025L152.836 693.867M139.467 684.47L148.179 694.599C149.141 695.718 150.828 695.845 151.947 694.883L153.973 693.141C155.092 692.178 155.219 690.491 154.257 689.372L145.545 679.243C144.583 678.124 142.896 677.997 141.777 678.959L139.751 680.701C138.632 681.664 138.505 683.351 139.467 684.47Z" stroke="#B1B1B1" stroke-width="1.67005"/>
<path d="M254.004 336.638C253.041 335.519 253.168 333.832 254.287 332.87L257.326 330.256C258.445 329.294 260.132 329.421 261.094 330.54C262.057 331.659 261.93 333.346 260.811 334.308L257.772 336.922C256.653 337.884 254.966 337.757 254.004 336.638ZM254.004 336.638L253.71 336.891C252.66 337.794 251.093 337.745 250.102 336.778L244.005 330.831C243.014 329.864 241.447 329.815 240.397 330.718L239.214 331.735C238.095 332.697 237.968 334.384 238.93 335.503L239.926 336.661M253.294 346.059L244.583 335.929C243.621 334.81 241.934 334.683 240.815 335.645L238.789 337.388C237.67 338.35 237.543 340.037 238.505 341.156L247.217 351.286C248.179 352.404 249.866 352.531 250.985 351.569L253.011 349.827C254.13 348.865 254.257 347.178 253.294 346.059Z" stroke="#B1B1B1" stroke-width="1.67005"/>
<path d="M137.643 71.6381C138.606 70.5192 138.479 68.8321 137.36 67.8699L134.321 65.2564C133.202 64.2942 131.515 64.4212 130.553 65.5401C129.59 66.659 129.717 68.3461 130.836 69.3083L133.875 71.9218C134.994 72.884 136.681 72.757 137.643 71.6381ZM137.643 71.6381L137.937 71.891C138.987 72.794 140.553 72.7449 141.545 71.7777L147.642 65.8309C148.633 64.8637 150.199 64.8146 151.25 65.7177L152.433 66.7351C153.552 67.6973 153.679 69.3844 152.716 70.5034L151.721 71.661M138.352 81.0587L147.064 70.929C148.026 69.8101 149.713 69.6832 150.832 70.6454L152.858 72.3877C153.977 73.3499 154.104 75.037 153.142 76.1559L144.43 86.2856C143.468 87.4045 141.781 87.5315 140.662 86.5692L138.636 84.8269C137.517 83.8647 137.39 82.1776 138.352 81.0587Z" stroke="#B1B1B1" stroke-width="1.67005"/>
<path d="M327.178 763.554C327.023 765.022 325.708 766.086 324.241 765.931L320.254 765.511C318.787 765.357 317.722 764.042 317.877 762.574C318.032 761.106 319.347 760.042 320.814 760.197L324.801 760.617C326.268 760.771 327.333 762.086 327.178 763.554ZM327.178 763.554L327.563 763.594C328.941 763.74 329.979 764.913 329.955 766.298L329.807 774.814C329.782 776.199 330.821 777.372 332.198 777.518L333.75 777.681C335.218 777.836 336.533 776.772 336.687 775.304L336.847 773.786M334.521 757.611L333.121 770.898C332.967 772.365 334.031 773.68 335.499 773.835L338.156 774.115C339.624 774.27 340.939 773.205 341.093 771.738L342.493 758.451C342.648 756.983 341.584 755.668 340.116 755.513L337.459 755.233C335.991 755.079 334.676 756.143 334.521 757.611Z" stroke="#B1B1B1" stroke-width="1.67005"/>
<path d="M64.5838 515.554C64.7384 517.022 66.0536 518.086 67.5212 517.931L71.5072 517.511C72.9749 517.357 74.0392 516.042 73.8846 514.574C73.73 513.106 72.4149 512.042 70.9472 512.197L66.9612 512.617C65.4936 512.771 64.4292 514.086 64.5838 515.554ZM64.5838 515.554L64.1983 515.594C62.8209 515.74 61.7828 516.913 61.8069 518.298L61.9552 526.814C61.9793 528.199 60.9411 529.372 59.5636 529.518L58.0119 529.681C56.5442 529.836 55.229 528.772 55.0744 527.304L54.9144 525.786M57.2404 509.611L58.6404 522.898C58.795 524.365 57.7306 525.68 56.263 525.835L53.6057 526.115C52.138 526.27 50.8229 525.205 50.6683 523.738L49.2683 510.451C49.1136 508.983 50.178 507.668 51.6456 507.513L54.303 507.233C55.7706 507.079 57.0857 508.143 57.2404 509.611Z" stroke="#B1B1B1" stroke-width="1.67005"/>
<path d="M65.5838 266.974C65.7384 265.507 67.0536 264.442 68.5212 264.597L72.5072 265.017C73.9749 265.171 75.0392 266.487 74.8846 267.954C74.73 269.422 73.4149 270.486 71.9472 270.332L67.9612 269.912C66.4936 269.757 65.4292 268.442 65.5838 266.974ZM65.5838 266.974L65.1983 266.934C63.8209 266.789 62.7828 265.615 62.8069 264.23L62.9552 255.715C62.9793 254.33 61.9411 253.156 60.5636 253.011L59.0119 252.847C57.5442 252.692 56.229 253.757 56.0744 255.224L55.9144 256.743M58.2404 272.918L59.6404 259.631C59.795 258.163 58.7306 256.848 57.263 256.693L54.6057 256.413C53.138 256.259 51.8229 257.323 51.6683 258.791L50.2683 272.078C50.1136 273.545 51.178 274.86 52.6456 275.015L55.303 275.295C56.7706 275.45 58.0857 274.385 58.2404 272.918Z" stroke="#B1B1B1" stroke-width="1.67005"/>
</g>
</g>
<defs>
<clipPath id="clip0_1_12794">
<rect width="402" height="874" rx="32" fill="white"/>
</clipPath>
</defs>
</svg>
