<svg xmlns="http://www.w3.org/2000/svg" width="304" height="303" viewBox="0 0 304 303" fill="none">
    <rect x="1.375" y="0.824707" width="301.25" height="301.25" rx="150.625" fill="#262626"/>
    <rect x="1.375" y="0.824707" width="301.25" height="301.25" rx="150.625" stroke="#656565" stroke-width="1.25"/>
    <rect x="1.375" y="0.824707" width="301.25" height="301.25" rx="150.625" stroke="#E9E9E9" stroke-width="1.25"/>
    <rect x="1.375" y="0.824707" width="301.25" height="301.25" rx="150.625" stroke="#E9E9E9" stroke-width="1.25"/>
    <path d="M45.934 257.516C24.9561 236.538 10.67 209.811 4.8822 180.713C-0.905584 151.616 2.06492 121.456 13.4181 94.0474C24.7712 66.6384 43.9971 43.2116 68.6645 26.7294C93.3318 10.2472 122.333 1.44989 152 1.44989L152 151.45L45.934 257.516Z" fill="#E94DBB"/>
    <path d="M302 151.45C302 187.841 288.77 222.991 264.776 250.352C240.782 277.712 207.659 295.416 171.579 300.166C135.499 304.916 98.9227 296.388 68.6645 276.17C38.4063 255.952 16.5299 225.424 7.11113 190.273L152 151.45H302Z" fill="#00E990"/>
    <path d="M113 6.79301C141.679 -0.891336 171.99 0.094474 200.101 9.62577C228.212 19.1571 252.86 36.8058 270.929 60.3401C288.998 83.8744 299.675 112.237 301.611 141.842C303.547 171.447 296.655 200.964 281.806 226.661L151.823 151.682L113 6.79301Z" fill="#1BA6FF"/>
</svg>